<?xml version="1.0" encoding="UTF-8"?>
<svg width="52px" height="52px" viewBox="0 0 52 52" version="1.1" xmlns="http://www.w3.org/2000/svg" xmlns:xlink="http://www.w3.org/1999/xlink">
    <title>01</title>
    <defs>
        <circle id="path-1" cx="24.9831646" cy="24.8654427" r="24.5"></circle>
        <polygon id="path-3" points="0 0.202508471 50.2019837 0.202508471 50.2019837 50.4040015 0 50.4040015"></polygon>
    </defs>
    <g id="Desktop" stroke="none" stroke-width="1" fill="none" fill-rule="evenodd">
        <g id="06---Meus-Grupos" transform="translate(-243.000000, -451.000000)">
            <g id="Grupo-1" transform="translate(178.000000, 334.000000)">
                <g id="timeline" transform="translate(46.500000, 117.500000)">
                    <g id="01" transform="translate(19.000000, 0.000000)">
                        <g id="Group-10" transform="translate(0.516835, 0.634557)">
                            <mask id="mask-2" fill="white">
                                <use xlink:href="#path-1"></use>
                            </mask>
                            <use id="Mask" fill="#BFD541" xlink:href="#path-1"></use>
                            <g mask="url(#mask-2)">
                                <g transform="translate(0.000000, -1.000000)">
                                    <g id="Group-3" stroke-width="1" fill="none" transform="translate(0.000000, 0.243545)">
                                        <mask id="mask-4" fill="white">
                                            <use xlink:href="#path-3"></use>
                                        </mask>
                                        <g id="Clip-2"></g>
                                        <path d="M50.2019837,25.3032104 C50.2019837,39.1661196 38.9632096,50.4040015 25.1011926,50.4040015 C11.2378374,50.4040015 -4.460539e-05,39.1661196 -4.460539e-05,25.3032104 C-4.460539e-05,11.4398552 11.2378374,0.20241926 25.1011926,0.20241926 C38.9632096,0.20241926 50.2019837,11.4398552 50.2019837,25.3032104" id="Fill-1" fill="#EAE8DE" mask="url(#mask-4)"></path>
                                    </g>
                                    <path d="M50.2019837,25.5467558 C50.2019837,23.6153424 49.9767265,21.7379016 49.5636806,19.9322754 L39.4030188,13.0719664 L32.6207692,24.5181555 L27.5058692,27.5999419 L24.9727291,40.9909261 L35.1690752,48.5399423 C44.0174464,44.6601655 50.2019837,35.8278522 50.2019837,25.5467558" id="Fill-4" fill="#C2C2B7"></path>
                                    <path d="M40.599603,15.3073655 C39.5205986,12.1658079 36.5422967,9.907437 33.0345288,9.907437 C28.9598265,9.907437 25.5997024,12.9544312 25.1010142,16.8930871 C24.6023259,12.9544312 21.2417558,9.907437 17.1670534,9.907437 C13.6597316,9.907437 10.6809837,12.1658079 9.60197929,15.3073655 C9.1925018,16.3484553 9.020325,17.7642304 9.16752279,19.6666503 C9.84418655,28.3861119 22.6869705,39.8260563 25.1010142,41.1860746 C27.4869565,39.9861897 40.3578418,28.3861119 41.0340595,19.6666503 C41.1817033,17.7642304 41.0090805,16.3484553 40.599603,15.3073655" id="Fill-6" fill="#ED2524"></path>
                                    <path d="M40.599603,15.3073655 C39.5205986,12.1658079 36.5422967,9.907437 33.0345288,9.907437 C28.9598265,9.907437 25.5997024,12.9544312 25.1010142,16.8930871 C25.0974457,16.8663239 25.0907549,16.8408988 25.0871865,16.8136895 L25.0871865,41.1775996 C25.0907549,41.1802759 25.0965536,41.1838444 25.1010142,41.1860746 C27.4869565,39.9861897 40.3578418,28.3861119 41.0340595,19.6666503 C41.1817033,17.7642304 41.0090805,16.3484553 40.599603,15.3073655" id="Fill-8" fill="#B51D22"></path>
                                </g>
                            </g>
                        </g>
                    </g>
                </g>
            </g>
        </g>
    </g>
</svg>