<?xml version="1.0" encoding="UTF-8"?>
<svg width="52px" height="52px" viewBox="0 0 52 52" version="1.1" xmlns="http://www.w3.org/2000/svg" xmlns:xlink="http://www.w3.org/1999/xlink">
    <title>02</title>
    <defs>
        <circle id="path-1" cx="25.0951615" cy="25.4235939" r="24.5"></circle>
        <polygon id="path-3" points="0 0.202132744 50.1640429 0.202132744 50.1640429 50.366042 0 50.366042"></polygon>
    </defs>
    <g id="Desktop" stroke="none" stroke-width="1" fill="none" fill-rule="evenodd">
        <g id="06---Meus-Grupos" transform="translate(-501.000000, -451.000000)">
            <g id="Grupo-1" transform="translate(178.000000, 334.000000)">
                <g id="timeline" transform="translate(46.500000, 117.500000)">
                    <g id="3" transform="translate(247.000000, 0.000000)">
                        <g id="02" transform="translate(30.000000, 0.000000)">
                            <g id="Group-20" transform="translate(0.404838, 0.076406)">
                                <mask id="mask-2" fill="white">
                                    <use xlink:href="#path-1"></use>
                                </mask>
                                <use id="Mask" fill="#55C7DF" transform="translate(25.095162, 25.423594) scale(-1, -1) translate(-25.095162, -25.423594) " xlink:href="#path-1"></use>
                                <g mask="url(#mask-2)">
                                    <g id="Group-3" transform="translate(0.000000, 0.243807)">
                                        <mask id="mask-4" fill="white">
                                            <use xlink:href="#path-3"></use>
                                        </mask>
                                        <g id="Clip-2"></g>
                                        <path d="M50.1640429,25.2839759 C50.1640429,39.1364203 38.9341984,50.3662648 25.0821997,50.3662648 C11.2293096,50.3662648 -8.91434371e-05,39.1364203 -8.91434371e-05,25.2839759 C-8.91434371e-05,11.4319772 11.2293096,0.202132744 25.0821997,0.202132744 C38.9341984,0.202132744 50.1640429,11.4319772 50.1640429,25.2839759" id="Fill-1" fill="#FFF100" mask="url(#mask-4)"></path>
                                    </g>
                                    <path d="M49.9916395,22.6258523 L30.8119833,9.95856993 L30.8119833,17.7604035 L30.2240823,17.7604035 L30.2240823,18.4788996 L23.953733,18.4788996 L23.953733,43.4916567 L32.7869562,49.3987465 C42.8686332,46.1467939 50.1641321,36.6909038 50.1641321,25.5279169 C50.1641321,24.546002 50.1012859,23.5787957 49.9916395,22.6258523" id="Fill-4" fill="#FFCA05"></path>
                                    <path d="M24.9979592,8.40270495 C12.7073078,8.40270495 13.4939986,22.6041459 15.3067304,25.9367733 C16.7802715,28.6471795 18.7030954,29.5591169 18.7030954,33.1056885 L18.7030954,33.2536666 L30.8479973,33.2536666 C30.8479973,33.1761118 30.8475515,33.1244086 30.8471058,33.1056885 C30.7922826,30.1336463 32.0911025,29.4837907 34.2443622,25.9367733 C36.213095,22.6941808 37.1869871,8.40270495 24.9979592,8.40270495" id="Fill-6" fill="#EDC11A"></path>
                                    <path d="M25.1472745,8.40555754 L25.1472745,36.0279887 L30.8430944,36.0279887 C30.8457687,34.3939895 30.8497801,33.2146218 30.8471058,33.1058668 C30.7927283,30.1338246 32.0911025,29.483969 34.2443622,25.9369516 C36.2050721,22.7077306 37.1771813,8.5236726 25.1472745,8.40555754" id="Fill-8" fill="#F89E1B"></path>
                                    <path d="M18.7033182,33.1056439 C18.7033182,33.2611992 18.7055468,35.6012145 18.7104497,38.3298951 L30.8344029,38.3298951 C30.8397515,35.6012145 30.846883,33.2611992 30.846883,33.1056439 L18.7033182,33.1056439 Z" id="Fill-10" fill="#43210D"></path>
                                    <polygon id="Fill-12" fill="#43210D" points="22.5676417 42.0822098 26.9793504 42.0719583 30.8343583 38.3297168 23.2371089 37.8144677 18.7104052 38.3297168"></polygon>
                                    <path d="M25.1472745,33.1056439 L25.1472745,38.3298951 L30.83418,38.3298951 C30.8395286,35.6012145 30.8471058,33.2611992 30.8471058,33.1056439 L25.1472745,33.1056439 Z" id="Fill-14" fill="#26160C"></path>
                                    <path d="M22.5676417,42.0822098 C23.005336,42.9816671 23.643603,43.627957 24.7677017,43.627957 C25.8913547,43.627957 26.5403189,42.9125809 26.9793504,42.0719583 L22.5676417,42.0822098 Z" id="Fill-16" fill="#FEFEFE"></path>
                                    <polygon id="Fill-18" fill="#26160C" points="26.9795287 42.07178 30.8340909 38.3295385 25.1471853 37.9435474 25.1471853 42.0753457"></polygon>
                                </g>
                            </g>
                        </g>
                    </g>
                </g>
            </g>
        </g>
    </g>
</svg>