<?xml version="1.0" encoding="UTF-8"?>
<svg width="52px" height="52px" viewBox="0 0 52 52" version="1.1" xmlns="http://www.w3.org/2000/svg" xmlns:xlink="http://www.w3.org/1999/xlink">
    <title>05</title>
    <defs>
        <circle id="path-1" cx="25.0285308" cy="24.7388941" r="24.5"></circle>
        <polygon id="path-3" points="0 0.204078129 50.5908783 0.204078129 50.5908783 50.7946867 0 50.7946867"></polygon>
    </defs>
    <g id="Desktop" stroke="none" stroke-width="1" fill="none" fill-rule="evenodd">
        <g id="06---Meus-Grupos" transform="translate(-758.000000, -451.000000)">
            <g id="Grupo-1" transform="translate(178.000000, 334.000000)">
                <g id="timeline" transform="translate(46.500000, 117.500000)">
                    <g id="5" transform="translate(517.000000, 0.000000)">
                        <g id="05" transform="translate(17.000000, 0.000000)">
                            <g id="Group-14" transform="translate(0.471469, 0.761106)">
                                <mask id="mask-2" fill="white">
                                    <use xlink:href="#path-1"></use>
                                </mask>
                                <use id="Mask" fill="#FFD339" xlink:href="#path-1"></use>
                                <g mask="url(#mask-2)">
                                    <g transform="translate(0.000000, -1.000000)">
                                        <g id="Group-3" stroke-width="1" fill="none" transform="translate(0.000000, 0.245433)">
                                            <mask id="mask-4" fill="white">
                                                <use xlink:href="#path-3"></use>
                                            </mask>
                                            <g id="Clip-2"></g>
                                            <path d="M50.5908783,25.4993375 C50.5908783,39.4696991 39.2658906,50.7946867 25.295529,50.7946867 C11.3251674,50.7946867 -0.000269706778,39.4696991 -0.000269706778,25.4993375 C-0.000269706778,11.5289759 11.3251674,0.203988227 25.295529,0.203988227 C39.2658906,0.203988227 50.5908783,11.5289759 50.5908783,25.4993375" id="Fill-1" fill="#A5CD38" mask="url(#mask-4)"></path>
                                        </g>
                                        <path d="M25.2005024,12.5388479 L23.3228937,15.5672055 L11.5645771,18.0372701 L10.3787663,22.4321421 L10.3787663,33.3736966 L34.6640637,49.2405463 C43.0317165,45.9011269 49.1931678,38.226171 50.3767311,28.9887139 L25.2005024,12.5388479 Z" id="Fill-4" fill="#80A32B"></path>
                                        <path d="M18.3384427,31.1110365 L18.3384427,31.1110365 C14.072131,31.1110365 10.612692,27.6520471 10.612692,23.3843868 C10.612692,19.1171761 14.072131,15.6581866 18.3384427,15.6581866 C22.6061029,15.6581866 26.0650924,19.1171761 26.0650924,23.3843868 C26.0650924,27.6520471 22.6061029,31.1110365 18.3384427,31.1110365 L18.3384427,31.1110365 Z M29.8068244,25.9870572 C30.3430914,25.9870572 30.7827134,25.5483342 30.7827134,25.0116177 L30.7827134,21.2703352 C30.7827134,20.7331692 30.3430914,20.2944461 29.8068244,20.2944461 L28.4857107,20.2944461 C27.9494437,20.2944461 27.403737,20.0242899 27.2742778,19.6947981 C27.14347,19.3644073 27.0283951,18.2329873 27.4077826,17.8531503 L28.3890658,16.8723166 C28.7684533,16.4924796 28.7684533,15.871255 28.3890658,15.4918674 L25.7441413,12.8464935 C25.3643043,12.4671059 24.7426301,12.4671059 24.3636921,12.846044 L23.2354188,13.9752163 C22.8555817,14.3550534 22.308976,14.5649752 22.0208392,14.4418091 C21.733152,14.3190925 20.9415626,13.6236985 20.9415626,13.086982 L20.9415626,11.4291843 C20.9415626,10.8924679 20.5023901,10.4532953 19.9656736,10.4532953 L16.2243911,10.4532953 C15.6876746,10.4532953 15.248502,10.8924679 15.248502,11.4291843 L15.248502,13.2380178 C15.248502,13.7738353 15.028691,14.2975159 14.7589842,14.4009035 C14.4892775,14.5033921 13.5008021,14.5204735 13.1214146,14.1406365 L11.8263725,12.846943 C11.4474345,12.4671059 10.8257604,12.4671059 10.4468224,12.846943 L7.80099886,15.492317 C7.42161132,15.871255 7.42161132,16.4924796 7.80099886,16.8723166 L9.09559139,18.1664597 C9.47407991,18.5458472 9.68400168,19.0677298 9.56083559,19.3257493 C9.43632096,19.5846678 8.72834066,20.2944461 8.19207369,20.2944461 L6.38324023,20.2944461 C5.84697325,20.2944461 5.4073512,20.7331692 5.4073512,21.2703352 L5.4073512,25.0116177 C5.4073512,25.5483342 5.84697325,25.9870572 6.38324023,25.9870572 L8.0414874,25.9870572 C8.5786534,25.9870572 9.09738944,26.2329399 9.1953829,26.5332134 C9.29337637,26.833487 9.31000828,27.9006268 8.93017124,28.2800143 L7.80099886,29.4091867 C7.42161132,29.7890238 7.42161132,30.4093494 7.80099886,30.7891864 L10.4468224,33.4350099 C10.8257604,33.814847 11.4474345,33.814847 11.8263725,33.4350099 L12.8072062,32.4537267 C13.1874927,32.0738897 13.7534275,31.8958832 14.0658378,32.0568083 C14.3791472,32.2177333 15.248502,32.9949383 15.248502,33.5316548 L15.248502,34.8518695 C15.248502,35.3890355 15.6876746,35.8277585 16.2243911,35.8277585 L19.9656736,35.8277585 C20.5023901,35.8277585 20.9415626,35.3890355 20.9415626,34.8518695 L20.9415626,33.6817916 C20.9415626,33.1446256 21.2386896,32.6056616 21.6018947,32.4833945 C21.9633018,32.3606779 23.1774318,32.2487496 23.5568193,32.6285866 L24.3627931,33.4350099 C24.7426301,33.814847 25.3634052,33.814847 25.7432423,33.4350099 L28.3890658,30.7896359 C28.7684533,30.4093494 28.7684533,29.7890238 28.3890658,29.4091867 L27.5817435,28.6027635 C27.203255,28.2229264 27.023001,27.63092 27.183027,27.2870439 C27.3417045,26.9436173 28.10003,25.9870572 28.6367465,25.9870572 L29.8068244,25.9870572 Z" id="Fill-6" fill="#FFFAD4"></path>
                                        <path d="M18.3384427,29.4842102 L18.3384427,29.4842102 C14.9760982,29.4842102 12.2394734,26.7480349 12.2394734,23.3847914 C12.2394734,20.0210983 14.9760982,17.2844736 18.3384427,17.2844736 C21.7021357,17.2844736 24.437412,20.0210983 24.437412,23.3847914 C24.437412,26.7480349 21.7021357,29.4842102 18.3384427,29.4842102 M18.3384427,15.6581417 C14.072131,15.6581417 10.612692,19.1175806 10.612692,23.3843419 C10.612692,27.6520021 14.072131,31.1109915 18.3384427,31.1109915 C22.6061029,31.1109915 26.0650924,27.6520021 26.0650924,23.3843419 C26.0650924,19.1175806 22.6061029,15.6581417 18.3384427,15.6581417" id="Fill-8" fill="#09111D"></path>
                                        <path d="M34.9642024,36.2865747 L34.9642024,36.2865747 C32.4914407,35.0535652 31.487682,32.0499307 32.721141,29.5776186 C33.9546,27.105756 36.9582345,26.1015477 39.4300971,27.3350067 C41.9028588,28.5675667 42.9066175,31.5716507 41.672709,34.0439629 C40.4396995,36.5158255 37.436065,37.5200337 34.9642024,36.2865747 L34.9642024,36.2865747 Z M43.0891191,36.6326984 C43.3988324,36.7873303 43.7804675,36.6601186 43.9359984,36.3495063 L45.0175226,34.1819628 C45.1726039,33.870901 45.0453923,33.4897154 44.7338809,33.334634 L43.9688127,32.9529989 C43.6582004,32.7979175 43.4199594,32.4837091 43.4401874,32.2549079 C43.4595164,32.0265562 43.7197834,31.3374553 44.0492752,31.2273251 L44.9024477,30.9423349 C45.2314899,30.8322046 45.4112944,30.4725956 45.3007147,30.1431038 L44.5324999,27.8461011 C44.4223696,27.5161598 44.0627606,27.3372543 43.7328193,27.4464855 L42.7524351,27.7741793 C42.4229433,27.8852086 42.0453539,27.8487982 41.9140966,27.6941663 C41.7837383,27.5395344 41.5261683,26.9084205 41.6808002,26.5978082 L42.1595297,25.6367531 C42.3155101,25.3256912 42.1878489,24.9445057 41.8772366,24.7889748 L39.7087941,23.7079001 C39.3981818,23.5528187 39.0169962,23.6804799 38.8619148,23.9910922 L38.3391332,25.038903 C38.1840518,25.3495153 37.9053548,25.5895544 37.7201562,25.5715739 C37.533609,25.5526945 36.9559869,25.2766945 36.8458567,24.9472027 L36.4705147,23.823874 C36.359935,23.4939327 36.0003259,23.3145777 35.6703846,23.424708 L33.3724829,24.1929228 C33.0438901,24.3026035 32.8636361,24.6626621 32.9742159,24.9921539 L33.3500073,26.1159321 C33.4596881,26.4454239 33.4304698,26.808629 33.2839292,26.9223554 C33.137838,27.0365312 32.522457,27.2428569 32.2113952,27.087326 L31.1631349,26.5654434 C30.8534216,26.409463 30.471337,26.5375737 30.3162556,26.848186 L29.2347314,29.0157295 C29.0800995,29.3267913 29.2068617,29.7084264 29.5188225,29.8635078 L30.4789787,30.3422373 C30.79049,30.4977682 31.0197408,30.7895011 30.989174,30.9922307 C30.9604053,31.1949603 30.6605812,31.8175334 30.3306399,31.9276637 L29.3516043,32.2553574 C29.020764,32.3654877 28.8418585,32.7255462 28.9524383,33.0554875 L29.7202036,35.3515912 C29.8307834,35.681982 30.1899429,35.861337 30.5189852,35.7516563 L31.3708091,35.4666661 C31.7003009,35.3560863 32.0801379,35.4158713 32.2154408,35.5997215 C32.3507437,35.7835716 32.6294407,36.4852587 32.4739098,36.7963205 L32.0922747,37.5609392 C31.9367438,37.8720011 32.0639555,38.2536362 32.3759163,38.4087176 L34.5430103,39.4893427 C34.8540721,39.6453231 35.2352577,39.5172124 35.3903391,39.2061506 L35.7292706,38.5287371 C35.883453,38.2181248 36.2120457,37.9911216 36.4570294,38.0243854 C36.7024626,38.0580987 37.4383126,38.3444374 37.5479933,38.6743787 L37.7821887,39.3742678 C37.8927685,39.7042091 38.251928,39.8831146 38.5823188,39.7734339 L40.8797711,39.0056686 C41.2097124,38.8950888 41.3886178,38.5354797 41.2780381,38.205988 L41.0433932,37.5051998 C40.9337124,37.1761576 41.0002401,36.7805876 41.1921814,36.6273043 C41.3836732,36.4740209 42.1001942,36.139135 42.409458,36.2946659 L43.0891191,36.6326984 Z" id="Fill-10" fill="#FFF100"></path>
                                        <path d="M35.4343463,35.3449834 L35.4343463,35.3449834 C33.4857148,34.37314 32.6905293,31.9965738 33.6628222,30.0479423 C34.6346657,28.0993108 37.0121309,27.3045748 38.9598634,28.2764183 C40.9084948,29.2482617 41.7023318,31.6252774 40.7304884,33.5739089 C39.7586449,35.5216413 37.3829777,36.3168268 35.4343463,35.3449834 M39.4300522,27.3351416 C36.9581896,26.1016826 33.9545551,27.1058908 32.7210961,29.5777535 C31.4876371,32.0500656 32.4913958,35.0537001 34.9641574,36.2867096 C37.4360201,37.5201686 40.4396545,36.5155108 41.672664,34.0436482 C42.9065725,31.5713361 41.9028138,28.5677016 39.4300522,27.3351416" id="Fill-12" fill="#09111D"></path>
                                    </g>
                                </g>
                            </g>
                        </g>
                    </g>
                </g>
            </g>
        </g>
    </g>
</svg>