<?xml version="1.0" encoding="UTF-8"?>
<svg width="52px" height="52px" viewBox="0 0 52 52" version="1.1" xmlns="http://www.w3.org/2000/svg" xmlns:xlink="http://www.w3.org/1999/xlink">
    <title>06</title>
    <defs>
        <circle id="path-1" cx="25.0706773" cy="25.0820909" r="24.5"></circle>
        <polygon id="path-3" points="0.000133768618 0.202291335 50.1838766 0.202291335 50.1838766 50.4055587 0.000133768618 50.4055587"></polygon>
    </defs>
    <g id="Desktop" stroke="none" stroke-width="1" fill="none" fill-rule="evenodd">
        <g id="06---Meus-Grupos" transform="translate(-1016.000000, -451.000000)">
            <g id="Grupo-1" transform="translate(178.000000, 334.000000)">
                <g id="timeline" transform="translate(46.500000, 117.500000)">
                    <g id="7" transform="translate(775.000000, 0.000000)">
                        <g id="06" transform="translate(17.000000, 0.000000)">
                            <g id="Group-12" transform="translate(0.429323, 0.417909)">
                                <mask id="mask-2" fill="white">
                                    <use xlink:href="#path-1"></use>
                                </mask>
                                <use id="Mask" fill="#FFD339" xlink:href="#path-1"></use>
                                <g mask="url(#mask-2)">
                                    <g transform="translate(0.000000, -1.000000)">
                                        <g id="Group-3" stroke-width="1" fill="none" transform="translate(0.000000, 0.243999)">
                                            <mask id="mask-4" fill="white">
                                                <use xlink:href="#path-3"></use>
                                            </mask>
                                            <g id="Clip-2"></g>
                                            <path d="M50.1838766,25.3038135 C50.1838766,39.1671264 38.9499881,50.4057817 25.0924511,50.4057817 C11.2340223,50.4057817 0.000133768618,39.1671264 0.000133768618,25.3038135 C0.000133768618,11.4405006 11.2340223,0.202291335 25.0924511,0.202291335 C38.9499881,0.202291335 50.1838766,11.4405006 50.1838766,25.3038135" id="Fill-1" fill="#0094D9" mask="url(#mask-4)"></path>
                                        </g>
                                        <path d="M49.9213334,21.9313694 L33.3866405,11.4336312 L33.3866405,28.037133 L20.9055825,28.037133 L20.9055825,38.1039706 L18.0959957,37.973273 L34.548198,48.7997625 C43.7180367,45.0635062 50.1839658,36.0632145 50.1839658,25.5476337 C50.1839658,24.3191654 50.0921114,23.1125545 49.9213334,21.9313694" id="Fill-4" fill="#0077AD"></path>
                                        <path d="M40.4882826,22.6618931 C40.4882826,15.3142793 33.6183723,9.35794809 25.1432386,9.35794809 C17.6076064,9.35794809 11.3445598,14.0693066 10.0487878,20.2794499 L10.0198046,20.2553622 C8.69281986,26.4516774 10.2409687,30.8217948 14.3333966,35.1361537 C20.5661224,41.7093954 31.3657088,41.952948 31.364817,41.6638966 C31.3639252,41.552826 29.5509145,40.8453639 27.161807,39.2024995 C25.8348223,38.2894006 24.6179738,37.1278424 23.6744592,35.9038348 C24.1582557,35.9439809 24.6482947,35.9662842 25.1432386,35.9662842 C33.6183723,35.9662842 40.4882826,30.009953 40.4882826,22.6618931" id="Fill-6" fill="#FEFEFE"></path>
                                        <path d="M27.1619408,39.2023211 C26.4007974,38.6786385 25.6802304,38.0706494 25.0220888,37.4180535 L25.0220888,40.929046 C28.5785505,41.8149349 31.3653967,41.8104742 31.3649508,41.6641642 C31.364059,41.5530936 29.5506024,40.8456315 27.1619408,39.2023211" id="Fill-8" fill="#55C5CF"></path>
                                        <path d="M25.143194,9.35808191 C25.1026175,9.35808191 25.0629328,9.35942011 25.0223563,9.36031225 L25.0223563,35.9637416 C25.0629328,35.9641877 25.1026175,35.965972 25.143194,35.965972 C33.6183277,35.965972 40.488238,30.0100868 40.488238,22.6620269 C40.488238,15.3144131 33.6183277,9.35808191 25.143194,9.35808191" id="Fill-10" fill="#55C5CF"></path>
                                    </g>
                                </g>
                            </g>
                        </g>
                    </g>
                </g>
            </g>
        </g>
    </g>
</svg>