<?xml version="1.0" encoding="UTF-8"?>
<svg width="50px" height="50px" viewBox="0 0 50 50" version="1.1" xmlns="http://www.w3.org/2000/svg" xmlns:xlink="http://www.w3.org/1999/xlink">
    <title>06</title>
    <g id="Desktop" stroke="none" stroke-width="1" fill="none" fill-rule="evenodd">
        <g id="06---Meus-Grupos" transform="translate(-1146.000000, -452.000000)">
            <g id="Grupo-1" transform="translate(178.000000, 334.000000)">
                <g id="timeline" transform="translate(46.500000, 117.500000)">
                    <g id="premio" transform="translate(887.000000, 1.000000)">
                        <g id="06" transform="translate(35.000000, 0.000000)">
                            <circle id="Oval" fill="#FFD339" cx="24.5" cy="24.5" r="24.5"></circle>
                            <g id="Group-4">
                                <circle id="Oval" stroke="#E1F765" stroke-width="2" fill="#EC4359" cx="24.5" cy="24.5" r="23.5"></circle>
                                <polygon id="Fill-1" fill="#FFD339" points="18.2591647 38.1299068 30.2784956 38.1299068 30.2784956 34.5531542 18.2591647 34.5531542"></polygon>
                                <polygon id="Fill-2" fill="#E1F765" points="17.2575537 38.1299068 31.2801065 38.1299068 31.2801065 37.1282959 17.2575537 37.1282959"></polygon>
                                <g id="Group-8" transform="translate(12.250000, 14.091245)">
                                    <path d="M18.0336038,11.7483952 C18.2719872,11.0793191 18.4041998,10.3601625 18.4041998,9.60945508 L18.4041998,4.31844544 C18.4047006,3.04189234 19.4433712,2.00322182 20.7204251,2.00322182 C21.9839572,2.00322182 23.0146149,3.02135931 23.0356487,4.28038423 C23.0341463,4.30091725 23.0336455,4.32145027 23.0346471,4.3419833 C23.0441624,4.56584334 23.1924008,9.5468544 18.0336038,11.7483952 M20.7204251,1.00161091 C19.8194761,1.00161091 19.0026624,1.36369326 18.4041998,1.94863403 L18.4041998,0 L14.0221521,0 L12.0189303,0 L10.0157085,0 L10.0157085,9.60945508 C10.0157085,12.4820752 10.6111662,14.9104808 11.4294823,15.7127712 C11.4294823,19.1257603 10.1333977,20.4614085 10.1333977,20.4614085 L13.903962,20.4614085 L18.0285957,20.4614085 C18.0285957,20.4614085 13.8969507,19.1257603 13.8969507,15.7127712 C15.3537938,15.2645503 16.5877785,14.3090135 17.394576,13.0529934 C23.9090534,10.9651354 24.0427685,5.01706905 24.0367588,4.35550505 C24.0372596,4.34348571 24.0377604,4.33096558 24.0377604,4.31944705 C24.0377604,2.49050553 22.5493666,1.00161091 20.7204251,1.00161091" id="Fill-3" fill="#E1F765"></path>
                                    <path d="M1.00306325,4.34293483 C1.00406486,4.321901 1.00356405,4.30086717 1.00206164,4.27983334 C1.02309546,3.02030762 2.05375309,2.00317174 3.31728526,2.00317174 C4.59433917,2.00317174 5.63300968,3.04184226 5.63351049,4.31839536 L5.63351049,9.609405 C5.63351049,10.3601124 5.76572313,11.079269 6.00410652,11.7483451 C0.845309528,9.54730512 0.993047138,4.56579326 1.00306325,4.34293483 M10.0155582,9.609405 L10.0155582,-5.00805459e-05 L5.63351049,-5.00805459e-05 L5.63351049,1.94858395 C5.03504797,1.36364317 4.21823427,1.00156083 3.31728526,1.00156083 C1.48834373,1.00156083 -5.00805457e-05,2.49045545 -5.00805457e-05,4.31939697 C-5.00805457e-05,4.3314163 0.00045072491,4.34343563 0.000951530365,4.35495416 C-0.0050581351,5.01651817 0.128156116,10.9650854 6.64313429,13.0534441 C7.44993187,14.3089634 8.68341571,15.265001 10.1407596,15.7127211 C10.1407596,19.1262111 6.00911458,20.4618592 6.00911458,20.4618592 L10.1332475,20.4618592 C10.1332475,20.4618592 11.4298328,19.1262111 11.4298328,15.7127211 C10.6110159,14.9109315 10.0155582,12.4820251 10.0155582,9.609405" id="Fill-6" fill="#FFD339"></path>
                                </g>
                            </g>
                        </g>
                    </g>
                </g>
            </g>
        </g>
    </g>
</svg>