<?xml version="1.0" encoding="UTF-8"?>
<svg width="45px" height="44px" viewBox="0 0 45 44" version="1.1" xmlns="http://www.w3.org/2000/svg" xmlns:xlink="http://www.w3.org/1999/xlink">
    <title>analytics</title>
    <g id="Page-1" stroke="none" stroke-width="1" fill="none" fill-rule="evenodd">
        <g id="03.02---Inscrição" transform="translate(-425.000000, -1332.000000)" fill="#000000" fill-rule="nonzero">
            <g id="Apresentação" transform="translate(362.000000, 1207.000000)">
                <g id="Group-7" transform="translate(0.000000, 82.000000)">
                    <g id="analytics" transform="translate(63.000000, 43.000000)">
                        <path d="M45,25.7191388 L45,0 L0,0 L0,25.7190936 L21.5294929,25.7190936 L21.5294929,35.3929373 L15.1989566,42.4657411 L16.6621153,43.7224547 L21.5294007,38.271703 L21.5294007,44 L23.4703688,44 L23.4703688,38.2862299 L28.322812,43.7223645 L29.7859707,42.4656959 L23.470461,35.3928922 L23.470461,25.704296 L45,25.7191388 Z M1.94096805,23.8194512 L1.94096805,1.8997327 L43.0591241,1.8997327 L43.0591241,23.8194512 L1.94096805,23.8194512 Z" id="Shape"></path>
                        <polygon id="Path" points="35.4548693 5 35.4548693 6.8776371 38.7051892 6.8776371 31.7297189 13.6661683 25.2142336 7.32537515 17.7786408 14.5760919 14.5133837 11.3984939 5 20.6712333 6.36533868 22 14.5133837 14.0561164 17.7786408 17.2335807 25.2142336 9.98304231 31.7297189 16.3236571 40.0705737 8.20649297 40.0705737 11.3695989 42 11.3695989 42 5"></polygon>
                    </g>
                </g>
            </g>
        </g>
    </g>
</svg>