<?xml version="1.0" encoding="UTF-8"?>
<svg width="320px" height="306px" viewBox="0 0 320 306" version="1.1" xmlns="http://www.w3.org/2000/svg" xmlns:xlink="http://www.w3.org/1999/xlink">
    <title>Fill 1</title>
    <g id="Page-1" stroke="none" stroke-width="1" fill="none" fill-rule="evenodd">
        <g id="06---Meus-Grupos" transform="translate(0.000000, -1120.000000)" fill="#FFD339">
            <g id="Rodapé" transform="translate(-48.000000, 1084.000000)">
                <path d="M56.6598782,133.609226 L56.6598782,133.649819 C56.6754955,150.353749 61.6721644,166.84795 73.1349583,182.029651 C123.443743,248.672854 90.7042993,353.445247 137.218933,369.093765 C141.839815,370.649822 146.074544,371.39064 150.008643,371.414319 L150.381838,371.414319 C196.65545,371.170762 200.252637,271.211033 280.318555,231.159486 C316.04422,213.288514 349.947966,217.523694 363.160112,166.8639 C383.680665,88.1883202 277.734697,-6.58568105 198.899805,-6.58568105 C194.784291,-6.58568105 190.741343,-6.32521069 186.794286,-5.79412177 C123.656916,2.7235973 56.6340293,69.2324542 56.6598782,133.609226 Z" id="Fill-1" transform="translate(211.202999, 182.414319) scale(-1, 1) rotate(99.000000) translate(-211.202999, -182.414319) "></path>
            </g>
        </g>
    </g>
</svg>