<?xml version="1.0" encoding="UTF-8"?>
<svg width="236px" height="205px" viewBox="0 0 236 205" version="1.1" xmlns="http://www.w3.org/2000/svg" xmlns:xlink="http://www.w3.org/1999/xlink">
    <title>Fill 1</title>
    <g id="Desktop" stroke="none" stroke-width="1" fill="none" fill-rule="evenodd">
        <g id="06---Meus-Grupos" transform="translate(0.000000, -1007.000000)" fill="#FFD339">
            <g id="Logo" transform="translate(-51.000000, 981.000000)">
                <path d="M139.112518,32.9731517 C79.3760842,39.1473714 9.42202854,88.1512553 9.44654243,134.815899 L9.44654243,134.815899 L9.44654243,134.845324 C9.46126107,146.953464 14.1887811,158.909578 25.034124,169.914303 L25.034124,169.914303 C72.6329929,218.221809 48.1984819,293.374176 92.2075741,304.717281 L92.2075741,304.717281 C96.5795493,305.845216 100.586172,306.382212 104.308358,306.399376 L104.308358,306.399376 L104.661451,306.399376 C148.442504,306.22283 151.845926,233.765248 227.59904,204.733175 L227.59904,204.733175 C261.400318,191.779083 293.477817,194.849029 305.978282,158.127379 L305.978282,158.127379 C325.393481,101.097991 225.154363,32.399376 150.565965,32.399376 L150.565965,32.399376 C146.672136,32.399376 142.846964,32.5881825 139.112518,32.9731517" id="Fill-1" transform="translate(158.935768, 169.399376) scale(-1, 1) rotate(99.000000) translate(-158.935768, -169.399376) "></path>
            </g>
        </g>
    </g>
</svg>