<?xml version="1.0" encoding="UTF-8"?>
<svg width="465px" height="401px" viewBox="0 0 465 401" version="1.1" xmlns="http://www.w3.org/2000/svg" xmlns:xlink="http://www.w3.org/1999/xlink">
    <title>Group 7</title>
    <g id="Desktop" stroke="none" stroke-width="1" fill="none" fill-rule="evenodd">
        <g id="06---Meus-Grupos" transform="translate(-108.000000, 286.000000)">
            <g id="Menu" transform="translate(0.000000, -286.000000)">
                <g id="Group-7" transform="translate(110.069443, 0.939516)">
                    <path d="M228.914728,335.737347 C332.115416,255.773015 433.587312,305.116582 458.145452,232.800296 C481.136026,165.094732 377.013749,143.972079 307.28583,56.3862863 C237.55791,-31.1995065 129.354018,-11.3871147 60.9067462,78.8510535 C-7.54052553,169.089222 -5.79833052,372.360806 83.7976965,395.080013 C138.630815,408.98578 186.556706,368.555107 228.914728,335.737347 Z" id="Path" fill="#FFD339"></path>
                    <path d="M207.125181,338.47529 C305.998796,261.86376 403.216105,309.138415 426.744554,239.854258 C448.771162,174.987501 349.014599,154.750494 282.210282,70.837062 C215.405965,-13.0763705 111.738923,5.90531301 46.1615583,92.3599102 C-19.4158068,178.814507 -17.7466598,373.563174 68.0927204,395.329793 C120.626756,408.65251 166.543176,369.917043 207.125181,338.47529 Z" id="Path-Copy-3" stroke="#882D8E" stroke-width="3"></path>
                </g>
            </g>
        </g>
    </g>
</svg>