<?xml version="1.0" encoding="UTF-8"?>
<svg width="15px" height="19px" viewBox="0 0 15 19" version="1.1" xmlns="http://www.w3.org/2000/svg" xmlns:xlink="http://www.w3.org/1999/xlink">
    <title>Slice 1</title>
    <g id="Page-1" stroke="none" stroke-width="1" fill="none" fill-rule="evenodd">
        <path d="M14.0294616,8.39882689 L13.109708,8.39882689 L13.109708,5.6878584 C13.109708,2.55157307 10.5931787,0 7.49996765,0 C4.40675663,0 1.89022733,2.55157307 1.89022733,5.6878584 L1.89022733,8.39882689 L0.970473689,8.39882689 C0.434484454,8.39882689 0,8.83936173 0,9.38281485 L0,18.0159464 C0,18.5593996 0.434484454,19 0.970473689,19 L14.0294616,19 C14.5654509,19 15,18.5594652 15,18.0159464 L15,9.38288044 C15,8.83942732 14.5654509,8.39882689 14.0294616,8.39882689 Z M4,5.29348075 C4,3.47745604 5.57010061,2 7.5,2 C9.42989939,2 11,3.47745604 11,5.29348075 L11,8 L4,8 L4,5.29348075 Z M8.43119162,14.6031034 L8.43119162,16.0940427 C8.43119162,16.5944029 8.01429711,17 7.5,17 C6.98570289,17 6.56880838,16.5944029 6.56880838,16.0940427 L6.56880838,14.6031034 C6.22243108,14.3357717 6,13.9230258 6,13.459407 C6,12.653422 6.67156528,12 7.5,12 C8.32843472,12 9,12.653422 9,13.459407 C9,13.9230258 8.77756892,14.3358271 8.43119162,14.6031034 L8.43119162,14.6031034 Z" id="cadeado" fill="#D8D8D8" fill-rule="nonzero"></path>
    </g>
</svg>