<?xml version="1.0" encoding="UTF-8"?>
<svg width="19px" height="17px" viewBox="0 0 19 17" version="1.1" xmlns="http://www.w3.org/2000/svg" xmlns:xlink="http://www.w3.org/1999/xlink">
    <title>Icons/Regular/edit</title>
    <defs>
        <path d="M12.9728458,11.2354697 L13.945068,10.2512388 C14.0969778,10.0974528 14.3613007,10.205103 14.3613007,10.4265549 L14.3613007,14.8986538 C14.3613007,15.7137199 13.7080889,16.375 12.9029674,16.375 L2.20852291,16.375 C1.40340138,16.375 0.750189576,15.7137199 0.750189576,14.8986538 L0.750189576,4.07211468 C0.750189576,3.25704853 1.40340138,2.59576844 2.20852291,2.59576844 L10.5179847,2.59576844 C10.7336965,2.59576844 10.8430715,2.86028048 10.6911618,3.01714226 L9.71893958,4.00137309 C9.67336666,4.04750891 9.61260277,4.07211468 9.54576249,4.07211468 L2.20852291,4.07211468 L2.20852291,14.8986538 L12.9029674,14.8986538 L12.9029674,11.4077101 C12.9029674,11.3431199 12.9272729,11.2816055 12.9728458,11.2354697 Z M17.7306583,5.02866401 L9.75235971,13.1055082 L7.00583194,13.4130804 C6.20982499,13.5022763 5.53230763,12.8225419 5.62041527,12.0105514 L5.92423471,9.23009935 L13.9025333,1.15325514 C14.5982799,0.448914954 15.7224118,0.448914954 16.4151201,1.15325514 L17.7276201,2.48196675 C18.4233667,3.18630694 18.4233667,4.32739955 17.7306583,5.02866401 L17.7306583,5.02866401 Z M14.7289222,5.9790619 L12.9637312,4.19206781 L7.31876596,9.90983376 L7.09697777,11.9182798 L9.08091874,11.6937521 L14.7289222,5.9790619 Z M16.6976722,3.52771201 L15.3851722,2.19900039 C15.2606062,2.07289582 15.0570472,2.07289582 14.9355194,2.19900039 L13.9967174,3.14939828 L15.7619083,4.93639237 L16.7007104,3.98599448 C16.8222382,3.85681419 16.8222382,3.65381658 16.6976722,3.52771201 L16.6976722,3.52771201 Z" id="path-1"></path>
    </defs>
    <g id="Symbols" stroke="none" stroke-width="1" fill="none" fill-rule="evenodd">
        <g id="Projeto-pendente" transform="translate(-605.000000, -32.000000)">
            <g id="Projeto-1">
                <g id="Editar" transform="translate(590.000000, 25.000000)">
                    <g id="Icons/Regular/edit" transform="translate(15.000000, 7.000000)">
                        <mask id="mask-2" fill="white">
                            <use xlink:href="#path-1"></use>
                        </mask>
                        <use id="edit" fill="#7B3B83" fill-rule="nonzero" xlink:href="#path-1"></use>
                    </g>
                </g>
            </g>
        </g>
    </g>
</svg>