<?xml version="1.0" encoding="UTF-8"?>
<svg width="20px" height="12px" viewBox="0 0 20 12" version="1.1" xmlns="http://www.w3.org/2000/svg" xmlns:xlink="http://www.w3.org/1999/xlink">
    <title>Icons/Solid/eye</title>
    <defs>
        <path d="M18.9551175,5.2146709 C17.1604591,2.13116895 13.8133901,0.0703125 9.99999957,0.0703125 C6.18501759,0.0703125 2.83868066,2.13261914 1.0448816,5.2146709 C0.762817244,5.69928875 0.762817244,6.30074347 1.0448816,6.78536133 C2.83954003,9.86883105 6.18660903,11.9296875 9.99999957,11.9296875 C13.8149816,11.9296875 17.1613185,9.86738086 18.9551175,6.7853291 C19.237183,6.3007231 19.237183,5.6992769 18.9551175,5.2146709 Z M9.99999957,10.3828125 C7.60769459,10.3828125 5.67130318,8.42256738 5.67130318,6 C5.67130318,3.57778711 7.60731264,1.6171875 9.99999957,1.6171875 C12.3923046,1.6171875 14.328696,3.57740039 14.328696,6 C14.328696,8.42221289 12.3926865,10.3828125 9.99999957,10.3828125 Z M13.3101792,6 C13.3101792,7.8510293 11.8281736,9.3515625 9.99999957,9.3515625 C8.17182558,9.3515625 6.68981998,7.8510293 6.68981998,6 C6.68981998,5.42933203 6.83085273,4.89208301 7.07927534,4.42176855 L7.07924351,4.4227998 C7.07924351,5.18499023 7.68949422,5.80283789 8.44227362,5.80283789 C9.19505302,5.80283789 9.80530372,5.18495801 9.80530372,4.4227998 C9.80530372,3.66060937 9.19505302,3.04272949 8.44227362,3.04272949 L8.4412551,3.04276172 C8.90576242,2.7912334 9.43637784,2.6484375 9.99999957,2.6484375 C11.8281736,2.6484375 13.3101792,4.1489707 13.3101792,6 Z" id="path-1"></path>
    </defs>
    <g id="Symbols" stroke="none" stroke-width="1" fill="none" fill-rule="evenodd">
        <g id="Projeto-inscrito" transform="translate(-745.000000, -36.000000)">
            <g id="Projeto-inscrito-1">
                <g id="Visualizar" transform="translate(730.000000, 25.000000)">
                    <g id="Icons/Solid/eye" transform="translate(15.000000, 11.000000)">
                        <mask id="mask-2" fill="white">
                            <use xlink:href="#path-1"></use>
                        </mask>
                        <use id="eye" fill="#7B3B83" fill-rule="nonzero" xlink:href="#path-1"></use>
                    </g>
                </g>
            </g>
        </g>
    </g>
</svg>