<svg xmlns="http://www.w3.org/2000/svg" width="102" height="132" viewBox="0 0 102 132"><g transform="translate(-203 -49)"><g transform="translate(233 109)"><rect width="72" height="72" fill="#ffd339"/><g transform="translate(25 20)"><path d="M4.909,0h13.5a4.9,4.9,0,0,1,4.909,4.889V24.444a4.9,4.9,0,0,1-4.909,4.889H4.909A4.9,4.9,0,0,1,0,24.444V4.889A4.9,4.9,0,0,1,4.909,0Z" transform="translate(0.682 0.667)" fill="none" stroke="#ec4359" stroke-miterlimit="10" stroke-width="2"/><path d="M0,.611H8.591" transform="translate(5.591 9.056)" fill="none" stroke="#ec4359" stroke-linecap="round" stroke-miterlimit="10" stroke-width="2"/><path d="M0,.611H13.5" transform="translate(5.591 13.944)" fill="none" stroke="#ec4359" stroke-linecap="round" stroke-miterlimit="10" stroke-width="2"/><path transform="translate(5.591 18.833)" fill="none" stroke="#ec4359" stroke-linecap="round" stroke-miterlimit="10" stroke-width="2"/></g><path d="M0,7.143l6.667,7.143L20,0" transform="translate(37 37)" fill="none" stroke="#7b3b83" stroke-miterlimit="10" stroke-width="2"/></g><rect width="48" height="48" transform="translate(203 49)" fill="#55c7df"/></g></svg>