<?xml version="1.0" encoding="UTF-8"?>
<svg width="39px" height="35px" viewBox="0 0 39 35" version="1.1" xmlns="http://www.w3.org/2000/svg" xmlns:xlink="http://www.w3.org/1999/xlink">
    <title>Shape 2</title>
    <g id="Desktop" stroke="none" stroke-width="1" fill="none" fill-rule="evenodd">
        <g id="06---Meus-Grupos" transform="translate(-267.000000, -358.000000)" fill="#882D8E">
            <g id="Grupo-1" transform="translate(178.000000, 334.000000)">
                <g id="Shape-2" transform="translate(89.000000, 24.000000)">
                    <path d="M0.390995456,24.3896347 C0.943489035,22.1242719 3.4764596,18.4049253 3.4764596,18.4049253 L4.69194547,17.2316299 C6.14890707,16.1535422 7.71394993,15.2503029 9.35839123,14.5384655 C6.52411548,12.7194404 5.17863818,9.1179584 6.06785187,5.73057393 C6.95706556,2.34318946 9.86306345,0 13.1748469,0 C16.4866303,0 19.3926282,2.34318946 20.2818419,5.73057393 C21.1710556,9.1179584 19.8255783,12.7194404 16.9913025,14.5384655 C18.724589,15.0903127 20.3310092,16.0184736 21.7087477,17.2641211 C22.7117891,16.3167191 23.8818555,15.5899931 25.1512077,15.1260158 C23.0700213,13.5780803 22.1745699,10.7758621 22.9388727,8.2027532 C23.7031755,5.62964428 25.9506919,3.87998771 28.4916689,3.87998771 C31.0326458,3.87998771 33.2801622,5.62964428 34.044465,8.2027532 C34.8087678,10.7758621 33.9133164,13.5780803 31.83213,15.1260158 C35.9464575,16.6357627 38.7116667,20.7431135 38.7255499,25.365275 L38.7255499,26.0701548 C38.7255499,26.0818846 38.7207232,26.0930395 38.7127525,26.1011644 C38.7047818,26.1092893 38.6940972,26.1137183 38.6830504,26.1134764 L26.2646947,26.1134764 C26.3359764,26.7122294 26.3728776,27.3150335 26.3751935,27.9185464 L26.3751935,28.6432819 C26.3731663,30.1537631 25.8060023,31.6014969 24.7985192,32.6678754 C23.7910361,33.734254 22.4257973,34.3318874 21.0032559,34.3292609 L5.36343766,34.3292609 C3.94174773,34.3316484 2.57751369,33.7336505 1.57142893,32.6670644 C0.565344175,31.6004783 1.05870868e-12,30.1528601 1.05870868e-12,28.6432819 L1.05870868e-12,27.921254 C1.05870868e-12,27.3120429 0.110498716,26.116184 0.110498716,26.116184 L0.390995456,24.3896347 Z M7.28441534,8.60700573 C7.28956051,5.41292745 9.70030003,2.81018648 12.7079192,2.75155119 C15.7155384,2.69291591 18.214634,5.19993678 18.3302001,8.39166173 C18.4457662,11.5833867 16.1353283,14.2867473 13.1323474,14.473483 L12.4863549,14.473483 C9.56473674,14.2850508 7.28576977,11.7149502 7.28441534,8.60700573 Z M24.2842067,10.4120757 C24.2845502,8.17849952 25.9834052,6.36438029 28.0869088,6.35130871 C30.1904123,6.33837766 31.9090417,8.13137414 31.9338625,10.3647948 C31.9586833,12.5982155 30.2803793,14.4337749 28.1771725,14.473483 L28.0326742,14.473483 C25.9481948,14.4340472 24.2792437,12.6257588 24.2842067,10.4120757 Z M24.8367113,25.2957798 C24.2931412,22.8815631 23.2248123,20.636003 21.7172476,18.7388632 C23.248508,17.1996349 25.269753,16.3295559 27.3781818,16.3020188 L27.5056803,16.3020188 C32.0021281,16.3372177 35.708085,20.2731727 36.1755796,25.3002924 L24.8367113,25.3002924 L24.8367113,25.2957798 Z M23.4342276,28.7254126 C23.4342276,30.8256728 21.833746,32.5299458 19.8557692,32.5359153 L4.9129429,32.5359153 C2.93203424,32.5339237 1.32692163,30.8287782 1.32598459,28.7254126 L1.32598459,28.0286556 C1.32718248,21.6790468 6.07585317,16.4774045 12.0528599,16.2785529 C12.1633586,16.2884808 12.2738573,16.2884808 12.3843561,16.2884808 C12.4948548,16.2884808 12.6053535,16.2884808 12.7073523,16.2785529 C18.6837,16.4773823 23.432112,21.6779422 23.4342276,28.0268506 L23.4342276,28.7236076 L23.4342276,28.7254126 Z" id="Shape" transform="translate(19.362775, 17.164635) scale(-1, 1) translate(-19.362775, -17.164635) "></path>
                </g>
            </g>
        </g>
    </g>
</svg>