<?xml version="1.0" encoding="UTF-8"?>
<svg width="20px" height="16px" viewBox="0 0 20 16" version="1.1" xmlns="http://www.w3.org/2000/svg" xmlns:xlink="http://www.w3.org/1999/xlink">
    <title>home</title>
    <g id="Page-1" stroke="none" stroke-width="1" fill="none" fill-rule="evenodd">
        <g id="02---Meus-Projetos" transform="translate(-904.000000, -45.000000)" fill="#FFFFFF" fill-rule="nonzero">
            <g id="Group" transform="translate(874.000000, 28.000000)">
                <path d="M46.9423771,26.987207 L46.9423771,32.0250977 C46.9423771,32.4926758 46.5708495,32.8688477 46.1090442,32.8688477 L42.0812685,32.8688477 C41.8521019,32.8688477 41.664602,32.6790039 41.664602,32.4469727 L41.664602,28.5094727 C41.664602,28.2774414 41.4771021,28.0875977 41.2479356,28.0875977 L38.7479368,28.0875977 C38.5187703,28.0875977 38.3312704,28.2774414 38.3312704,28.5094727 L38.3312704,32.4469727 C38.3312704,32.6790039 38.1437705,32.8688477 37.9146039,32.8688477 L33.8868282,32.8688477 C33.4250229,32.8688477 33.0534953,32.4926758 33.0534953,32.0250977 L33.0534953,26.987207 C33.0534953,26.8606445 33.1090508,26.7411133 33.206273,26.6602539 L39.7340474,21.2180664 C39.8868251,21.0915039 40.1090473,21.0915039 40.2652972,21.2180664 L46.7930716,26.6602539 C46.8868216,26.7411133 46.9423771,26.8606445 46.9423771,26.987207 Z M49.8451534,24.8461914 L46.9423771,22.4239258 L46.9423771,17.5547852 C46.9423771,17.3227539 46.7548772,17.1329102 46.5257107,17.1329102 L44.5812672,17.1329102 C44.3521006,17.1329102 44.1646007,17.3227539 44.1646007,17.5547852 L44.1646007,20.1071289 L41.0569634,17.5161133 C40.4423804,17.002832 39.553492,17.002832 38.938909,17.5161133 L30.150719,24.8461914 C29.9736357,24.9938477 29.9493302,25.2610352 30.0951635,25.440332 L30.9805797,26.5301758 C31.1264129,26.7094727 31.3903017,26.734082 31.5673849,26.5864258 L39.7340474,19.7766602 C39.8868251,19.6500977 40.1090473,19.6500977 40.2652972,19.7766602 L48.4319597,26.5864258 C48.6090429,26.734082 48.8729317,26.7094727 49.0187649,26.5301758 L49.9041812,25.440332 C50.0500144,25.2575195 50.0222367,24.9938477 49.8451534,24.8461914 L49.8451534,24.8461914 Z" id="home"></path>
            </g>
        </g>
    </g>
</svg>