<?xml version="1.0" encoding="UTF-8"?>
<svg width="54px" height="55px" viewBox="0 0 54 55" version="1.1" xmlns="http://www.w3.org/2000/svg" xmlns:xlink="http://www.w3.org/1999/xlink">
    <title>calendario</title>
    <g id="Desktop" stroke="none" stroke-width="1" fill="none" fill-rule="evenodd">
        <g id="12.01---Inscrição-passo-1" transform="translate(-924.000000, -452.000000)">
            <g id="header" transform="translate(-375.825800, 20.514319)">
                <g id="Group-13" transform="translate(1202.804586, 260.485681)">
                    <g id="calendario" transform="translate(97.876914, 171.937378)">
                        <path d="M50.591,21.477 L3.03,20.96 L3.03,45.528 C3.0322042,47.8661742 4.92682635,49.7612438 7.265,49.764 L44.565,51.591 C53.613,51.297 49.687,43.41 50.88,43.41 C52.049,43.41 51.575,44.419 51.792,45.568 C52.826,51.037 49.198,54 44.528,54 L7.265,54 C2.595,54 1.205,50.24 1.205,45.568 L0,12.488 C0,7.816 2.6,5.221 7.265,5.221 L9.912,5.221 L9.912,3.1 C9.912,1.93081318 10.8598132,0.983 12.029,0.983 C13.1981868,0.983 14.146,1.93081318 14.146,3.1 L14.146,5.218 L23.674,5.218 L23.674,3.1 C23.786,0.289 26.594,0.292 26.705,3.1 L26.5,5.815 L37.543,6.422 L37.543,4.304 C37.568026,3.15246559 38.5086937,2.23201902 39.6605,2.23201902 C40.8123063,2.23201902 41.752974,3.15246559 41.778,4.304 L41.778,6.422 L44.531,6.422 C49.201,6.422 53,7.813 53,12.485 L53,39.753 C52.642,48.764 50.591,21.477 50.591,21.477 Z M49.97,20.337 L49.97,12.488 C49.9677958,10.1498258 48.0731737,8.25475624 45.735,8.252 L41.778,8.252 L41.778,10.37 C41.666,13.18 38.859,13.178 38.748,10.37 L38.748,8.252 L27.705,8.227 L27.905,10.37 C27.879974,11.5215344 26.9393063,12.441981 25.7875,12.441981 C24.6356937,12.441981 23.695026,11.5215344 23.67,10.37 L23.67,8.252 L14.142,8.252 L14.142,10.37 C14.014,13.598 11.112,8.252 11.112,8.252 L7.261,8.252 C4.92282635,8.25475624 3.0282042,10.1498258 3.026,12.488 L3.026,17.928 L49.97,20.337 Z" id="Shape" fill="#882D8E"></path>
                        <path d="M34.261,43.516 L29.815,45.634 C28.6452609,45.634 27.697,44.6857391 27.697,43.516 C27.697,42.3462609 28.6452609,41.398 29.815,41.398 L32.144,41.398 C33.313,41.4 34.261,43.516 34.261,43.516 Z M42.307,33.35 L39.978,33.35 C38.8082609,33.35 37.86,34.2982609 37.86,35.468 C37.86,36.6377391 38.8082609,37.586 39.978,37.586 L42.307,37.586 C42.307,37.586 45.115,33.461 42.307,33.35 L42.307,33.35 Z M42.307,25.301 L39.978,25.301 C39.978,25.301 37.171,29.427 39.978,29.537 L42.307,29.537 C43.4770152,29.537 44.4255,28.5885152 44.4255,27.4185 C44.4255,26.2484848 43.4770152,25.3 42.307,25.3 L42.307,25.301 Z M32.144,25.301 L29.815,25.301 C28.6452609,25.301 27.697,26.2492609 27.697,27.419 C27.697,28.5887391 28.6452609,29.537 29.815,29.537 C29.815,29.537 35.789,25.445 32.144,25.3 L32.144,25.301 Z M32.144,33.35 L29.815,33.35 C26.169,33.495 32.144,37.586 32.144,37.586 C33.3137389,37.586 34.2619995,36.6377389 34.2619995,35.468 C34.2619995,34.2982611 33.3137389,33.35 32.144,33.35 L32.144,33.35 Z M11.826,41.4 C11.826,41.4 5.852,45.492 9.497,45.636 L11.826,45.636 C12.9957391,45.636 13.944,44.6877391 13.944,43.518 C13.944,42.3482609 12.9957391,41.4 11.826,41.4 L11.826,41.4 Z M11.826,25.2999995 L9.5,25.2999995 C5.853,25.446 11.829,29.536 11.829,29.536 C12.9987391,29.5351716 13.9463284,28.5862391 13.9455005,27.4165 C13.9446716,26.2467609 12.9957391,25.2991716 11.826,25.2999995 Z M9.5,33.35 C8.3302609,33.35 7.382,34.2982609 7.382,35.468 C7.382,36.6377391 8.3302609,37.586 9.5,37.586 L11.829,37.586 C15.472,37.441 9.5,33.35 9.5,33.35 Z M21.984,25.301 L19.655,25.301 C16.845,25.413 19.655,29.537 19.655,29.537 L21.984,29.537 C23.1540151,29.5361714 24.1018281,28.5870151 24.1010002,27.417 C24.1001713,26.2469849 23.1510151,25.2991717 21.981,25.2999995 L21.984,25.301 Z M21.984,41.401 L19.655,41.401 C18.4852609,41.401 17.537,42.3492609 17.537,43.519 C17.537,44.6887391 18.4852609,45.637 19.655,45.637 L21.984,45.637 C23.1540151,45.6361714 24.1018281,44.6870151 24.1010002,43.517 C24.1001713,42.3469849 23.1510151,41.3991717 21.981,41.3999995 L21.984,41.401 Z M21.984,33.353 L19.655,33.353 C18.4852609,33.353 17.537,34.3012609 17.537,35.471 C17.537,36.6407391 18.4852609,37.589 19.655,37.589 L21.984,37.589 C24.79,37.474 21.981,33.35 21.981,33.35 L21.984,33.353 Z" id="Shape" fill="#EC4359"></path>
                    </g>
                </g>
            </g>
        </g>
    </g>
</svg>