<svg xmlns="http://www.w3.org/2000/svg" width="21" height="17" viewBox="0 0 21 17"><path d="M20.3,2.692a2.231,2.231,0,0,0-1.657-.716H15.331V1.934A1.862,1.862,0,0,0,14.792.6a1.8,1.8,0,0,0-1.3-.553L7.506,0A1.816,1.816,0,0,0,6.188.553a2.022,2.022,0,0,0-.539,1.382v.041H2.356A2.231,2.231,0,0,0,.7,2.692a2.464,2.464,0,0,0-.7,1.7V14.585a2.344,2.344,0,0,0,.7,1.7A2.345,2.345,0,0,0,2.356,17H18.644a2.231,2.231,0,0,0,1.657-.716,2.464,2.464,0,0,0,.7-1.7V4.391A2.344,2.344,0,0,0,20.3,2.692Z" fill="#7b3b83"/><path d="M4.5,0A4.5,4.5,0,1,0,7.683,1.317,4.508,4.508,0,0,0,4.5,0Z" transform="translate(6 5)" fill="#fff"/></svg>