<svg xmlns="http://www.w3.org/2000/svg" width="24.001" height="23.001" viewBox="0 0 24.001 23.001"><path d="M7.05,22.919a7.282,7.282,0,0,1-5.027-1.858A6.61,6.61,0,0,1,.085,16.242c-.113-1.907-.113-7.582,0-9.49A6.647,6.647,0,0,1,2.022,1.934,7.258,7.258,0,0,1,7.05.081C7.97.031,9.867,0,12,0s4.03.032,4.95.082a7.262,7.262,0,0,1,5.027,1.858,6.611,6.611,0,0,1,1.939,4.819c.112,1.905.112,7.578,0,9.484a6.659,6.659,0,0,1-1.939,4.819,7.207,7.207,0,0,1-5.027,1.858c-.917.05-2.813.082-4.95.082S7.967,22.969,7.05,22.919ZM12.8,20.934h.058c.4,0,.826.008,1.268.008a17.586,17.586,0,0,0,4.95-.476,3.976,3.976,0,0,0,2.281-2.186c.536-1.294.507-4.1.488-5.958V12.3c0-.292-.005-.568-.005-.8s0-.509.005-.8V10.68c.019-1.857.049-4.661-.488-5.959a3.98,3.98,0,0,0-2.281-2.187,17.877,17.877,0,0,0-4.992-.475c-.4,0-.783,0-1.125.007h-.117l-.18,0c-.238,0-.463,0-.66,0-.233,0-.508,0-.8-.005h-.057c-.4,0-.825-.008-1.267-.008a17.628,17.628,0,0,0-4.951.475A3.971,3.971,0,0,0,2.65,4.721c-.535,1.3-.507,4.115-.488,5.979v.049c0,.274.005.532.005.752s0,.486-.005.764v.055c-.02,1.857-.049,4.663.489,5.961a3.969,3.969,0,0,0,2.28,2.186,17.967,17.967,0,0,0,5.006.475c.436,0,.855,0,1.226-.007h.006c.27,0,.58-.005.835-.005C12.236,20.929,12.51,20.93,12.8,20.934ZM7.65,15.673a5.739,5.739,0,0,1,0-8.346,6.356,6.356,0,0,1,8.706,0,5.739,5.739,0,0,1,0,8.346,6.356,6.356,0,0,1-8.706,0ZM8,11.5a3.923,3.923,0,0,0,4,3.834A3.924,3.924,0,0,0,16,11.5a3.924,3.924,0,0,0-4-3.834A3.923,3.923,0,0,0,8,11.5Zm8.968-6.138a1.436,1.436,0,0,1,2.87,0,1.436,1.436,0,0,1-2.87,0Z" transform="translate(0 0.001)" fill="#fff"/></svg>