<svg xmlns="http://www.w3.org/2000/svg" width="23" height="20" viewBox="0 0 23 20"><g transform="translate(-2 -2)"><path d="M15.422,0a5.068,5.068,0,0,0-3.105,1.042A6.915,6.915,0,0,0,10.5,3.163,6.914,6.914,0,0,0,8.683,1.042,5.068,5.068,0,0,0,5.578,0,5.606,5.606,0,0,0,0,5.874c0,3.618,2.992,6.094,7.521,9.841.769.636,1.641,1.358,2.547,2.127a.671.671,0,0,0,.864,0c.906-.769,1.778-1.491,2.548-2.128C18.008,11.968,21,9.493,21,5.874A5.606,5.606,0,0,0,15.422,0" transform="translate(3 3)" fill="none" stroke="#e64561" stroke-miterlimit="10" stroke-width="2"/></g></svg>