<?xml version="1.0" encoding="UTF-8"?>
<svg width="196px" height="48px" viewBox="0 0 196 48" version="1.1" xmlns="http://www.w3.org/2000/svg" xmlns:xlink="http://www.w3.org/1999/xlink">
    <title>REGUA_NO_CHAO_DA_ESCOLA</title>
    <defs>
        <polygon id="path-1" points="0.096972973 0.283353982 25.8619047 0.283353982 25.8619047 38.8300117 0.096972973 38.8300117"></polygon>
        <polygon id="path-3" points="0.194197674 0.103531197 29.8259302 0.103531197 29.8259302 35.9996505 0.194197674 35.9996505"></polygon>
    </defs>
    <g id="Desktop" stroke="none" stroke-width="1" fill="none" fill-rule="evenodd">
        <g id="06---Meus-Grupos" transform="translate(-1065.000000, -1103.000000)">
            <g id="Rodapé" transform="translate(-51.000000, 981.000000)">
                <g id="REGUA_NO_CHAO_DA_ESCOLA" transform="translate(1116.000000, 122.500000)">
                    <g id="Group" transform="translate(0.000000, 37.000000)" fill="#FFFFFF" fill-rule="nonzero">
                        <path d="M0,0.180561622 L1.1021645,0.180561622 L1.1021645,1.32411856 L0,1.32411856 L0,0.180561622 Z M0.058008658,2.82879875 L1.04415584,2.82879875 L1.04415584,9.69014041 L0.058008658,9.69014041 L0.058008658,2.82879875 Z" id="Shape"></path>
                        <path d="M3.30649351,2.82879875 L4.29264069,2.82879875 L4.29264069,4.0325429 C4.75670996,3.31029641 5.39480519,2.70842434 6.55497835,2.70842434 C8.17922078,2.70842434 9.10735931,3.85198128 9.10735931,5.47703588 L9.10735931,9.75032761 L8.12121212,9.75032761 L8.12121212,5.71778471 C8.12121212,4.45385335 7.48311688,3.67141966 6.26493506,3.67141966 C5.1047619,3.67141966 4.29264069,4.51404056 4.29264069,5.83815913 L4.29264069,9.75032761 L3.30649351,9.75032761 L3.30649351,2.82879875 L3.30649351,2.82879875 Z" id="Path"></path>
                        <path d="M11.2536797,0.180561622 L12.3558442,0.180561622 L12.3558442,1.32411856 L11.2536797,1.32411856 L11.2536797,0.180561622 Z M11.3116883,2.82879875 L12.2978355,2.82879875 L12.2978355,9.69014041 L11.3116883,9.69014041 L11.3116883,2.82879875 Z" id="Shape"></path>
                        <path d="M14.1541126,6.31965679 L14.1541126,6.31965679 C14.1541126,4.33347894 15.604329,2.70842434 17.5766234,2.70842434 C18.8528139,2.70842434 19.6069264,3.2501092 20.2450216,3.91216849 L19.6069264,4.63441498 C19.0848485,4.0325429 18.5047619,3.61123245 17.5766234,3.61123245 C16.2424242,3.61123245 15.1982684,4.8149766 15.1982684,6.25946958 L15.1982684,6.25946958 C15.1982684,7.76414977 16.2424242,8.90770671 17.634632,8.90770671 C18.5047619,8.90770671 19.1428571,8.48639626 19.6649351,7.88452418 L20.3030303,8.48639626 C19.6649351,9.26882995 18.8528139,9.81051482 17.5766234,9.81051482 C15.6623377,9.87070203 14.1541126,8.24564743 14.1541126,6.31965679 Z" id="Path"></path>
                        <path d="M21.9272727,0.180561622 L23.0294372,0.180561622 L23.0294372,1.32411856 L21.9272727,1.32411856 L21.9272727,0.180561622 Z M21.9852814,2.82879875 L22.9714286,2.82879875 L22.9714286,9.69014041 L21.9852814,9.69014041 L21.9852814,2.82879875 Z" id="Shape"></path>
                        <path d="M24.769697,7.70396256 L24.769697,7.70396256 C24.769697,6.19928237 25.9298701,5.47703588 27.6121212,5.47703588 C28.4822511,5.47703588 29.0623377,5.5974103 29.6424242,5.77797192 L29.6424242,5.53722309 C29.6424242,4.27329173 28.8883117,3.67141966 27.6701299,3.67141966 C26.9160173,3.67141966 26.2779221,3.91216849 25.6398268,4.15291732 L25.3497835,3.31029641 C26.1038961,2.94917317 26.8,2.70842434 27.7861472,2.70842434 C28.7142857,2.70842434 29.4683983,2.94917317 29.9324675,3.49085803 C30.3965368,3.97235569 30.6285714,4.63441498 30.6285714,5.47703588 L30.6285714,9.69014041 L29.7004329,9.69014041 L29.7004329,8.66695788 C29.2363636,9.26882995 28.4822511,9.87070203 27.3220779,9.87070203 C26.0458874,9.87070203 24.769697,9.14845554 24.769697,7.70396256 Z M29.6424242,7.16227769 L29.6424242,6.50021841 C29.178355,6.37984399 28.4822511,6.19928237 27.6701299,6.19928237 C26.4519481,6.19928237 25.7558442,6.74096724 25.7558442,7.64377535 L25.7558442,7.64377535 C25.7558442,8.48639626 26.5099567,9.02808112 27.4380952,9.02808112 C28.6562771,9.02808112 29.6424242,8.24564743 29.6424242,7.16227769 Z" id="Shape"></path>
                        <path d="M33.0069264,7.88452418 L33.0069264,3.73160686 L32.0787879,3.73160686 L32.0787879,2.82879875 L33.0069264,2.82879875 L33.0069264,0.782433697 L33.9930736,0.782433697 L33.9930736,2.82879875 L36.0813853,2.82879875 L36.0813853,3.73160686 L33.9930736,3.73160686 L33.9930736,7.76414977 C33.9930736,8.60677067 34.4571429,8.90770671 35.0952381,8.90770671 C35.44329,8.90770671 35.7333333,8.8475195 36.0813853,8.66695788 L36.0813853,9.56976599 C35.7333333,9.75032761 35.3852814,9.87070203 34.8632035,9.87070203 C33.8190476,9.81051482 33.0069264,9.26882995 33.0069264,7.88452418 Z" id="Path"></path>
                        <path d="M37.821645,0.180561622 L38.9238095,0.180561622 L38.9238095,1.32411856 L37.821645,1.32411856 L37.821645,0.180561622 Z M37.9376623,2.82879875 L38.9238095,2.82879875 L38.9238095,9.69014041 L37.9376623,9.69014041 L37.9376623,2.82879875 Z" id="Shape"></path>
                        <polygon id="Path" points="40.5480519 2.82879875 41.6502165 2.82879875 43.8545455 8.54658346 46.1168831 2.82879875 47.161039 2.82879875 44.2606061 9.75032761 43.3904762 9.75032761"></polygon>
                        <path d="M47.9151515,7.70396256 L47.9151515,7.70396256 C47.9151515,6.19928237 49.0753247,5.47703588 50.7575758,5.47703588 C51.6277056,5.47703588 52.2077922,5.5974103 52.7878788,5.77797192 L52.7878788,5.53722309 C52.7878788,4.27329173 52.0337662,3.67141966 50.8155844,3.67141966 C50.0614719,3.67141966 49.4233766,3.91216849 48.7852814,4.15291732 L48.4952381,3.31029641 C49.2493506,2.94917317 49.9454545,2.70842434 50.9316017,2.70842434 C51.8597403,2.70842434 52.6138528,2.94917317 53.0779221,3.49085803 C53.5419913,3.97235569 53.774026,4.63441498 53.774026,5.47703588 L53.774026,9.69014041 L52.7878788,9.69014041 L52.7878788,8.66695788 C52.3238095,9.26882995 51.569697,9.87070203 50.4095238,9.87070203 C49.1333333,9.87070203 47.9151515,9.14845554 47.9151515,7.70396256 Z M52.7878788,7.16227769 L52.7878788,6.50021841 C52.3238095,6.37984399 51.6277056,6.19928237 50.8155844,6.19928237 C49.5974026,6.19928237 48.9012987,6.74096724 48.9012987,7.64377535 L48.9012987,7.64377535 C48.9012987,8.48639626 49.6554113,9.02808112 50.5835498,9.02808112 C51.8017316,9.02808112 52.7878788,8.24564743 52.7878788,7.16227769 Z" id="Shape"></path>
                    </g>
                    <g id="Group-19" transform="translate(71.000000, 0.000000)">
                        <g id="Group-3" transform="translate(79.000000, 0.000000)">
                            <mask id="mask-2" fill="white">
                                <use xlink:href="#path-1"></use>
                            </mask>
                            <g id="Clip-2"></g>
                            <path d="M14.9419189,0.28290531 C14.9419189,0.28290531 -1.78521622,14.7274009 9.86875676,25.4627549 L9.97416216,25.5065867 C3.45483784,26.2810646 0.096972973,34.9432062 0.096972973,34.9432062 C3.90140541,37.6380027 7.15175676,38.7320735 9.893,38.8235336 C12.6704324,38.9174097 14.9264595,37.9814097 16.7102703,36.6388434 C16.0521892,32.9780204 17.4126216,29.3662062 18.4975946,27.3319938 L18.4772162,27.3230204 C20.7191892,23.1524363 23.0507568,19.3073124 25.8060541,16.4147549 C26.2884595,10.0639673 23.7271081,4.49007345 14.9419189,0.28290531" id="Fill-1" fill="#FFCC03" mask="url(#mask-2)"></path>
                        </g>
                        <g id="Group-6" transform="translate(95.000000, 11.000000)">
                            <mask id="mask-4" fill="white">
                                <use xlink:href="#path-3"></use>
                            </mask>
                            <g id="Clip-5"></g>
                            <path d="M20.9304767,0.112403883 C16.1196628,-0.0508194175 12.3898953,2.04976311 9.22594186,5.43900583 C8.89594186,9.85826796 7.1385,14.6515107 4.97919767,19.6216078 L4.95826744,19.6114718 C4.17303488,21.4013359 2.62803488,24.0496078 0.194197674,25.9198602 C0.8835,29.8358214 3.80989535,33.8049087 11.6608256,36.0002097 C11.6608256,36.0002097 16.4186163,27.9138408 12.9885,22.3565592 L13.0900116,22.4117825 C13.6809419,22.4970641 14.250593,22.5470447 14.7996628,22.5655689 C28.8658256,23.0492971 29.8265233,2.55096699 29.8265233,2.55096699 C26.4846628,0.963471845 23.5474535,0.202928155 20.9304767,0.112403883" id="Fill-4" fill="#FFCC03" mask="url(#mask-4)"></path>
                        </g>
                        <path d="M104,17 C101.32469,19.8610922 99.0608081,23.662116 96.8832378,27.7870307 L96.9037069,27.7959044 C95.8505721,29.8078498 94.5292922,33.3802048 95.1669044,37 C97.5467775,35.1737201 99.05842,32.5880546 99.8266933,30.8395904 L99.8471623,30.8501706 C101.959232,25.9955631 103.677271,21.316041 104,17" id="Fill-7" fill="#FAAE1C"></path>
                        <path d="M11.4836644,36.260966 L6.10164937,37.4147322 C3.44951784,37.9909223 1.51599304,39.3969233 1.51599304,41.5222091 C1.51599304,44.0088698 3.60056911,45.5572725 6.51849607,45.5572725 C9.32339147,45.5572725 11.4836644,43.7199085 11.4836644,41.1615273 L11.4836644,36.260966 Z M6.51849607,47 C3.07069084,47 0,45.0531495 0,41.5222091 C0,38.3152242 2.72954102,36.5856143 5.8749012,35.9373571 L11.4836644,34.7832444 L11.4836644,32.8381263 C11.4836644,30.2073314 9.85395479,28.4420345 6.59487801,28.4420345 C3.07069084,28.4420345 2.53875744,30.6043933 1.70506402,30.6043933 C1.32657954,30.6043933 0.948095062,30.3154321 0.948095062,29.9197561 C0.948095062,29.5951078 1.21286294,29.306493 1.40296148,29.0902917 C2.72954102,27.6132631 4.66169574,27 6.59487801,27 C10.6876482,27 13,29.4145936 13,32.8381263 L13,41.1615273 C13,44.6221329 10.0433683,47 6.51849607,47 L6.51849607,47 Z" id="Fill-9" fill="#FFFFFF"></path>
                        <path d="M21.3094495,47 C21.0179129,47 20.6912079,46.8178413 20.4726376,46.672394 C18.6908792,45.5091654 18,43.3624195 18,41.290495 L18,19.7265371 C18,19.2545327 18.3635168,19 18.7273624,19 C19.0915366,19 19.4543961,19.2545327 19.4543961,19.7265371 L19.4543961,41.290495 C19.4543961,42.7446182 19.9996713,44.9637381 21.527691,45.5815394 C21.8543961,45.7259378 22,45.9815194 22,46.272414 C22,46.6360322 21.7094495,47 21.3094495,47" id="Fill-11" fill="#FFFFFF"></path>
                        <path d="M36.4838472,36.260966 L31.1016074,37.4147322 C28.4495389,37.9909223 26.5154677,39.3969233 26.5154677,41.5222091 C26.5154677,44.0088698 28.5999209,45.5572725 31.5191831,45.5572725 C34.323004,45.5572725 36.4838472,43.7199085 36.4838472,41.1615273 L36.4838472,36.260966 Z M31.5191831,47 C28.0703294,47 25,45.0531495 25,41.5222091 C25,38.3152242 27.7284585,36.5856143 30.8744928,35.9373571 L36.4838472,34.7832444 L36.4838472,32.8381263 C36.4838472,30.2073314 34.8539657,28.4420345 31.5952306,28.4420345 C28.0703294,28.4420345 27.5397101,30.6043933 26.7052437,30.6043933 C26.3267194,30.6043933 25.9475099,30.3154321 25.9475099,29.9197561 C25.9475099,29.5951078 26.2129908,29.306493 26.4017391,29.0902917 C27.7284585,27.6132631 29.6618445,27 31.5952306,27 C35.687747,27 38,29.4145936 38,32.8381263 L38,41.1615273 C38,44.6221329 35.0440843,47 31.5191831,47 L31.5191831,47 Z" id="Fill-13" fill="#FFFFFF"></path>
                        <path d="M57.2435575,46 C56.8653362,46 56.4874569,45.7442004 56.4874569,45.2668254 L56.4874569,32.7898033 C56.4874569,29.8539296 54.026625,27.4695246 51.000171,27.4695246 C47.973033,27.4695246 45.5142529,29.8539296 45.5142529,32.7898033 L45.5142529,45.2668254 C45.5142529,45.7442004 45.1356897,46 44.7567845,46 C44.3785632,46 44,45.7442004 44,45.2668254 L44,32.7898033 C44,29.047367 47.1410147,26 51.000171,26 C54.8596693,26 58,29.047367 58,32.7898033 L58,45.2668254 C58,45.7442004 57.6214368,46 57.2435575,46" id="Fill-15" fill="#FFFFFF"></path>
                        <path d="M73.4838472,36.260966 L68.1016074,37.4147322 C65.4485112,37.9909223 63.5154677,39.3969233 63.5154677,41.5222091 C63.5154677,44.0088698 65.5995784,45.5572725 68.5188406,45.5572725 C71.323004,45.5572725 73.4838472,43.7199085 73.4838472,41.1615273 L73.4838472,36.260966 Z M68.5188406,47 C65.0693017,47 62,45.0531495 62,41.5222091 C62,38.3152242 64.7284585,36.5856143 67.8744928,35.9373571 L73.4838472,34.7832444 L73.4838472,32.8381263 C73.4838472,30.2073314 71.8543083,28.4420345 68.5952306,28.4420345 C65.0693017,28.4420345 64.5386825,30.6043933 63.7049012,30.6043933 C63.3267194,30.6043933 62.9468248,30.3154321 62.9468248,29.9197561 C62.9468248,29.5951078 63.2129908,29.306493 63.4017391,29.0902917 C64.7284585,27.6132631 66.661502,27 68.5952306,27 C72.687747,27 75,29.4145936 75,32.8381263 L75,41.1615273 C75,44.6221329 72.0433992,47 68.5188406,47 L68.5188406,47 Z" id="Fill-17" fill="#FFFFFF"></path>
                    </g>
                </g>
            </g>
        </g>
    </g>
</svg>