<?xml version="1.0" encoding="UTF-8"?>
<svg width="13px" height="12px" viewBox="0 0 13 12" version="1.1" xmlns="http://www.w3.org/2000/svg" xmlns:xlink="http://www.w3.org/1999/xlink">
    <title>logout</title>
    <g id="Page-1" stroke="none" stroke-width="1" fill="none" fill-rule="evenodd">
        <g id="Botões-Fundo-Cinza" transform="translate(-787.000000, -496.000000)" fill="#7B3B83" fill-rule="nonzero">
            <g id="Fundo-Cinza">
                <g transform="translate(72.000000, 86.000000)" id="Com">
                    <g transform="translate(53.000000, 347.000000)">
                        <g id="Sair" transform="translate(607.000000, 52.000000)">
                            <g id="logout" transform="translate(55.500000, 11.000000)">
                                <path d="M7.74999268,9 L7.25000146,9 C7.11193142,9 7,9.1119375 7,9.25000781 L7,11.0000156 L1,11.0000156 L1,1 L7,1 L7,2.75001563 C7,2.88808594 7.11193142,3.00002344 7.25000146,3.00002344 L7.74999268,3.00002344 C7.88806272,3.00002344 8,2.88808594 8,2.75001563 L8,1 C8,0.447726563 7.55227431,0 7,0 L1,0 C0.447725688,0 0,0.447726563 0,1 L0,11.0000156 C0,11.5522969 0.447725688,12 1,12 L7,12 C7.55227431,12 8,11.5522969 8,11 L8,9.24998437 C8,9.1119375 7.88806272,9 7.74999268,9 Z" id="Path"></path>
                                <path d="M11.9189531,5.8157439 L8.91895312,3.06582066 C8.84571094,2.99916608 8.73951562,2.98086185 8.64942187,3.02138427 C8.55860156,3.06118015 8.5,3.15101383 8.5,3.25012853 L8.5,3.75013162 C8.5,3.82093454 8.53003125,3.88855003 8.58276563,3.93591603 L10.3206797,5.50009556 L3.25000781,5.50009556 C3.11182031,5.50009556 3,5.61191307 3,5.75009711 L3,6.25007676 C3,6.38826079 3.11182031,6.5000783 3.25000781,6.5000783 L10.3206797,6.5000783 L8.58276563,8.06425784 C8.53003125,8.11162384 8.5,8.17923933 8.5,8.25004224 L8.5,8.75002189 C8.5,8.84913659 8.55860156,8.93899372 8.64942188,8.97876616 C8.68164844,8.99317986 8.71607813,9 8.75001562,9 C8.81130469,9 8.87184375,8.97728963 8.91895313,8.93432977 L11.9189531,6.18440653 C11.9707031,6.13704053 12,6.07015158 12,6.00007521 C12,5.92999885 11.9707031,5.8631099 11.9189531,5.8157439 Z" id="Path"></path>
                            </g>
                        </g>
                    </g>
                </g>
            </g>
        </g>
    </g>
</svg>