<?xml version="1.0" encoding="UTF-8"?>
<svg width="128px" height="161px" viewBox="0 0 128 161" version="1.1" xmlns="http://www.w3.org/2000/svg" xmlns:xlink="http://www.w3.org/1999/xlink">
    <title>Group 1</title>
    <g id="Desktop" stroke="none" stroke-width="1" fill="none" fill-rule="evenodd">
        <g id="09---Mssao" transform="translate(-187.000000, -827.000000)">
            <g id="Form" transform="translate(-192.000000, 801.000000)">
                <g id="Group-1" transform="translate(379.000000, 26.117259)">
                    <path d="M34.5384512,62.0892562 C34.2752414,61.0682844 34.8446079,60.0172349 35.8435751,59.68 C46.6151454,58.0932231 65.4898561,54.6195041 78.1695256,58.0786777 C79.1411404,58.4655185 79.6792694,59.50906 79.4310132,60.5249587 C79.4023924,61.0041123 79.171513,61.4485334 78.7959283,61.7474372 C78.4203437,62.046341 77.9354379,62.1715677 77.4620875,62.0919008 C65.2214264,58.7530579 48.7678727,59.8201653 39.8898561,61.9094215 C39.7827487,61.9358678 37.8111785,61.9094215 37.7053933,61.9094215 C36.929195,61.9094215 34.6918396,63.0743802 34.5384512,62.0892562 Z M38.2250627,81.4664463 C37.9698046,81.5323962 37.7072153,81.5657197 37.4435751,81.5656198 C36.4360012,81.6177751 35.4924557,81.0708298 35.0369636,80.1705785 C34.863328,79.615377 34.9440926,79.0118105 35.2575912,78.5217935 C35.5710898,78.0317765 36.0852302,77.7054712 36.6620875,77.6304132 C48.1643604,74.6266268 60.0005558,73.0906761 71.8885338,73.0591736 C80.0191998,73.0266115 88.1304836,73.854583 96.0868809,75.5292562 C96.669641,75.5809375 97.2011219,75.8834864 97.5430681,76.3582001 C97.8850143,76.8329138 98.0036222,77.4328638 97.868038,78.0019835 C97.5030793,79.0757025 92.9344842,78.0112397 91.5896908,77.7375207 C84.4055586,76.1890909 76.356633,74.6565289 68.4822528,75.7540496 C58.2928162,77.0715848 48.1883605,78.9789189 38.2197735,81.4664463 L38.2250627,81.4664463 Z M36.6620875,43.2515702 C48.1644608,40.2482996 60.0005904,38.7123574 71.8885338,38.6803306 C80.0192002,38.6477586 88.1304851,39.4757302 96.0868809,41.1504132 C96.669641,41.2020945 97.2011219,41.5046435 97.5430681,41.9793572 C97.8850143,42.4540708 98.0036222,43.0540208 97.868038,43.6231405 C97.5030793,44.6981818 92.9344842,43.633719 91.5896908,43.3586777 C84.4055586,41.8102479 76.356633,40.277686 68.4822528,41.3752066 C58.2929207,42.6927982 48.1884936,44.5996854 38.2197735,47.086281 C37.9645423,47.1523715 37.701935,47.1856973 37.4382859,47.1854545 C36.4310118,47.237853 35.4875467,46.6914727 35.0316743,45.7917355 C34.8575339,45.2355608 34.9387367,44.6308153 35.2534255,44.1402786 C35.5681142,43.6497419 36.0839508,43.3238224 36.6620875,43.2502479 L36.6620875,43.2515702 Z M36.9582859,26.5705785 C59.8263851,23.0122314 82.3004346,22.9024793 101.693493,26.2968595 C102.280534,26.3261111 102.827084,26.6048726 103.19543,27.0629055 C103.563777,27.5209384 103.718795,28.1145663 103.621426,28.6942149 C103.13596,29.8799897 101.857203,30.5334142 100.61184,30.2320661 C81.889195,26.9566942 65.3325008,25.3077686 43.1467156,28.7563636 C42.984071,28.7828099 39.9731619,28.7563636 39.8065504,28.7563636 C38.6164677,28.7563636 35.1982859,29.8935537 34.962914,28.9322314 C34.8836719,28.3481693 35.0554638,27.7578662 35.4357386,27.3075341 C35.8160134,26.857202 36.3692022,26.5889627 36.9582859,26.5692562 L36.9582859,26.5705785 Z M71.6544842,102.392066 C71.582743,102.144115 71.5466784,101.887211 71.5473668,101.629091 C71.5510731,101.051424 71.743812,100.490856 72.0961371,100.033058 C72.4095034,99.3995317 72.9929393,98.9420207 73.682914,98.7887603 C85.4184512,95.7540496 84.0485338,96.8621488 95.6862198,96.8621488 C97.0317487,96.8207856 98.3782328,96.903115 99.7086991,97.1080992 C100.716302,92.9652893 101.725228,92.1771901 101.725228,98.471405 C101.725228,109.648926 102.880931,108.568595 99.7801041,119.427438 C102.875641,119.664132 101.985724,120.360992 98.8981206,121.082975 C98.3631792,121.611895 97.5750562,121.792667 96.8630793,121.549752 C96.8392776,121.541818 96.8220875,121.521983 96.7982859,121.512727 C95.8316743,121.689917 94.7645669,121.86314 93.5982859,122.025785 L93.1791123,122.083967 C85.6525008,123.133884 87.5275421,122.526942 77.9222528,122.463471 C77.9090297,129.217851 76.7083685,127.620496 75.6227487,122.463471 L75.2445669,122.463471 C74.9801041,122.463471 74.7222528,122.562645 74.4630793,122.562645 C73.4555053,122.6148 72.5119599,122.067855 72.0564677,121.167603 C71.8290389,120.612306 71.8861412,119.98106 72.2095265,119.47559 C72.5329119,118.970119 73.082101,118.653696 73.6815917,118.627438 C74.116633,118.627438 74.5344842,118.627438 74.9391123,118.627438 C74.9383616,118.623952 74.9383616,118.620346 74.9391123,118.61686 C73.7027487,110.640661 74.7685338,113.160992 71.6544842,102.390744 L71.6544842,102.392066 Z M77.9725008,118.656529 C86.6164677,118.795372 86.781757,119.276694 95.3675421,119.330909 C95.3675421,119.284628 95.3490297,119.242314 95.3490297,119.198678 C95.3483313,118.940558 95.3843959,118.683653 95.4561371,118.435702 C98.5701867,107.665455 97.5044016,110.185785 98.7447322,102.210909 L98.8082032,101.800992 C99.0224181,100.41124 99.2564677,99.1563636 99.4931619,98.058843 C97.1383153,98.7700728 94.7241325,99.267514 92.2799388,99.545124 L91.8607652,99.6033058 C83.9639057,100.704793 86.0809305,99.8347107 76.2574594,102.364298 C78.6534925,110.920992 78.1536578,111.527934 77.9725008,118.659174 L77.9725008,118.656529 Z M121.586385,41.0128926 C120.964897,49.6846281 120.323575,58.652562 119.987707,67.5570248 C119.387377,83.5028099 119.211509,97.5378512 119.025063,112.398017 C118.904732,122.105124 118.780435,132.145455 118.523906,142.81124 C118.47141,143.540557 118.02011,144.181128 117.351013,144.476033 C116.604655,144.837545 115.744622,144.885166 114.962914,144.608264 C97.4025834,138.341818 65.2187818,137.221818 58.4485338,137.815537 C42.0042363,139.25686 28.0630793,141.488926 17.2002694,148.733884 C16.716849,149.045356 16.1528402,149.208537 15.57779,149.203306 C15.1334925,149.203306 13.0812611,149.376529 13.0812611,149.376529 C13.0812611,149.376529 12.5523355,140.966612 12.5523355,142.538843 L12.5523355,109.679339 C12.8223584,108.500127 13.8715289,107.664047 15.0812611,107.664047 C16.2909933,107.664047 17.3401638,108.500127 17.6101867,109.679339 L17.6101867,142.545455 C17.5907423,143.025843 17.3763457,143.477556 17.0164677,143.796364 C28.310352,137.184793 42.209195,133.791736 58.4538231,133.791736 C75.9467156,133.791736 95.8964677,134.277025 113.541426,139.768595 C113.751674,130.214876 113.865393,121.150413 113.975145,112.355702 C114.160269,97.4757025 114.337459,83.4221488 114.93779,67.4327273 C115.276302,58.4740496 115.920269,49.4809917 116.543079,40.7828099 C117.300765,30.2042975 118.080931,19.2872727 118.308369,8.43768595 C108.937129,6.24264463 98.9100214,4.04628099 77.9539884,4.04628099 C76.6184512,4.04628099 75.3093603,4.07669421 73.9870462,4.09652893 C48.5906826,5.86049587 52.3592776,6.01785124 43.3437404,6.7861157 C34.3279907,8.30755343 25.4765775,10.6793532 16.908038,13.8697521 C16.7890297,19.2528926 16.7282032,24.8634711 16.7282032,31.0109091 C16.7282032,42.8284298 16.9516743,54.8509091 17.1672115,66.4793388 C17.3827487,78.1077686 17.6088644,90.1580165 17.6088644,102.007273 C17.3388414,103.186484 16.289671,104.022564 15.0799388,104.022564 C13.8702065,104.022564 12.8210361,103.186484 12.5510132,102.007273 C12.5510132,90.1897521 12.3275421,78.1659504 12.1120049,66.538843 C11.8012611,49.8578512 13.1698561,15.3084298 13.085228,15.3414876 C12.9172942,15.406281 12.9397735,15.2661157 13.0706826,15.0042975 C13.5295256,14.0786777 12.7877074,12.1480992 13.085228,11.36 C13.5096908,10.2307438 13.7463851,10.8310744 14.6230793,10.2598347 C23.8718723,6.79616973 33.4384356,4.24907225 43.1850627,2.65520661 C63.0462198,0.115041322 45.9248975,0.907107438 73.4488644,0.0714049587 C74.9430793,0.0476033058 76.4333272,0.0158677686 77.9447322,0.0158677686 C100.336798,0.0158677686 111.142749,2.55338843 120.675311,4.79206612 L121.567873,5.00231405 C122.557818,5.14835668 123.312675,5.9637336 123.382088,6.96198347 C123.20622,18.4066116 122.38374,29.9014876 121.586385,41.0155372 L121.586385,41.0128926 Z M79.9744842,146.735868 C88.1728313,147.156364 84.3791123,150.712066 78.3110132,150.712066 C65.4845669,150.712066 53.038947,150.093223 40.9569636,152.080661 C24.1516743,154.844298 11.8078727,159.353388 5.87861647,158.731901 C5.17111165,158.524003 4.50902313,158.184885 3.92688093,157.732231 C2.91556786,156.977851 2.30903362,155.79894 2.28324457,154.537521 C2.29911234,152.509972 2.30660545,150.482424 2.30572391,148.454876 C2.30572391,130.671074 3.38605448,111.201322 2.82539333,93.6528926 C2.26076523,76.0780165 1.68026936,57.9067769 1.68026936,40.0700826 C1.61055788,37.2186531 1.353919,34.3748647 0.912004897,31.5570248 C0.390560865,28.3298154 0.127906298,25.0660892 0.126550352,21.7970248 C0.315391102,20.5586949 1.45003497,19.6916446 2.69448424,19.8347107 C3.94024602,19.7281729 5.03982655,20.6438021 5.16059994,21.8882645 C5.16777817,24.9861696 5.42069265,28.078624 5.91696358,31.1365289 C6.38065664,34.0968691 6.64571169,37.0849231 6.710352,40.0806612 C6.710352,57.8657851 7.2934925,76.0105785 7.85547597,93.5603306 C8.41878176,111.133884 8.99927762,129.305124 8.99927762,147.140496 C8.99927762,149.17686 8.99178451,151.212342 8.97679829,153.246942 C8.97948074,153.374097 9.04103245,153.492804 9.14340986,153.568264 C9.25639881,153.656838 9.39656871,153.703561 9.54010407,153.700496 L9.54010407,153.700496 C20.9120049,153.638347 22.1470462,152.572562 35.0607652,149.397686 C47.211509,146.403967 67.0832446,146.077355 79.9744842,146.738512 L79.9744842,146.735868 Z M5.87861647,158.731901 C6.52575802,158.932527 7.19911141,159.035914 7.876633,159.038678 C4.27993878,159.041322 3.96258341,158.919669 5.87861647,158.734545 L5.87861647,158.731901 Z" id="Shape" fill="#882D8E"></path>
                    <path d="M94.3468672,114.660548 C94.2396447,115.351521 93.8723566,115.960707 93.4998658,116.518257 C91.8881255,118.890492 90.5261326,118.7284 87.7591,117.974253 C84.4375262,117.077428 86.1991247,116.518257 81.19818,111.792132 C64.590311,89.2718614 66.9898008,90.5848256 70.2093473,91.7990572 C73.4288937,93.0132888 79.2162044,97.0841893 88.6186308,108.161638 C94.3468672,93.208002 98.1350501,77.3136475 128,57.9487834 C128,57.9487834 98.9091454,85.2598748 94.3468672,114.660548 Z" id="Path" fill="#EC4359"></path>
                </g>
            </g>
        </g>
    </g>
</svg>