<svg xmlns="http://www.w3.org/2000/svg" xmlns:xlink="http://www.w3.org/1999/xlink" width="382.5" height="285" viewBox="0 0 382.5 285"><defs><clipPath id="a"><path d="M0,0H72V72H0Z" fill="none"/></clipPath><clipPath id="b"><path d="M0,0H-48V48H0Z" fill="none"/></clipPath></defs><g transform="translate(-968 -68)"><g transform="translate(1136 78)"><rect width="200" height="200" transform="translate(0 14)" fill="#ffd339"/><g transform="translate(40 62)"><path d="M0,0H72V72H0Z" fill="none"/><g clip-path="url(#a)"><path d="M4.406,72a1.97,1.97,0,0,1-.791-.16,1.908,1.908,0,0,1-1.022-2.527L7.838,57.352a34.971,34.971,0,0,1-5.82-10.316A34.417,34.417,0,0,1,0,35.418C0,15.9,16.171.019,36.049.019c.06,0,.1,0,.118-.019A36.173,36.173,0,0,1,50.284,2.85a35.786,35.786,0,0,1,11.474,7.734,35.084,35.084,0,0,1,7.511,11.142A34.469,34.469,0,0,1,72,35.3c0,19.519-16.172,35.4-36.05,35.4h-.163a35.183,35.183,0,0,1-11.821-2.045L4.735,71.975A2.167,2.167,0,0,1,4.406,72ZM36.143,3.857h-.074c-17.711,0-32.12,14.149-32.12,31.54A30.886,30.886,0,0,0,11.61,55.751a1.92,1.92,0,0,1,.315,2.026l-4.283,9.78,16.187-2.777a2.251,2.251,0,0,1,.366-.031,1.793,1.793,0,0,1,.676.127,31.983,31.983,0,0,0,11.1,1.986c17.711,0,32.12-14.157,32.12-31.559v-.116C68.071,17.912,53.739,3.858,36.143,3.858Z" fill="#e64561"/><path d="M12.973,0H2.027C.912,0,0,.675,0,1.5S.912,3,2.027,3H12.973C14.088,3,15,2.325,15,1.5S14.088,0,12.973,0" transform="translate(22 29)" fill="#e64561"/><path d="M26.056,0H1.944A1.772,1.772,0,0,0,0,1.5,1.772,1.772,0,0,0,1.944,3H26.056A1.772,1.772,0,0,0,28,1.5,1.772,1.772,0,0,0,26.056,0" transform="translate(22 39)" fill="#e64561"/></g></g><g transform="translate(160 114)"><path d="M0,0H-48V48H0Z" fill="none"/><g clip-path="url(#b)"><path d="M-2.935,48a1.3,1.3,0,0,0,.525-.107,1.265,1.265,0,0,0,.7-.7,1.257,1.257,0,0,0-.015-.983l-3.5-7.973A23.259,23.259,0,0,0,0,23.612,23.846,23.846,0,0,0-24.033.013c-.04,0-.066,0-.078-.013a24.114,24.114,0,0,0-9.411,1.9,23.857,23.857,0,0,0-7.649,5.156A23.139,23.139,0,0,0-48,23.535a23.846,23.846,0,0,0,24.033,23.6h.116a23.451,23.451,0,0,0,7.874-1.363l12.821,2.211A1.439,1.439,0,0,0-2.935,48ZM-24.1,2.571h.051A21.247,21.247,0,0,1-2.633,23.6,20.5,20.5,0,0,1-4.1,31.225,20.448,20.448,0,0,1-7.74,37.167a1.278,1.278,0,0,0-.21,1.35l2.855,6.521-10.792-1.852a1.537,1.537,0,0,0-.242-.02,1.2,1.2,0,0,0-.452.085,21.309,21.309,0,0,1-7.4,1.325,21.253,21.253,0,0,1-21.413-21.04v-.077A21.134,21.134,0,0,1-24.1,2.572Z" fill="#fff"/><path d="M-8.649,0h7.3A1.436,1.436,0,0,1,0,1.5,1.436,1.436,0,0,1-1.351,3h-7.3A1.436,1.436,0,0,1-10,1.5,1.436,1.436,0,0,1-8.649,0" transform="translate(-15 19)" fill="#fff"/><path d="M-17.681,0H-1.319A1.423,1.423,0,0,1,0,1.5,1.423,1.423,0,0,1-1.319,3H-17.681A1.423,1.423,0,0,1-19,1.5,1.423,1.423,0,0,1-17.681,0" transform="translate(-14 26)" fill="#fff"/></g></g><path d="M0-51H37V0" transform="translate(176 51)" fill="none" stroke="#e64561" stroke-miterlimit="10" stroke-width="3"/></g><g transform="translate(968 203)"><rect width="150" height="150" fill="#bfd541"/><path d="M0,.5H54.284" transform="translate(20.716 112.337)" fill="none" stroke="#daf254" stroke-linecap="round" stroke-miterlimit="10" stroke-width="3"/><path d="M.5,1h30" transform="translate(62.5 120)" fill="none" stroke="#daf254" stroke-linecap="round" stroke-miterlimit="10" stroke-width="3"/><path d="M53.27,47H6.73A6.779,6.779,0,0,1,2,45.014,6.429,6.429,0,0,1,0,40.3V12.034A6.714,6.714,0,0,1,2,7.322,6.49,6.49,0,0,1,6.73,5.336h9.41V5.222a5.173,5.173,0,0,1,1.54-3.689A5.293,5.293,0,0,1,21.445,0h17.11a5.223,5.223,0,0,1,3.707,1.533A5.117,5.117,0,0,1,43.8,5.222v.114H53.27A6.49,6.49,0,0,1,58,7.322a6.429,6.429,0,0,1,2,4.712V40.3a6.717,6.717,0,0,1-2,4.711A6.49,6.49,0,0,1,53.27,47Z" transform="translate(45 49)" fill="none" stroke="#7b3b83" stroke-miterlimit="10" stroke-width="3"/><path d="M14,28A14,14,0,0,1,4.1,4.1a14.015,14.015,0,0,1,23.3,14l-8.112,8.869A13.937,13.937,0,0,1,14,28Zm9.916-4.112h0l1.823-2.239A14.145,14.145,0,0,1,23.916,23.888Z" transform="translate(61 61)" fill="none" stroke="#7b3b83" stroke-miterlimit="10" stroke-width="3"/><path d="M6,3A3,3,0,1,1,3,0,3,3,0,0,1,6,3Z" transform="translate(92 61)" fill="#7b3b83"/></g><g transform="translate(1006 68)"><rect width="112" height="112" fill="#ef75ac"/><g transform="translate(26 41)"><path d="M30.841,31H5.159A5.2,5.2,0,0,1,0,25.789V5.212A5.2,5.2,0,0,1,5.159,0H30.841A5.2,5.2,0,0,1,36,5.212V25.789A5.2,5.2,0,0,1,30.841,31Z" fill="none" stroke="#ffd339" stroke-miterlimit="10" stroke-width="3"/><path d="M10.48.393,0,6.221V22.779l10.48,5.827A3.015,3.015,0,0,0,15,26.093V2.907A3.015,3.015,0,0,0,10.48.393Z" transform="translate(36)" fill="none" stroke="#ffd339" stroke-miterlimit="10" stroke-width="3"/></g><path d="M0,.25H7" transform="translate(84.64 56)" fill="none" stroke="#55c7df" stroke-linecap="round" stroke-miterlimit="10" stroke-width="3"/><path d="M0,4.5,6.383,0" transform="translate(84.948 46.749)" fill="none" stroke="#55c7df" stroke-linecap="round" stroke-miterlimit="10" stroke-width="3"/><path d="M0,0,6.383,4.5" transform="translate(84.948 60.749)" fill="none" stroke="#55c7df" stroke-linecap="round" stroke-miterlimit="10" stroke-width="3"/></g></g></svg>