<?xml version="1.0" encoding="UTF-8"?>
<svg width="34px" height="30px" viewBox="0 0 34 30" version="1.1" xmlns="http://www.w3.org/2000/svg" xmlns:xlink="http://www.w3.org/1999/xlink">
    <title>Icone_1</title>
    <g id="Symbols" stroke="none" stroke-width="1" fill="none" fill-rule="evenodd">
        <g id="Cabeçalho-Inscrição-V2" transform="translate(-1154.000000, -53.000000)">
            <g id="Inscrição-texto">
                <g id="Ir-para-meus-projetos" transform="translate(1136.000000, 44.000000)">
                    <g id="Icone_1" transform="translate(19.000000, 10.000000)">
                        <path d="M18.93,1.131 L28.59,3.719 C29.6147184,3.99325804 30.4880939,4.66418249 31.0172172,5.58358114 C31.5463405,6.5029798 31.6876739,7.59520188 31.41,8.619 L27.53,23.108 C27.2553472,24.1328663 26.5847578,25.0066212 25.6657961,25.5369933 C24.7468345,26.0673654 23.6548012,26.2108957 22.63,25.936 L12.97,23.348 C11.9454296,23.0735056 11.0722262,22.4025388 10.5431437,21.4832112 C10.0140613,20.5638835 9.87260483,19.4717888 10.15,18.448 L14.03,3.959 C14.3046528,2.9341337 14.9752422,2.06037885 15.8942039,1.5300067 C16.8131655,0.999634553 17.9051988,0.856104293 18.93,1.131 L18.93,1.131 Z" id="Retângulo_Arredondado_2" stroke="#000000" stroke-width="2" fill="#FFFFFF"></path>
                        <path d="M2.97,3.717 L12.63,1.129 C13.6549373,0.854138847 14.74709,0.997805765 15.6660765,1.52837983 C16.5850631,2.0589539 17.255563,2.93294906 17.53,3.958 L21.41,18.447 C21.6873952,19.4707888 21.5459387,20.5628835 21.0168563,21.4822112 C20.4877738,22.4015388 19.6145704,23.0725056 18.59,23.347 L8.93,25.935 C7.90519882,26.2098957 6.81316551,26.0663654 5.89420387,25.5359933 C4.97524223,25.0056212 4.30465282,24.1318663 4.03,23.107 L0.15,8.618 C-0.127977429,7.59406377 0.0132059352,6.50158375 0.542354257,5.58195399 C1.07150258,4.66232423 1.94505801,3.9912458 2.97,3.717 Z" id="Retângulo_Arredondado_2-2" stroke="#000000" stroke-width="2" fill="#FFFFFF"></path>
                        <g id="Agrupar_2" transform="translate(6.000000, 2.000000)">
                            <path d="M4.78,2.031 L14.78,2.031 C16.989139,2.031 18.78,3.821861 18.78,6.031 L18.78,21.031 C18.78,23.240139 16.989139,25.031 14.78,25.031 L4.78,25.031 C2.570861,25.031 0.78,23.240139 0.78,21.031 L0.78,6.031 C0.78,3.821861 2.570861,2.031 4.78,2.031 Z" id="Retângulo_Arredondado_2-3" stroke="#000000" stroke-width="2" fill="#FFFFFF"></path>
                            <rect id="Retângulo_Arredondado_2-4" fill="#FFC828" fill-rule="nonzero" style="mix-blend-mode: multiply;" x="3.78" y="0.031" width="18" height="23" rx="4"></rect>
                            <line x1="4.78" y1="10.031" x2="10.78" y2="10.031" id="Forma_6" stroke="#000000" stroke-width="2" fill="#FFC828" stroke-linecap="round"></line>
                            <line x1="4.78" y1="14.031" x2="14.78" y2="14.031" id="Forma_6-2" stroke="#000000" stroke-width="2" fill="#FFC828" stroke-linecap="round"></line>
                            <path d="M4.78,18.031 L7.78,18.031 M11.06,18.031 L14.78,18.031" id="Forma_6-3" stroke="#000000" stroke-width="2" fill="#FFC828" stroke-linecap="round"></path>
                        </g>
                    </g>
                </g>
            </g>
        </g>
    </g>
</svg>