<?xml version="1.0" encoding="UTF-8"?>
<svg width="126px" height="142px" viewBox="0 0 126 142" version="1.1" xmlns="http://www.w3.org/2000/svg" xmlns:xlink="http://www.w3.org/1999/xlink">
    <title>icone__inscr</title>
    <g id="Desktop" stroke="none" stroke-width="1" fill="none" fill-rule="evenodd">
        <g id="12.01---Inscrição-passo-1" transform="translate(-260.000000, -189.000000)">
            <g id="header" transform="translate(-375.825800, 20.514319)">
                <g id="icone__inscr" transform="translate(636.325800, 169.467290)">
                    <path d="M42.1408667,127.25795 C33.6918667,127.317117 22.8762,127.376283 14.4272,127.436633 C14.5455333,129.658933 14.11835,134.04555 14.2366833,136.266667 C22.8525333,135.96965 86.2638167,132.233867 104.581817,131.540433 C104.733283,103.850433 104.88475,73.7937667 105.036217,46.1037667 C103.758217,48.7769167 107.7141,40.51015 107.7141,40.51015 C108.15687,40.8880277 108.454677,41.4079353 108.556633,41.9810333 C108.398067,71.0093833 108.2395,102.403217 108.0833,131.431567 C110.087867,131.600783 110.002667,134.834833 107.846633,134.917667 L50.52715,137.095 C54.5445667,136.943533 40.39545,136.7684 40.39545,136.7684 L15.6933667,137.61685 C14.934641,138.320507 13.7515303,138.284671 13.0367833,137.536383 C12.577111,137.274637 12.2541659,136.825738 12.1521312,136.306702 C12.0500965,135.787665 12.1790827,135.249923 12.5054667,134.83365 C12.3753,132.378628 12.2447389,129.923211 12.1137833,127.4674 L2.2436,127.537217 C1.42814452,127.504356 0.741482468,126.91687 0.582835386,126.116322 C0.424188303,125.315773 0.834906219,124.510816 1.5762,124.16945 C2.15248333,85.6034333 2.6625,47.0232167 1.207,8.4714 C0.416442774,8.18153631 -0.0616728584,7.3761269 0.062420243,6.54329883 C0.186513344,5.71047077 0.878662538,5.07943323 1.71938333,5.03263333 C33.4055,4.15105 66.2761333,2.08613333 97.9634333,1.20336667 C98.6889996,1.14807545 99.3540602,1.60872987 99.5573833,2.30741667 C99.9688042,2.61953391 100.204862,3.11058749 100.19165,3.62683333 C100.215317,6.23016667 99.0781333,13.7964 99.0781333,13.7964 C99.0781333,13.7964 95.6216167,19.69295 95.61925,19.3225667 C95.5861167,15.6447667 95.5529833,9.6003 95.51985,5.9225 C65.249,6.76503333 33.8587167,6.44671667 3.58668333,7.28925 C5.041,45.7984667 5.65278333,85.4945667 5.0765,124.0168 C31.4056667,123.823917 42.1408667,127.25795 42.1408667,127.25795 Z M65.0809667,126.70415 C75.29195,126.989333 87.8696,127.2757 98.0794,127.560883 C98.4479757,128.274413 99.2497254,128.65157 100.034407,128.480553 C100.819089,128.309536 101.391184,127.632958 101.429417,126.830767 C101.7572,62.8775167 101.19275,55.3041833 101.19275,55.3041833 L97.9161,62.20065 L99.1089,125.239183 C94.6796833,125.116117 64.88335,126.698233 65.0809667,126.70415 L65.0809667,126.70415 Z" id="pepl" fill="#882D8E"></path>
                    <path d="M18.0919833,33.4693167 C15.8519333,33.3261333 15.84365,29.82465 18.0919833,29.9678333 C58.7430333,32.5711667 72.5489833,33.6361667 76.7936,34.09175 C96.2712667,36.1980833 37.6430167,34.7224667 18.0919833,33.4693167 Z M42.0450167,19.8763667 L17.2056667,19.76395 C6.33201667,19.71425 25.1967167,16.29915 42.0450167,16.3760667 C42.9865659,16.4106963 43.7319806,17.1840308 43.7319806,18.1262167 C43.7319806,19.0684025 42.9865659,19.8417371 42.0450167,19.8763667 Z M68.5789,45.10385 C69.5204492,45.1384796 70.2658639,45.9118141 70.2658639,46.854 C70.2658639,47.7961859 69.5204492,48.5695204 68.5789,48.60415 L20.0350167,47.8716667 C0.3124,47.5793833 34.9651333,44.5985667 68.58245,45.10385 L68.5789,45.10385 Z M20.5852667,73.7559 C41.2936,72.9394 63.7307833,75.5533833 50.8087833,76.0645833 L20.5852667,77.2562 C18.3345667,77.34495 18.3452167,73.84465 20.5888167,73.7559 L20.5852667,73.7559 Z M21.4396333,103.416149 L34.4231667,103.534483 C40.9539833,103.592467 29.9880333,106.995733 21.4396333,106.921183 C20.8135194,106.920549 20.2353046,106.585935 19.9227969,106.043388 C19.6102891,105.50084 19.6109657,104.832785 19.9245719,104.290871 C20.238178,103.748958 20.8170694,103.415516 21.4431833,103.416149 L21.4396333,103.416149 Z M20.5876333,59.5144833 C46.6481833,58.7299333 74.14885,61.4078167 58.4117,61.88115 L20.5876333,63.0195167 C18.33575,63.0869667 18.3452167,59.5866667 20.5911833,59.5192167 L20.5876333,59.5144833 Z M99.06985,20.1651 C99.1794587,20.1946778 99.2915609,20.2140877 99.4047333,20.2230833 C100.0035,20.2656833 100.597928,20.3315556 101.188017,20.4207 C86.46025,48.7023667 71.4283667,78.9957 53.2287,105.2657 C52.9051284,105.676839 52.8375924,106.234011 53.0535667,106.71055 C50.0517003,108.137235 47.284526,110.012609 44.84715,112.272217 C63.0633833,80.1435333 81.4594833,49.2490667 99.0734,20.1698333 L99.06985,20.1651 Z M104.332133,21.9554833 C104.4599,21.7160806 104.530762,21.4504482 104.539217,21.1792167 C105.887033,21.5898333 106.007733,23.3151333 107.260883,23.9636 C107.223608,24.0122775 107.188852,24.0628326 107.15675,24.1150667 C91.4527333,52.6807333 74.49675,80.95885 62.3877,111.303067 C60.3630167,111.94325 57.35025,116.123967 55.6509833,117.3286 C55.6509833,117.3286 53.1127333,104.6906 54.46765,106.6786 C54.6629,106.553167 54.9599167,107.174417 55.11375,106.950767 C73.3477333,80.6405333 89.5795167,50.2915833 104.335683,21.9566667 L104.332133,21.9554833 Z M43.0828,125.104283 C43.4188667,120.97445 43.6022833,117.241033 43.8164667,113.7786 C43.9845,113.749017 45.5512333,114.260217 45.724,114.1762 L53.2866833,107.866667 C53.5553,109.989567 53.4050167,114.933533 53.67245,117.056433 C53.7044502,117.316988 53.7902839,117.568042 53.9245,117.79365 C54.1213299,118.378612 54.6025904,118.82301 55.201352,118.9727 C55.8001136,119.122391 56.4338836,118.956751 56.8828333,118.533233 C58.44957,117.016667 60.30729,115.833201 62.3439167,115.054233 L65.9400667,123.113917 L52.89855,130.915633 C51.2359667,127.558517 48.2859167,125.3587 43.08635,125.109017 L43.0828,125.104283 Z M101.421133,57.3407 C101.424389,57.0403601 101.348476,56.7444613 101.201033,56.4827833 C102.471933,53.8060833 105.038583,48.4657 105.038583,48.4657 L107.720017,42.8768167 C107.720017,42.8768167 118.494267,20.4609333 123.854767,9.25121667 C124.049283,8.86842743 124.091565,8.42616095 123.9731,8.01345 C124.468069,7.32845061 124.398662,6.38671615 123.808617,5.78168333 C119.455942,1.15531197 112.972435,-0.809073173 106.784,0.623533333 C106.028351,0.747368028 105.494399,1.43064175 105.556883,2.19381667 C105.436021,2.30557012 105.330568,2.43290996 105.2433,2.57248333 C103.18075,5.91185 99.0899667,12.60715 99.0899667,12.60715 L95.8949667,17.8718 C95.8949667,17.8718 68.9256167,65.4287833 43.1869333,112.687567 C42.9189431,113.140167 42.8914915,113.695839 43.1135667,114.17265 C43.0223934,114.375455 42.9690559,114.593216 42.9561833,114.8152 L41.1740833,123.755283 L40.4049167,136.762483 L40.2700167,138.875917 C40.1948276,139.502709 40.5356066,140.105663 41.1113667,140.36455 C41.6346922,141.033451 42.5812308,141.193942 43.2958,140.734933 L49.6858,136.911583 C49.9569056,137.005718 50.2387823,137.065354 50.5247833,137.089083 L71.4283667,123.315083 C71.4283667,123.315083 81.3103833,99.6342167 86.5750333,87.9334167 C86.5821333,87.9393333 86.5868667,87.9476167 86.59515,87.9535333 L87.8909,85.0082167 C91.1711,77.7733167 94.5128333,70.5652389 97.9161,63.3839833 M68.7007833,120.809967 L63.9366833,113.783333 C76.0504667,83.3361667 94.4666833,54.4628333 110.221583,25.81315 C110.549367,26.0498167 110.885433,26.27465 111.202567,26.53025 C111.312029,26.6186927 111.431114,26.6945105 111.557567,26.7562667 C96.5966833,57.7927333 81.5837333,88.8552333 68.7067,120.809967 L68.7007833,120.809967 Z M112.45335,25.0333333 C108.561375,22.1993682 104.327531,19.8675535 99.8520333,18.0930833 C100.4721,17.07305 101.076783,16.0447333 101.698033,15.0258833 C101.720517,15.0258833 101.73945,15.0377167 101.761933,15.0412667 C106.517131,15.6630964 110.881839,17.9992442 114.03665,21.6111333 C113.71715,22.2726167 112.771667,24.3730333 112.45335,25.0333333 Z M114.820017,20.3 C111.574133,16.9866667 107.55435,14.0472667 102.986683,13.2 C104.534483,10.6735833 106.742583,6.77805 108.29985,4.25636667 C108.374792,4.13639911 108.435549,4.00813445 108.4809,3.87415 C112.987033,3.11445 119.792383,3.3807 123.08915,6.50706667 C121.407633,10.02275 116.511,16.7866833 114.820017,20.3 Z" id="lapis" fill="#EC4359"></path>
                </g>
            </g>
        </g>
    </g>
</svg>