<?xml version="1.0" encoding="UTF-8"?>
<svg width="31px" height="37px" viewBox="0 0 31 37" version="1.1" xmlns="http://www.w3.org/2000/svg" xmlns:xlink="http://www.w3.org/1999/xlink">
    <title>plano</title>
    <g id="Desktop" stroke="none" stroke-width="1" fill="none" fill-rule="evenodd">
        <g id="11---Meus-Projetps" transform="translate(-973.000000, -224.000000)" fill="#FFD339">
            <g id="Shape-2" transform="translate(945.000000, 212.500000)">
                <path d="M58.0722561,46.6391716 C58.2939481,46.6313514 58.4739381,46.457377 58.4892872,46.2360788 C58.5046362,46.0147806 58.3503875,45.8176238 58.1318979,45.7792729 C58.1711558,38.620748 58.1683107,22.9001922 58.2113433,15.7416673 C58.1854694,15.5999983 57.3954259,16.4957919 57.2855884,16.4026507 L56.6189593,17.7819615 C56.5812113,24.6105692 56.4094382,38.2413236 56.3716902,45.0706862 C51.8094706,45.241307 35.4661097,46.71431 33.3205151,46.787541 C33.2910717,46.2394405 32.4145639,43.6763137 32.3836105,43.1244383 C34.4884373,43.1100941 37.1813775,43.0949949 39.2862042,43.0806507 C39.2862042,43.0806507 38.3741765,41.2098081 31.8173542,41.2558606 C31.9607965,31.7554516 31.6025641,24.347483 31.2401836,14.8500939 C38.779208,14.6424801 44.0021658,14.5063775 51.5419452,14.2987636 C51.5494948,15.2047149 52.9411547,25.934013 52.9494593,26.8407192 C52.9494593,26.9320693 53.4658515,15.0973259 53.4658515,15.0973259 C53.4658515,15.0973259 53.7489613,13.2310663 53.7436766,12.5893508 C53.7464572,12.4616542 53.6874123,12.3404717 53.5851351,12.2639633 C53.5334854,12.0912583 53.3685313,11.9778327 53.1887814,11.991423 C45.2964359,12.2096063 37.1081464,12.7184489 29.2188208,12.9358772 C29.0094158,12.9439573 28.8353237,13.0997543 28.8041381,13.3069818 C28.7729525,13.5142092 28.8934805,13.7143436 29.0912326,13.7836966 C29.4536131,23.2916552 29.32678,32.8086732 29.1833377,42.3211615 C28.9994259,42.4048263 28.8973679,42.6041431 28.9369927,42.8022673 C28.9766175,43.0003915 29.1474853,43.1451232 29.3494287,43.1516169 L31.8075765,43.1350078 C31.8402914,43.7389753 31.8730063,46.1722491 31.9057212,46.7792365 C31.8242246,46.8816665 31.7919073,47.0147583 31.8173542,47.1431564 C31.8428012,47.2715545 31.9234363,47.3822605 32.0378391,47.4458656 C32.2165326,47.6305696 32.5098501,47.6392754 32.6991836,47.4654946 C35.423832,47.3696147 53.314502,46.818097 58.0722561,46.6391716 Z M38.2042124,42.944758 C40.7470507,43.0149692 50.6740117,43.0859354 53.2174699,43.1561466 C53.3094314,43.3329736 53.5082786,43.4264756 53.703121,43.3845095 C53.8979633,43.3425435 54.0406871,43.1754723 54.0517,42.9764663 C54.1332356,27.2038547 53.9943231,25.3360852 53.9943231,25.3360852 L53.178212,27.0370087 L52.1944999,41.1857026 C51.0899943,41.1555042 38.15603,42.9432481 38.2042124,42.944758 Z M40.1151496,20.0468397 C38.0533556,20.0377802 35.1384573,19.5999037 33.0766632,19.5938641 C30.3686239,19.5817847 35.0941599,17.7477193 39.2902242,17.7665933 C39.851914,17.7665933 40.6760845,20.0468397 40.1151496,20.0468397 Z M46.1548248,23.3094153 C46.7157596,23.3177199 46.7157596,26.0872698 46.1548248,26.0865148 C42.0033406,26.1702727 37.8547669,25.8108917 33.7795304,25.0144725 C28.991578,23.9182714 37.7823251,23.184847 46.1548248,23.3094153 Z M33.918443,29.8869804 C39.0763255,29.6854062 50.8606425,30.7193179 47.6422506,30.8453961 C45.1335206,30.9435408 36.427173,32.4251529 33.918443,32.5232976 C33.3567532,32.5451914 33.359773,29.9081193 33.918443,29.8869804 Z M34.1313415,35.6918631 C35.2094235,35.7009227 48.3661008,35.7107371 49.4441828,35.7197966 C51.0703654,35.7341409 36.260327,38.4566807 34.1313415,38.4378067 C33.9000687,38.4281303 33.7175568,36.3547976 33.7175568,36.1233224 C33.7175568,35.8918472 33.9000687,35.7015395 34.1313415,35.6918631 Z" id="plano"></path>
            </g>
        </g>
    </g>
</svg>