<?xml version="1.0" encoding="UTF-8"?>
<svg width="40px" height="47px" viewBox="0 0 40 47" version="1.1" xmlns="http://www.w3.org/2000/svg" xmlns:xlink="http://www.w3.org/1999/xlink">
    <title>plano</title>
    <g id="Symbols" stroke="none" stroke-width="1" fill="none" fill-rule="evenodd">
        <g id="Projeto-inscrito" transform="translate(-33.000000, -18.000000)" fill="#BFD541">
            <g id="plano" transform="translate(33.212766, 18.500000)">
                <path d="M37.575,45.669 C37.8686476,45.6586414 38.1070578,45.4281995 38.1273888,45.1350735 C38.1477197,44.8419475 37.9434058,44.5807986 37.654,44.53 C37.706,35.048 36.754,16.792 36.811,7.31 C36.776728,7.12234892 36.678488,6.9523724 36.533,6.829 L35.65,8.656 C35.6,17.701 35.55,34.519 35.5,43.565 C29.457,43.791 8.842,44.558 6,44.655 C5.961,43.929 4.8,42.955 4.759,42.224 C7.547,42.205 11.114,42.185 13.902,42.166 C13.902,42.166 11.36,40.044 2.675,40.105 C2.865,27.521 2.663,16.554 2.183,3.974 C12.169,3.699 21.524,2.803 31.511,2.528 C31.521,3.728 31.989,19.454 32,20.655 C32,20.776 32.684,5.1 32.684,5.1 C32.684,5.1 33.059,2.628 33.052,1.778 C33.0556831,1.60885629 32.9774738,1.44834104 32.842,1.347 C32.7735861,1.11823924 32.5550922,0.967998634 32.317,0.986 C21.863,1.275 11.017,1.949 0.567,2.237 C0.289627447,2.24770264 0.059029573,2.45406749 0.0177219139,2.72855566 C-0.0235857452,3.00304383 0.136062565,3.26813673 0.398,3.36 C0.878,15.954 0.71,28.56 0.52,41.16 C0.27639513,41.2708201 0.141211671,41.5348302 0.193697727,41.7972605 C0.246183783,42.0596907 0.472510833,42.2513987 0.74,42.26 L3.996,42.238 C4.03933333,43.038 4.08266667,43.84 4.126,44.644 C4.01805163,44.7796762 3.9752449,44.9559662 4.00895129,45.1260391 C4.04265769,45.2961119 4.14946494,45.4427503 4.301,45.527 C4.53769283,45.7716542 4.92621375,45.7831856 5.177,45.553 C8.786,45.426 31.273,45.906 37.575,45.669 Z M12.4688211,41.986 C15.837,42.079 28.986,42.173 32.355,42.266 C32.4768099,42.5002205 32.7401979,42.6240708 32.9982811,42.5684837 C33.2563643,42.5128965 33.4454127,42.2915984 33.46,42.028 C33.568,21.136 33.384,18.662 33.384,18.662 L32.303,20.915 L31,39.656 C29.537,39.616 12.405,41.984 12.4688211,41.986 Z M15,11.656 C12.269,11.644 8.408,11.064 5.677,11.056 C2.09,11.04 8.313,9.924 13.871,9.949 C14.615,9.949 15.743,11.656 15,11.656 Z M22.624,17.33 C23.367,17.341 23.743,19.657 23,19.656 C17.5010497,19.7669436 12.0059546,19.2909166 6.608,18.236 C0.266,16.784 11.534,17.165 22.624,17.33 Z M6.792,24.69 C13.624,24.423 27.025,25.277 22.762,25.444 C19.439,25.574 10.115,26.703 6.792,26.833 C6.048,26.862 6.052,24.718 6.792,24.69 Z M7.074,32.379 C8.502,32.391 25.929,32.404 27.357,32.416 C29.511,32.435 9.894,33.547 7.074,33.522 C6.76766186,33.509183 6.52591129,33.2571061 6.52591129,32.9505 C6.52591129,32.6438939 6.76766186,32.391817 7.074,32.379 Z"></path>
            </g>
        </g>
    </g>
</svg>