<?xml version="1.0" encoding="UTF-8"?>
<svg width="46px" height="32px" viewBox="0 0 46 32" version="1.1" xmlns="http://www.w3.org/2000/svg" xmlns:xlink="http://www.w3.org/1999/xlink">
    <title>picture</title>
    <g id="Page-1" stroke="none" stroke-width="1" fill="none" fill-rule="evenodd">
        <g id="03.02---Inscrição" transform="translate(-425.000000, -987.000000)" fill="#000000" fill-rule="nonzero">
            <g id="Imagens" transform="translate(362.000000, 844.000000)">
                <g id="Group-6" transform="translate(0.000000, 87.000000)">
                    <g id="picture" transform="translate(63.000000, 56.000000)">
                        <path d="M44.516129,0 L1.48387097,0 C0.664351662,0 0,0.651222182 0,1.45454545 L0,30.5454545 C0,31.3487778 0.664351662,32 1.48387097,32 L44.516129,32 C45.3356483,32 46,31.3487778 46,30.5454545 L46,1.45454545 C46,0.651222182 45.3356483,0 44.516129,0 Z M44.516129,1.45454545 L44.516129,25.8814545 L28.7180968,10.3949091 C28.4283711,10.110995 27.9587257,10.110995 27.669,10.3949091 L20.7741935,17.1534545 L16.847129,13.304 C16.5574033,13.0200859 16.087758,13.0200859 15.7980323,13.304 L1.48387097,27.3352727 L1.48387097,1.45454545 L44.516129,1.45454545 Z M1.48387097,30.5454545 L1.48387097,29.392 L16.3225806,14.8465455 L24.7012581,23.0596364 C24.9923779,23.3352525 25.4551274,23.3313108 25.741317,23.0507771 C26.0275066,22.7702435 26.0315278,22.3166392 25.7503548,22.0312727 L21.8232903,18.1818182 L28.1935484,11.9374545 L44.516129,27.9374545 L44.516129,30.5454545 L1.48387097,30.5454545 Z" id="Shape"></path>
                        <path d="M16.5,11 C18.4329966,11 20,9.43299662 20,7.5 C20,5.56700338 18.4329966,4 16.5,4 C14.5670034,4 13,5.56700338 13,7.5 C13.0023143,9.43203721 14.5679628,10.9976857 16.5,11 L16.5,11 Z M16.5,5.4 C17.659798,5.4 18.6,6.34020203 18.6,7.5 C18.6,8.65979797 17.659798,9.6 16.5,9.6 C15.340202,9.6 14.4,8.65979797 14.4,7.5 C14.4,6.34020203 15.340202,5.4 16.5,5.4 Z" id="Shape"></path>
                    </g>
                </g>
            </g>
        </g>
    </g>
</svg>