<?xml version="1.0" encoding="UTF-8"?>
<svg width="26px" height="31px" viewBox="0 0 26 31" version="1.1" xmlns="http://www.w3.org/2000/svg" xmlns:xlink="http://www.w3.org/1999/xlink">
    <title>Agrupar_2</title>
    <g id="Symbols" stroke="none" stroke-width="1" fill="none" fill-rule="evenodd">
        <g id="Projeto-pendente" transform="translate(-88.000000, -27.000000)">
            <g id="Projeto-1">
                <g id="Agrupar_2" transform="translate(89.000000, 27.000000)">
                    <path d="M4.66666667,2 L16.3333333,2 C18.9106622,2 21,4.18017861 21,6.86956522 L21,25.1304348 C21,27.8198214 18.9106622,30 16.3333333,30 L4.66666667,30 C2.08933783,30 0,27.8198214 0,25.1304348 L0,6.86956522 C0,4.18017861 2.08933783,2 4.66666667,2 Z" id="Retângulo_Arredondado_2-3" stroke="#000000" stroke-width="2" fill="#FFFFFF"></path>
                    <rect id="Retângulo_Arredondado_2-4" fill="#F5644B" fill-rule="nonzero" style="mix-blend-mode: multiply;" x="4" y="0" width="21" height="28" rx="4"></rect>
                    <line x1="5" y1="12.5" x2="12" y2="12.5" id="Forma_6" stroke="#000000" stroke-width="2" fill="#FFC828" stroke-linecap="round"></line>
                    <line x1="5" y1="16.5" x2="17" y2="16.5" id="Forma_6-2" stroke="#000000" stroke-width="2" fill="#FFC828" stroke-linecap="round"></line>
                    <path d="M5,21.5 L8.6,21.5 M12.53,21.5 L17,21.5" id="Forma_6-3" stroke="#000000" stroke-width="2" fill="#FFC828" stroke-linecap="round"></path>
                </g>
            </g>
        </g>
    </g>
</svg>