<?xml version="1.0" encoding="UTF-8"?>
<svg width="17px" height="17px" viewBox="0 0 17 17" version="1.1" xmlns="http://www.w3.org/2000/svg" xmlns:xlink="http://www.w3.org/1999/xlink">
    <title>Shape</title>
    <g id="Page-1" stroke="none" stroke-width="1" fill="none" fill-rule="evenodd">
        <g id="03---Inscrição" transform="translate(-630.000000, -7411.000000)" fill="#000000" fill-rule="nonzero">
            <g id="Salvar" transform="translate(605.000000, 7395.000000)">
                <path d="M41.1697922,18.1377106 L39.8622894,16.8302078 C39.3310394,16.2981796 38.6106873,16 37.8590774,16 L26.9479599,16 C25.8719711,16 25,16.8719711 25,17.9479599 L25,31.0520401 C25,32.1280289 25.8719711,33 26.9479599,33 L40.0520401,33 C41.1280289,33 42,32.1280289 42,31.0520401 L42,20.1409226 C42,19.3893127 41.7018204,18.6689606 41.1697922,18.1377106 Z M28,20.4374914 L28,18.5625086 C28,18.2520028 28.2519989,18 28.5625,18 L36.4375,18 C36.7480011,18 37,18.2520028 37,18.5625086 L37,20.4374914 C37,20.7479972 36.7480011,21 36.4375,21 L28.5625,21 C28.2519989,21 28,20.7479972 28,20.4374914 Z M33.5,30 C31.5672811,30 30,28.4327189 30,26.5 C30,24.5671387 31.5672811,23 33.5,23 C35.4327189,23 37,24.5671387 37,26.5 C37,28.4327189 35.4327189,30 33.5,30 Z" id="Shape"></path>
            </g>
        </g>
    </g>
</svg>