<?xml version="1.0" encoding="UTF-8"?>
<svg width="61px" height="52px" viewBox="0 0 61 52" version="1.1" xmlns="http://www.w3.org/2000/svg" xmlns:xlink="http://www.w3.org/1999/xlink">
    <title>Fill 1</title>
    <g id="Desktop" stroke="none" stroke-width="1" fill="none" fill-rule="evenodd">
        <g id="12.01---Inscrição-passo-1" transform="translate(-484.000000, -769.000000)" fill="#EC4359">
            <g id="etapas" transform="translate(484.500000, 769.000000)">
                <path d="M25.3618302,5.32642416 C17.2774953,5.42978606 7.8363114,5.16212055 2.37963929,11.8931912 L2.37963929,11.8931912 C-6.53696801,22.8901808 11.3093909,46.8295149 27.6800047,51.0135809 L27.6800047,51.0135809 C30.250908,51.6707953 32.7327886,51.991038 35.0921884,52 L35.0921884,52 L35.2881578,52 C47.8481229,51.9533975 56.9015503,43.0361928 57.5121622,29.0034699 L57.5121622,29.0034699 C58.2386829,12.2689983 62.7113258,3.09727233 56.9308262,1.03302158 L56.9308262,1.03302158 C54.8707577,0.297538893 53.1637926,0 51.6049995,0 L51.6049995,0 C45.1386071,0 41.2353509,5.12328515 25.3618302,5.32642416" id="Fill-1"></path>
            </g>
        </g>
    </g>
</svg>