<?xml version="1.0" encoding="UTF-8"?>
<svg width="15px" height="17px" viewBox="0 0 15 17" version="1.1" xmlns="http://www.w3.org/2000/svg" xmlns:xlink="http://www.w3.org/1999/xlink">
    <title>Icons/Regular/trash-alt</title>
    <defs>
        <path d="M6.48214286,6.39713542 L6.48214286,13.0768229 C6.48214286,13.2817594 6.31123828,13.4479167 6.10044643,13.4479167 L5.33705357,13.4479167 C5.12626172,13.4479167 4.95535714,13.2817594 4.95535714,13.0768229 L4.95535714,6.39713542 C4.95535714,6.19219889 5.12626172,6.02604167 5.33705357,6.02604167 L6.10044643,6.02604167 C6.31123828,6.02604167 6.48214286,6.19219889 6.48214286,6.39713542 Z M9.66294643,6.02604167 L8.89955357,6.02604167 C8.68876172,6.02604167 8.51785714,6.19219889 8.51785714,6.39713542 L8.51785714,13.0768229 C8.51785714,13.2817594 8.68876172,13.4479167 8.89955357,13.4479167 L9.66294643,13.4479167 C9.87373828,13.4479167 10.0446429,13.2817594 10.0446429,13.0768229 L10.0446429,6.39713542 C10.0446429,6.19219889 9.87373828,6.02604167 9.66294643,6.02604167 Z M13.8616071,3.05729167 C14.2832227,3.05729167 14.625,3.3895752 14.625,3.79947917 L14.625,4.17057292 C14.625,4.37550944 14.4540954,4.54166667 14.2433036,4.54166667 L13.6071429,4.54166667 L13.6071429,14.9322917 C13.6071429,15.7520996 12.9235882,16.4166667 12.0803571,16.4166667 L2.91964286,16.4166667 C2.07641183,16.4166667 1.39285714,15.7520996 1.39285714,14.9322917 L1.39285714,4.54166667 L0.756696429,4.54166667 C0.545904576,4.54166667 0.375,4.37550944 0.375,4.17057292 L0.375,3.79947917 C0.375,3.3895752 0.716777344,3.05729167 1.13839286,3.05729167 L3.5052606,3.05729167 L4.58730636,1.3039974 C4.86323562,0.856894823 5.36021946,0.583333333 5.89652511,0.583333333 L9.1035067,0.583333333 C9.63981234,0.583333333 10.1367962,0.856894823 10.4127254,1.3039974 L11.4947394,3.05729167 L13.8616071,3.05729167 Z M5.28581083,3.05729167 L9.71422098,3.05729167 L9.15910714,2.15779134 C9.12461599,2.10190352 9.062493,2.06770833 8.9954548,2.06770833 L6.00460882,2.06770833 C5.93757061,2.06770833 5.87544763,2.10190352 5.84095647,2.15779134 L5.28581083,3.05729167 Z M12.0803571,4.54166667 L2.91964286,4.54166667 L2.91964286,14.7467448 C2.91964286,14.8492195 3.00508851,14.9322917 3.11049107,14.9322917 L11.8895089,14.9322917 C11.9949115,14.9322917 12.0803571,14.8492195 12.0803571,14.7467448 L12.0803571,4.54166667 Z" id="path-1"></path>
    </defs>
    <g id="Symbols" stroke="none" stroke-width="1" fill="none" fill-rule="evenodd">
        <g id="Projeto-pendente" transform="translate(-764.000000, -33.000000)">
            <g id="Projeto-1">
                <g id="Excluir" transform="translate(745.000000, 25.000000)">
                    <g id="Icons/Regular/trash-alt" transform="translate(19.000000, 8.000000)">
                        <mask id="mask-2" fill="white">
                            <use xlink:href="#path-1"></use>
                        </mask>
                        <use id="trash-alt" fill="#000000" fill-rule="nonzero" xlink:href="#path-1"></use>
                    </g>
                </g>
            </g>
        </g>
    </g>
</svg>