<svg xmlns="http://www.w3.org/2000/svg" width="29.001" height="21" viewBox="0 0 29.001 21"><path d="M14.5,21c-.091,0-9.094-.007-11.33-.627A3.626,3.626,0,0,1,.606,17.757,40.744,40.744,0,0,1,0,10.521,40.753,40.753,0,0,1,.606,3.285,3.7,3.7,0,0,1,3.17.628C5.406.007,14.41,0,14.5,0s9.093.007,11.329.629a3.7,3.7,0,0,1,2.565,2.657A40.753,40.753,0,0,1,29,10.521a40.744,40.744,0,0,1-.606,7.235,3.626,3.626,0,0,1-2.565,2.616C23.594,20.993,14.591,21,14.5,21ZM11,6h0v9l8-4.5L11,6Z" transform="translate(0 0)" fill="#fff"/></svg>