<?xml version="1.0" encoding="UTF-8"?>
<svg width="35px" height="96px" viewBox="0 0 35 96" version="1.1" xmlns="http://www.w3.org/2000/svg" xmlns:xlink="http://www.w3.org/1999/xlink">
    <title>Shape Copy</title>
    <g id="Page-1" stroke="none" stroke-width="1" fill="none" fill-rule="evenodd">
        <g id="09---Missão" transform="translate(-279.000000, -132.000000)" fill="#882D8E">
            <g id="Topo" transform="translate(-0.841484, 38.000000)">
                <path d="M342.341484,94.5 C343.722196,94.5 344.841484,95.6192881 344.841484,97 C344.841484,98.3807119 343.722196,99.5 342.341484,99.5 C340.960773,99.5 339.841484,98.3807119 339.841484,97 C339.841484,95.6192881 340.960773,94.5 342.341484,94.5 Z M342.341484,114.5 C340.960773,114.5 339.841484,113.380712 339.841484,112 C339.841484,110.619288 340.960773,109.5 342.341484,109.5 C343.722196,109.5 344.841484,110.619288 344.841484,112 C344.841484,113.380712 343.722196,114.5 342.341484,114.5 Z M342.341484,129.5 C340.960773,129.5 339.841484,128.380712 339.841484,127 C339.841484,125.619288 340.960773,124.5 342.341484,124.5 C343.722196,124.5 344.841484,125.619288 344.841484,127 C344.841484,128.380712 343.722196,129.5 342.341484,129.5 Z M342.341484,144.5 C340.960773,144.5 339.841484,143.380712 339.841484,142 C339.841484,140.619288 340.960773,139.5 342.341484,139.5 C343.722196,139.5 344.841484,140.619288 344.841484,142 C344.841484,143.380712 343.722196,144.5 342.341484,144.5 Z M342.341484,159.5 C340.960773,159.5 339.841484,158.380712 339.841484,157 C339.841484,155.619288 340.960773,154.5 342.341484,154.5 C343.722196,154.5 344.841484,155.619288 344.841484,157 C344.841484,158.380712 343.722196,159.5 342.341484,159.5 Z M327.341484,99.5 C325.960773,99.5 324.841484,98.3807119 324.841484,97 C324.841484,95.6192881 325.960773,94.5 327.341484,94.5 C328.722196,94.5 329.841484,95.6192881 329.841484,97 C329.841484,98.3807119 328.722196,99.5 327.341484,99.5 Z M327.341484,114.5 C325.960773,114.5 324.841484,113.380712 324.841484,112 C324.841484,110.619288 325.960773,109.5 327.341484,109.5 C328.722196,109.5 329.841484,110.619288 329.841484,112 C329.841484,113.380712 328.722196,114.5 327.341484,114.5 Z M327.341484,129.5 C325.960773,129.5 324.841484,128.380712 324.841484,127 C324.841484,125.619288 325.960773,124.5 327.341484,124.5 C328.722196,124.5 329.841484,125.619288 329.841484,127 C329.841484,128.380712 328.722196,129.5 327.341484,129.5 Z M327.341484,144.5 C325.960773,144.5 324.841484,143.380712 324.841484,142 C324.841484,140.619288 325.960773,139.5 327.341484,139.5 C328.722196,139.5 329.841484,140.619288 329.841484,142 C329.841484,143.380712 328.722196,144.5 327.341484,144.5 Z M327.341484,159.5 C325.960773,159.5 324.841484,158.380712 324.841484,157 C324.841484,155.619288 325.960773,154.5 327.341484,154.5 C328.722196,154.5 329.841484,155.619288 329.841484,157 C329.841484,158.380712 328.722196,159.5 327.341484,159.5 Z M312.341484,99.5 C310.960773,99.5 309.841484,98.3807119 309.841484,97 C309.841484,95.6192881 310.960773,94.5 312.341484,94.5 C313.722196,94.5 314.841484,95.6192881 314.841484,97 C314.841484,98.3807119 313.722196,99.5 312.341484,99.5 Z M312.341484,114.5 C310.960773,114.5 309.841484,113.380712 309.841484,112 C309.841484,110.619288 310.960773,109.5 312.341484,109.5 C313.722196,109.5 314.841484,110.619288 314.841484,112 C314.841484,113.380712 313.722196,114.5 312.341484,114.5 Z M312.341484,129.5 C310.960773,129.5 309.841484,128.380712 309.841484,127 C309.841484,125.619288 310.960773,124.5 312.341484,124.5 C313.722196,124.5 314.841484,125.619288 314.841484,127 C314.841484,128.380712 313.722196,129.5 312.341484,129.5 Z M312.341484,144.5 C310.960773,144.5 309.841484,143.380712 309.841484,142 C309.841484,140.619288 310.960773,139.5 312.341484,139.5 C313.722196,139.5 314.841484,140.619288 314.841484,142 C314.841484,143.380712 313.722196,144.5 312.341484,144.5 Z M312.341484,159.5 C310.960773,159.5 309.841484,158.380712 309.841484,157 C309.841484,155.619288 310.960773,154.5 312.341484,154.5 C313.722196,154.5 314.841484,155.619288 314.841484,157 C314.841484,158.380712 313.722196,159.5 312.341484,159.5 Z M297.341484,99.5 C295.960773,99.5 294.841484,98.3807119 294.841484,97 C294.841484,95.6192881 295.960773,94.5 297.341484,94.5 C298.722196,94.5 299.841484,95.6192881 299.841484,97 C299.841484,98.3807119 298.722196,99.5 297.341484,99.5 Z M297.341484,114.5 C295.960773,114.5 294.841484,113.380712 294.841484,112 C294.841484,110.619288 295.960773,109.5 297.341484,109.5 C298.722196,109.5 299.841484,110.619288 299.841484,112 C299.841484,113.380712 298.722196,114.5 297.341484,114.5 Z M297.341484,129.5 C295.960773,129.5 294.841484,128.380712 294.841484,127 C294.841484,125.619288 295.960773,124.5 297.341484,124.5 C298.722196,124.5 299.841484,125.619288 299.841484,127 C299.841484,128.380712 298.722196,129.5 297.341484,129.5 Z M297.341484,144.5 C295.960773,144.5 294.841484,143.380712 294.841484,142 C294.841484,140.619288 295.960773,139.5 297.341484,139.5 C298.722196,139.5 299.841484,140.619288 299.841484,142 C299.841484,143.380712 298.722196,144.5 297.341484,144.5 Z M297.341484,159.5 C295.960773,159.5 294.841484,158.380712 294.841484,157 C294.841484,155.619288 295.960773,154.5 297.341484,154.5 C298.722196,154.5 299.841484,155.619288 299.841484,157 C299.841484,158.380712 298.722196,159.5 297.341484,159.5 Z M342.341484,174.5 C340.960773,174.5 339.841484,173.380712 339.841484,172 C339.841484,170.619288 340.960773,169.5 342.341484,169.5 C343.722196,169.5 344.841484,170.619288 344.841484,172 C344.841484,173.380712 343.722196,174.5 342.341484,174.5 Z M327.341484,174.5 C325.960773,174.5 324.841484,173.380712 324.841484,172 C324.841484,170.619288 325.960773,169.5 327.341484,169.5 C328.722196,169.5 329.841484,170.619288 329.841484,172 C329.841484,173.380712 328.722196,174.5 327.341484,174.5 Z M312.341484,174.5 C310.960773,174.5 309.841484,173.380712 309.841484,172 C309.841484,170.619288 310.960773,169.5 312.341484,169.5 C313.722196,169.5 314.841484,170.619288 314.841484,172 C314.841484,173.380712 313.722196,174.5 312.341484,174.5 Z M297.341484,174.5 C295.960773,174.5 294.841484,173.380712 294.841484,172 C294.841484,170.619288 295.960773,169.5 297.341484,169.5 C298.722196,169.5 299.841484,170.619288 299.841484,172 C299.841484,173.380712 298.722196,174.5 297.341484,174.5 Z M342.341484,189.5 C340.960773,189.5 339.841484,188.380712 339.841484,187 C339.841484,185.619288 340.960773,184.5 342.341484,184.5 C343.722196,184.5 344.841484,185.619288 344.841484,187 C344.841484,188.380712 343.722196,189.5 342.341484,189.5 Z M327.341484,189.5 C325.960773,189.5 324.841484,188.380712 324.841484,187 C324.841484,185.619288 325.960773,184.5 327.341484,184.5 C328.722196,184.5 329.841484,185.619288 329.841484,187 C329.841484,188.380712 328.722196,189.5 327.341484,189.5 Z M312.341484,189.5 C310.960773,189.5 309.841484,188.380712 309.841484,187 C309.841484,185.619288 310.960773,184.5 312.341484,184.5 C313.722196,184.5 314.841484,185.619288 314.841484,187 C314.841484,188.380712 313.722196,189.5 312.341484,189.5 Z M297.341484,189.5 C295.960773,189.5 294.841484,188.380712 294.841484,187 C294.841484,185.619288 295.960773,184.5 297.341484,184.5 C298.722196,184.5 299.841484,185.619288 299.841484,187 C299.841484,188.380712 298.722196,189.5 297.341484,189.5 Z M282.341484,99.5 C280.960773,99.5 279.841484,98.3807119 279.841484,97 C279.841484,95.6192881 280.960773,94.5 282.341484,94.5 C283.722196,94.5 284.841484,95.6192881 284.841484,97 C284.841484,98.3807119 283.722196,99.5 282.341484,99.5 Z M282.341484,114.5 C280.960773,114.5 279.841484,113.380712 279.841484,112 C279.841484,110.619288 280.960773,109.5 282.341484,109.5 C283.722196,109.5 284.841484,110.619288 284.841484,112 C284.841484,113.380712 283.722196,114.5 282.341484,114.5 Z M282.341484,129.5 C280.960773,129.5 279.841484,128.380712 279.841484,127 C279.841484,125.619288 280.960773,124.5 282.341484,124.5 C283.722196,124.5 284.841484,125.619288 284.841484,127 C284.841484,128.380712 283.722196,129.5 282.341484,129.5 Z M282.341484,144.5 C280.960773,144.5 279.841484,143.380712 279.841484,142 C279.841484,140.619288 280.960773,139.5 282.341484,139.5 C283.722196,139.5 284.841484,140.619288 284.841484,142 C284.841484,143.380712 283.722196,144.5 282.341484,144.5 Z M282.341484,159.5 C280.960773,159.5 279.841484,158.380712 279.841484,157 C279.841484,155.619288 280.960773,154.5 282.341484,154.5 C283.722196,154.5 284.841484,155.619288 284.841484,157 C284.841484,158.380712 283.722196,159.5 282.341484,159.5 Z M282.341484,174.5 C280.960773,174.5 279.841484,173.380712 279.841484,172 C279.841484,170.619288 280.960773,169.5 282.341484,169.5 C283.722196,169.5 284.841484,170.619288 284.841484,172 C284.841484,173.380712 283.722196,174.5 282.341484,174.5 Z M282.341484,189.5 C280.960773,189.5 279.841484,188.380712 279.841484,187 C279.841484,185.619288 280.960773,184.5 282.341484,184.5 C283.722196,184.5 284.841484,185.619288 284.841484,187 C284.841484,188.380712 283.722196,189.5 282.341484,189.5 Z" id="Shape-Copy"></path>
            </g>
        </g>
    </g>
</svg>