<?xml version="1.0" encoding="UTF-8"?>
<svg width="220px" height="251px" viewBox="0 0 220 251" version="1.1" xmlns="http://www.w3.org/2000/svg" xmlns:xlink="http://www.w3.org/1999/xlink">
    <title>Group</title>
    <g id="Desktop" stroke="none" stroke-width="1" fill="none" fill-rule="evenodd">
        <g id="05---Meus-Grupos-&gt;-Criar-Grupo" transform="translate(-158.000000, -289.000000)" fill="#882D8E">
            <g id="Shape-4-Copy" transform="translate(37.933968, 463.528113) scale(-1, 1) rotate(26.000000) translate(-37.933968, -463.528113) translate(-387.066032, 99.528113)">
                <g id="Group" transform="translate(196.850210, 420.706307) rotate(-115.000000) translate(-196.850210, -420.706307) translate(97.350210, 388.206307)">
                    <path d="M181.5,-15 C182.880712,-15 184,-13.8807119 184,-12.5 C184,-11.1192881 182.880712,-10 181.5,-10 C180.119288,-10 179,-11.1192881 179,-12.5 C179,-13.8807119 180.119288,-15 181.5,-15 Z M181.5,5 C180.119288,5 179,3.88071187 179,2.5 C179,1.11928813 180.119288,1.67688086e-11 181.5,1.67688086e-11 C182.880712,1.67688086e-11 184,1.11928813 184,2.5 C184,3.88071187 182.880712,5 181.5,5 Z M181.5,20 C180.119288,20 179,18.8807119 179,17.5 C179,16.1192881 180.119288,15 181.5,15 C182.880712,15 184,16.1192881 184,17.5 C184,18.8807119 182.880712,20 181.5,20 Z M181.5,35 C180.119288,35 179,33.8807119 179,32.5 C179,31.1192881 180.119288,30 181.5,30 C182.880712,30 184,31.1192881 184,32.5 C184,33.8807119 182.880712,35 181.5,35 Z M181.5,50 C180.119288,50 179,48.8807119 179,47.5 C179,46.1192881 180.119288,45 181.5,45 C182.880712,45 184,46.1192881 184,47.5 C184,48.8807119 182.880712,50 181.5,50 Z M166.5,-10 C165.119288,-10 164,-11.1192881 164,-12.5 C164,-13.8807119 165.119288,-15 166.5,-15 C167.880712,-15 169,-13.8807119 169,-12.5 C169,-11.1192881 167.880712,-10 166.5,-10 Z M166.5,5 C165.119288,5 164,3.88071187 164,2.5 C164,1.11928813 165.119288,1.79625204e-11 166.5,1.79625204e-11 C167.880712,1.79625204e-11 169,1.11928813 169,2.5 C169,3.88071187 167.880712,5 166.5,5 Z M166.5,20 C165.119288,20 164,18.8807119 164,17.5 C164,16.1192881 165.119288,15 166.5,15 C167.880712,15 169,16.1192881 169,17.5 C169,18.8807119 167.880712,20 166.5,20 Z M166.5,35 C165.119288,35 164,33.8807119 164,32.5 C164,31.1192881 165.119288,30 166.5,30 C167.880712,30 169,31.1192881 169,32.5 C169,33.8807119 167.880712,35 166.5,35 Z M166.5,50 C165.119288,50 164,48.8807119 164,47.5 C164,46.1192881 165.119288,45 166.5,45 C167.880712,45 169,46.1192881 169,47.5 C169,48.8807119 167.880712,50 166.5,50 Z M151.5,-10 C150.119288,-10 149,-11.1192881 149,-12.5 C149,-13.8807119 150.119288,-15 151.5,-15 C152.880712,-15 154,-13.8807119 154,-12.5 C154,-11.1192881 152.880712,-10 151.5,-10 Z M151.5,5 C150.119288,5 149,3.88071187 149,2.5 C149,1.11928813 150.119288,1.11413101e-11 151.5,1.11413101e-11 C152.880712,1.11413101e-11 154,1.11928813 154,2.5 C154,3.88071187 152.880712,5 151.5,5 Z M151.5,20 C150.119288,20 149,18.8807119 149,17.5 C149,16.1192881 150.119288,15 151.5,15 C152.880712,15 154,16.1192881 154,17.5 C154,18.8807119 152.880712,20 151.5,20 Z M151.5,35 C150.119288,35 149,33.8807119 149,32.5 C149,31.1192881 150.119288,30 151.5,30 C152.880712,30 154,31.1192881 154,32.5 C154,33.8807119 152.880712,35 151.5,35 Z M151.5,50 C150.119288,50 149,48.8807119 149,47.5 C149,46.1192881 150.119288,45 151.5,45 C152.880712,45 154,46.1192881 154,47.5 C154,48.8807119 152.880712,50 151.5,50 Z M136.5,-10 C135.119288,-10 134,-11.1192881 134,-12.5 C134,-13.8807119 135.119288,-15 136.5,-15 C137.880712,-15 139,-13.8807119 139,-12.5 C139,-11.1192881 137.880712,-10 136.5,-10 Z M136.5,5 C135.119288,5 134,3.88071187 134,2.5 C134,1.11928813 135.119288,6.87805368e-12 136.5,6.87805368e-12 C137.880712,6.87805368e-12 139,1.11928813 139,2.5 C139,3.88071187 137.880712,5 136.5,5 Z M136.5,20 C135.119288,20 134,18.8807119 134,17.5 C134,16.1192881 135.119288,15 136.5,15 C137.880712,15 139,16.1192881 139,17.5 C139,18.8807119 137.880712,20 136.5,20 Z M136.5,35 C135.119288,35 134,33.8807119 134,32.5 C134,31.1192881 135.119288,30 136.5,30 C137.880712,30 139,31.1192881 139,32.5 C139,33.8807119 137.880712,35 136.5,35 Z M136.5,50 C135.119288,50 134,48.8807119 134,47.5 C134,46.1192881 135.119288,45 136.5,45 C137.880712,45 139,46.1192881 139,47.5 C139,48.8807119 137.880712,50 136.5,50 Z M181.5,65 C180.119288,65 179,63.8807119 179,62.5 C179,61.1192881 180.119288,60 181.5,60 C182.880712,60 184,61.1192881 184,62.5 C184,63.8807119 182.880712,65 181.5,65 Z M166.5,65 C165.119288,65 164,63.8807119 164,62.5 C164,61.1192881 165.119288,60 166.5,60 C167.880712,60 169,61.1192881 169,62.5 C169,63.8807119 167.880712,65 166.5,65 Z M151.5,65 C150.119288,65 149,63.8807119 149,62.5 C149,61.1192881 150.119288,60 151.5,60 C152.880712,60 154,61.1192881 154,62.5 C154,63.8807119 152.880712,65 151.5,65 Z M136.5,65 C135.119288,65 134,63.8807119 134,62.5 C134,61.1192881 135.119288,60 136.5,60 C137.880712,60 139,61.1192881 139,62.5 C139,63.8807119 137.880712,65 136.5,65 Z M181.5,80 C180.119288,80 179,78.8807119 179,77.5 C179,76.1192881 180.119288,75 181.5,75 C182.880712,75 184,76.1192881 184,77.5 C184,78.8807119 182.880712,80 181.5,80 Z M166.5,80 C165.119288,80 164,78.8807119 164,77.5 C164,76.1192881 165.119288,75 166.5,75 C167.880712,75 169,76.1192881 169,77.5 C169,78.8807119 167.880712,80 166.5,80 Z M151.5,80 C150.119288,80 149,78.8807119 149,77.5 C149,76.1192881 150.119288,75 151.5,75 C152.880712,75 154,76.1192881 154,77.5 C154,78.8807119 152.880712,80 151.5,80 Z M136.5,80 C135.119288,80 134,78.8807119 134,77.5 C134,76.1192881 135.119288,75 136.5,75 C137.880712,75 139,76.1192881 139,77.5 C139,78.8807119 137.880712,80 136.5,80 Z M121.5,-10 C120.119288,-10 119,-11.1192881 119,-12.5 C119,-13.8807119 120.119288,-15 121.5,-15 C122.880712,-15 124,-13.8807119 124,-12.5 C124,-11.1192881 122.880712,-10 121.5,-10 Z M121.5,5 C120.119288,5 119,3.88071187 119,2.5 C119,1.11928813 120.119288,9.69890834e-13 121.5,9.69890834e-13 C122.880712,9.69890834e-13 124,1.11928813 124,2.5 C124,3.88071187 122.880712,5 121.5,5 Z M121.5,20 C120.119288,20 119,18.8807119 119,17.5 C119,16.1192881 120.119288,15 121.5,15 C122.880712,15 124,16.1192881 124,17.5 C124,18.8807119 122.880712,20 121.5,20 Z M121.5,35 C120.119288,35 119,33.8807119 119,32.5 C119,31.1192881 120.119288,30 121.5,30 C122.880712,30 124,31.1192881 124,32.5 C124,33.8807119 122.880712,35 121.5,35 Z M121.5,50 C120.119288,50 119,48.8807119 119,47.5 C119,46.1192881 120.119288,45 121.5,45 C122.880712,45 124,46.1192881 124,47.5 C124,48.8807119 122.880712,50 121.5,50 Z M121.5,65 C120.119288,65 119,63.8807119 119,62.5 C119,61.1192881 120.119288,60 121.5,60 C122.880712,60 124,61.1192881 124,62.5 C124,63.8807119 122.880712,65 121.5,65 Z M121.5,80 C120.119288,80 119,78.8807119 119,77.5 C119,76.1192881 120.119288,75 121.5,75 C122.880712,75 124,76.1192881 124,77.5 C124,78.8807119 122.880712,80 121.5,80 Z" id="Shape" transform="translate(151.500000, 32.500000) rotate(-90.000000) translate(-151.500000, -32.500000) "></path>
                    <path d="M77.5,-15 C78.8807119,-15 80,-13.8807119 80,-12.5 C80,-11.1192881 78.8807119,-10 77.5,-10 C76.1192881,-10 75,-11.1192881 75,-12.5 C75,-13.8807119 76.1192881,-15 77.5,-15 Z M77.5,5 C76.1192881,5 75,3.88071187 75,2.5 C75,1.11928813 76.1192881,1.67688086e-11 77.5,1.67688086e-11 C78.8807119,1.67688086e-11 80,1.11928813 80,2.5 C80,3.88071187 78.8807119,5 77.5,5 Z M77.5,20 C76.1192881,20 75,18.8807119 75,17.5 C75,16.1192881 76.1192881,15 77.5,15 C78.8807119,15 80,16.1192881 80,17.5 C80,18.8807119 78.8807119,20 77.5,20 Z M77.5,35 C76.1192881,35 75,33.8807119 75,32.5 C75,31.1192881 76.1192881,30 77.5,30 C78.8807119,30 80,31.1192881 80,32.5 C80,33.8807119 78.8807119,35 77.5,35 Z M77.5,50 C76.1192881,50 75,48.8807119 75,47.5 C75,46.1192881 76.1192881,45 77.5,45 C78.8807119,45 80,46.1192881 80,47.5 C80,48.8807119 78.8807119,50 77.5,50 Z M62.5,-10 C61.1192881,-10 60,-11.1192881 60,-12.5 C60,-13.8807119 61.1192881,-15 62.5,-15 C63.8807119,-15 65,-13.8807119 65,-12.5 C65,-11.1192881 63.8807119,-10 62.5,-10 Z M62.5,5 C61.1192881,5 60,3.88071187 60,2.5 C60,1.11928813 61.1192881,1.79625204e-11 62.5,1.79625204e-11 C63.8807119,1.79625204e-11 65,1.11928813 65,2.5 C65,3.88071187 63.8807119,5 62.5,5 Z M62.5,20 C61.1192881,20 60,18.8807119 60,17.5 C60,16.1192881 61.1192881,15 62.5,15 C63.8807119,15 65,16.1192881 65,17.5 C65,18.8807119 63.8807119,20 62.5,20 Z M62.5,35 C61.1192881,35 60,33.8807119 60,32.5 C60,31.1192881 61.1192881,30 62.5,30 C63.8807119,30 65,31.1192881 65,32.5 C65,33.8807119 63.8807119,35 62.5,35 Z M62.5,50 C61.1192881,50 60,48.8807119 60,47.5 C60,46.1192881 61.1192881,45 62.5,45 C63.8807119,45 65,46.1192881 65,47.5 C65,48.8807119 63.8807119,50 62.5,50 Z M47.5,-10 C46.1192881,-10 45,-11.1192881 45,-12.5 C45,-13.8807119 46.1192881,-15 47.5,-15 C48.8807119,-15 50,-13.8807119 50,-12.5 C50,-11.1192881 48.8807119,-10 47.5,-10 Z M47.5,5 C46.1192881,5 45,3.88071187 45,2.5 C45,1.11928813 46.1192881,1.11413101e-11 47.5,1.11413101e-11 C48.8807119,1.11413101e-11 50,1.11928813 50,2.5 C50,3.88071187 48.8807119,5 47.5,5 Z M47.5,20 C46.1192881,20 45,18.8807119 45,17.5 C45,16.1192881 46.1192881,15 47.5,15 C48.8807119,15 50,16.1192881 50,17.5 C50,18.8807119 48.8807119,20 47.5,20 Z M47.5,35 C46.1192881,35 45,33.8807119 45,32.5 C45,31.1192881 46.1192881,30 47.5,30 C48.8807119,30 50,31.1192881 50,32.5 C50,33.8807119 48.8807119,35 47.5,35 Z M47.5,50 C46.1192881,50 45,48.8807119 45,47.5 C45,46.1192881 46.1192881,45 47.5,45 C48.8807119,45 50,46.1192881 50,47.5 C50,48.8807119 48.8807119,50 47.5,50 Z M32.5,-10 C31.1192881,-10 30,-11.1192881 30,-12.5 C30,-13.8807119 31.1192881,-15 32.5,-15 C33.8807119,-15 35,-13.8807119 35,-12.5 C35,-11.1192881 33.8807119,-10 32.5,-10 Z M32.5,5 C31.1192881,5 30,3.88071187 30,2.5 C30,1.11928813 31.1192881,6.87805368e-12 32.5,6.87805368e-12 C33.8807119,6.87805368e-12 35,1.11928813 35,2.5 C35,3.88071187 33.8807119,5 32.5,5 Z M32.5,20 C31.1192881,20 30,18.8807119 30,17.5 C30,16.1192881 31.1192881,15 32.5,15 C33.8807119,15 35,16.1192881 35,17.5 C35,18.8807119 33.8807119,20 32.5,20 Z M32.5,35 C31.1192881,35 30,33.8807119 30,32.5 C30,31.1192881 31.1192881,30 32.5,30 C33.8807119,30 35,31.1192881 35,32.5 C35,33.8807119 33.8807119,35 32.5,35 Z M32.5,50 C31.1192881,50 30,48.8807119 30,47.5 C30,46.1192881 31.1192881,45 32.5,45 C33.8807119,45 35,46.1192881 35,47.5 C35,48.8807119 33.8807119,50 32.5,50 Z M77.5,65 C76.1192881,65 75,63.8807119 75,62.5 C75,61.1192881 76.1192881,60 77.5,60 C78.8807119,60 80,61.1192881 80,62.5 C80,63.8807119 78.8807119,65 77.5,65 Z M62.5,65 C61.1192881,65 60,63.8807119 60,62.5 C60,61.1192881 61.1192881,60 62.5,60 C63.8807119,60 65,61.1192881 65,62.5 C65,63.8807119 63.8807119,65 62.5,65 Z M47.5,65 C46.1192881,65 45,63.8807119 45,62.5 C45,61.1192881 46.1192881,60 47.5,60 C48.8807119,60 50,61.1192881 50,62.5 C50,63.8807119 48.8807119,65 47.5,65 Z M32.5,65 C31.1192881,65 30,63.8807119 30,62.5 C30,61.1192881 31.1192881,60 32.5,60 C33.8807119,60 35,61.1192881 35,62.5 C35,63.8807119 33.8807119,65 32.5,65 Z M77.5,80 C76.1192881,80 75,78.8807119 75,77.5 C75,76.1192881 76.1192881,75 77.5,75 C78.8807119,75 80,76.1192881 80,77.5 C80,78.8807119 78.8807119,80 77.5,80 Z M62.5,80 C61.1192881,80 60,78.8807119 60,77.5 C60,76.1192881 61.1192881,75 62.5,75 C63.8807119,75 65,76.1192881 65,77.5 C65,78.8807119 63.8807119,80 62.5,80 Z M47.5,80 C46.1192881,80 45,78.8807119 45,77.5 C45,76.1192881 46.1192881,75 47.5,75 C48.8807119,75 50,76.1192881 50,77.5 C50,78.8807119 48.8807119,80 47.5,80 Z M32.5,80 C31.1192881,80 30,78.8807119 30,77.5 C30,76.1192881 31.1192881,75 32.5,75 C33.8807119,75 35,76.1192881 35,77.5 C35,78.8807119 33.8807119,80 32.5,80 Z M17.5,-10 C16.1192881,-10 15,-11.1192881 15,-12.5 C15,-13.8807119 16.1192881,-15 17.5,-15 C18.8807119,-15 20,-13.8807119 20,-12.5 C20,-11.1192881 18.8807119,-10 17.5,-10 Z M17.5,5 C16.1192881,5 15,3.88071187 15,2.5 C15,1.11928813 16.1192881,9.69890834e-13 17.5,9.69890834e-13 C18.8807119,9.69890834e-13 20,1.11928813 20,2.5 C20,3.88071187 18.8807119,5 17.5,5 Z M17.5,20 C16.1192881,20 15,18.8807119 15,17.5 C15,16.1192881 16.1192881,15 17.5,15 C18.8807119,15 20,16.1192881 20,17.5 C20,18.8807119 18.8807119,20 17.5,20 Z M17.5,35 C16.1192881,35 15,33.8807119 15,32.5 C15,31.1192881 16.1192881,30 17.5,30 C18.8807119,30 20,31.1192881 20,32.5 C20,33.8807119 18.8807119,35 17.5,35 Z M17.5,50 C16.1192881,50 15,48.8807119 15,47.5 C15,46.1192881 16.1192881,45 17.5,45 C18.8807119,45 20,46.1192881 20,47.5 C20,48.8807119 18.8807119,50 17.5,50 Z M17.5,65 C16.1192881,65 15,63.8807119 15,62.5 C15,61.1192881 16.1192881,60 17.5,60 C18.8807119,60 20,61.1192881 20,62.5 C20,63.8807119 18.8807119,65 17.5,65 Z M17.5,80 C16.1192881,80 15,78.8807119 15,77.5 C15,76.1192881 16.1192881,75 17.5,75 C18.8807119,75 20,76.1192881 20,77.5 C20,78.8807119 18.8807119,80 17.5,80 Z" id="Shape-Copy-2" transform="translate(47.500000, 32.500000) rotate(-90.000000) translate(-47.500000, -32.500000) "></path>
                </g>
            </g>
        </g>
    </g>
</svg>