<?xml version="1.0" encoding="UTF-8"?>
<svg width="875px" height="762px" viewBox="0 0 875 762" version="1.1" xmlns="http://www.w3.org/2000/svg" xmlns:xlink="http://www.w3.org/1999/xlink">
    <title>Fill 1 Copy 4</title>
    <g id="Desktop" stroke="none" stroke-width="1" fill="none" fill-rule="evenodd">
        <g id="09---Mssao" transform="translate(-1298.000000, -301.000000)" stroke="#EC4359" stroke-width="4">
            <g id="Fill-1-Copy-4" transform="translate(1300.410714, 303.000000)">
                <path d="M497.839576,619.295681 C475.389008,603.313179 445.862876,591.294802 415.829413,594.392989 C384.377082,597.620656 360.976729,617.143387 339.719118,635.279463 C320.551887,651.682733 300.951507,669.323257 275.023077,677.85606 C254.757612,684.51466 232.814739,684.481927 211.957538,679.77537 C160.206697,668.05995 112.533321,636.115298 82.1902303,600.434651 C2.34757898,506.547135 -19.8545021,284.50256 17.910615,138.894867 C39.7782952,54.5815452 146.697082,-28.4557878 261.386452,9.42286555 C308.145696,24.8749767 346.742735,53.4191812 392.739296,70.0946527 C417.907933,79.2243972 444.69209,83.8933317 472.086876,80.6337872 C500.73429,77.2423656 527.392797,66.9279651 553.065192,55.9600883 C601.161491,35.3030535 647.39237,13.66247 702.639929,11.6617131 C753.192569,9.84178659 804.688616,24.104907 837.73581,57.6527572 C868.867407,89.2628027 880.095254,132.709816 859.417411,170.870264 C847.2411,193.401473 827.438404,211.977636 810.781439,232.102495 C792.870321,253.805552 780.832721,277.676391 775.43675,303.801158 C754.568886,404.758 818.341133,499.840016 819.963353,599.775238 C820.679275,646.634862 806.652632,697.986896 764.033661,730.540468 C726.23894,759.341905 672.675509,766.524934 628.482654,744.068323 C570.178906,714.431052 548.560166,655.42985 497.839576,619.295681 Z" id="Fill-1-Copy" transform="translate(434.959662, 378.651305) scale(-1, 1) translate(-434.959662, -378.651305) "></path>
            </g>
        </g>
    </g>
</svg>