<?xml version="1.0" encoding="UTF-8"?>
<svg width="526px" height="515px" viewBox="0 0 526 515" version="1.1" xmlns="http://www.w3.org/2000/svg" xmlns:xlink="http://www.w3.org/1999/xlink">
    <title>Group 8</title>
    <g id="Desktop" stroke="none" stroke-width="1" fill="none" fill-rule="evenodd">
        <g id="09---Mssao" transform="translate(193.000000, -801.000000)">
            <g id="Form" transform="translate(-192.000000, 801.000000)">
                <g id="Group-8" transform="translate(0.663510, 0.000000)">
                    <path d="M349.827817,0 C272.978054,0.466277228 227.309342,122.525089 143.634074,171.96701 L143.634074,171.96701 C85.432094,206.359089 79.2249851,279.925069 159.179955,306.674832 L159.179955,306.674832 C189.478054,316.810574 206.455837,309.766812 230.593124,302.719743 L230.593124,302.719743 C256.14247,295.262614 289.717738,287.798871 355.611639,300.722356 L355.611639,300.722356 C387.817837,307.038594 456.856629,344.942634 492.171342,330.501267 L492.171342,330.501267 C514.939559,321.195564 523.401995,292.570772 523.468134,258.886376 L523.468134,258.886376 L523.468134,258.148931 C523.392074,213.224277 508.524114,159.509802 492.799658,130.584079 L492.799658,130.584079 C474.538787,97.0088119 435.708807,1.2070297 351.312629,0.00661386139 L351.312629,0.00661386139 C351.11752,0 350.91249,0 350.717381,0 L350.717381,0 L349.827817,0 Z" id="Fill-1" fill="#BFD541"></path>
                    <path d="M255.289005,97.6721286 C178.439242,98.1384059 132.77053,220.197218 49.0952622,269.639139 L49.0952622,269.639139 C-9.106718,304.031218 -15.3138269,377.597198 64.6411434,404.34696 L64.6411434,404.34696 C94.9392424,414.482703 111.917025,407.438941 136.054312,400.391871 L136.054312,400.391871 C161.603658,392.934742 195.178926,385.471 261.072827,398.394485 L261.072827,398.394485 C293.279025,404.710723 362.317817,442.614762 397.63253,428.173396 L397.63253,428.173396 C420.400747,418.867693 428.863183,390.242901 428.929322,356.558505 L428.929322,356.558505 L428.929322,355.821059 C428.853262,310.896406 413.985302,257.181931 398.260846,228.256208 L398.260846,228.256208 C379.999975,194.680941 341.169995,98.8791583 256.773817,97.6787425 L256.773817,97.6787425 C256.578708,97.6721286 256.373678,97.6721286 256.178569,97.6721286 L256.178569,97.6721286 L255.289005,97.6721286 Z" id="Fill-1-Copy-2" stroke="#EC4359" stroke-width="4" transform="translate(216.964661, 264.550770) rotate(-105.000000) translate(-216.964661, -264.550770) "></path>
                </g>
            </g>
        </g>
    </g>
</svg>