<?xml version="1.0" encoding="UTF-8"?>
<svg width="94px" height="353px" viewBox="0 0 94 353" version="1.1" xmlns="http://www.w3.org/2000/svg" xmlns:xlink="http://www.w3.org/1999/xlink">
    <title>Fill 1</title>
    <g id="Page-1" stroke="none" stroke-width="1" fill="none" fill-rule="evenodd">
        <g id="09---Missão" transform="translate(-226.000000, -91.000000)" fill="#55C7DF">
            <g id="Topo" transform="translate(-0.841484, 38.000000)">
                <path d="M346.289839,64.5944164 C345.089326,64.5944164 343.929141,64.6130385 342.799976,64.6471791 L342.799976,64.6471791 C314.856259,65.4696573 237.263432,64.5757943 190.986304,120.529136 L190.986304,120.529136 C170.872287,144.849659 163.656802,178.304344 163.616475,210.713086 L163.616475,210.713086 L163.616475,211.324513 C163.669211,247.383196 172.562932,282.063839 182.393486,301.325346 L182.393486,301.325346 C204.471132,344.547347 248.409277,400.171697 315.821013,380.528437 L315.821013,380.528437 C373.665872,363.669187 348.631924,301.222924 359.014653,270.257398 L359.014653,270.257398 C369.397382,239.291873 384.420852,208.326348 410.51882,188.701709 L410.51882,188.701709 C433.942777,171.091366 503.926154,167.708343 510.989635,137.785658 L510.989635,137.785658 C521.372364,93.8001489 400.080253,64.6658013 346.798583,64.5944164 L346.798583,64.5944164 L346.289839,64.5944164 Z" id="Fill-1" transform="translate(337.616475, 224.594416) rotate(-209.000000) translate(-337.616475, -224.594416) "></path>
            </g>
        </g>
    </g>
</svg>