<?xml version="1.0" encoding="UTF-8"?>
<svg width="319px" height="557px" viewBox="0 0 319 557" version="1.1" xmlns="http://www.w3.org/2000/svg" xmlns:xlink="http://www.w3.org/1999/xlink">
    <title>Fill 1</title>
    <g id="Desktop" stroke="none" stroke-width="1" fill="none" fill-rule="evenodd">
        <g id="09---Mssao" transform="translate(0.000000, -138.000000)" fill="#55C7DF">
            <g id="Título" transform="translate(-244.000000, 44.000000)">
                <path d="M355.312823,114.094416 C353.484856,114.094416 351.718293,114.122757 349.998965,114.174715 L349.998965,114.174715 C307.450309,115.426424 189.30316,114.066076 118.839035,199.220068 L118.839035,199.220068 C88.2123164,236.232864 77.2256187,287.146713 77.1642141,336.468767 L77.1642141,336.468767 L77.1642141,337.399283 C77.2445125,392.27609 90.7865856,445.055694 105.755135,474.369299 L105.755135,474.369299 C139.371784,540.147782 206.274444,624.801091 308.919296,594.906504 L308.919296,594.906504 C396.997091,569.248833 358.879013,474.213426 374.688332,427.087767 L374.688332,427.087767 C390.497652,379.962108 413.373222,332.836449 453.111437,302.970203 L453.111437,302.970203 C488.778055,276.169462 595.338631,271.020924 606.093881,225.482337 L606.093881,225.482337 C621.9032,158.541891 437.217096,114.203055 356.087466,114.094416 L356.087466,114.094416 L355.312823,114.094416 Z" id="Fill-1" transform="translate(342.106278, 357.594416) scale(-1, 1) rotate(-255.000000) translate(-342.106278, -357.594416) "></path>
            </g>
        </g>
    </g>
</svg>