<?xml version="1.0" encoding="UTF-8"?>
<svg width="240px" height="190px" viewBox="0 0 240 190" version="1.1" xmlns="http://www.w3.org/2000/svg" xmlns:xlink="http://www.w3.org/1999/xlink">
    <title>Group 9</title>
    <g id="Page-1" stroke="none" stroke-width="1" fill="none" fill-rule="evenodd">
        <g id="09---Missão" transform="translate(149.000000, -789.000000)">
            <g id="Form" transform="translate(-147.000000, 791.000000)">
                <g id="Group-9" transform="translate(0.236703, 0.161554)">
                    <path d="M162.955149,24.4425462 C130.486492,24.6395309 111.19168,76.2048252 75.8392799,97.0921922 C51.249222,111.621563 48.6267482,142.700445 82.4073402,154.001221 C95.208142,158.283194 102.381174,155.307468 112.579062,152.330344 C123.373538,149.179985 137.558928,146.026832 165.398786,151.486523 C179.00575,154.154897 208.174309,170.16794 223.094606,164.067001 C232.714069,160.135689 236.289408,148.042782 236.317351,133.812382 L236.317351,133.500839 C236.285216,114.521848 230.003574,91.8294866 223.360067,79.6094479 C215.644936,65.42515 199.239456,24.9524712 163.582475,24.4453403 C163.500042,24.4425462 163.413418,24.4425462 163.330985,24.4425462 L162.955149,24.4425462 Z" id="Fill-1" fill="#BFD541"></path>
                    <path d="M24.4907829,102.646572 C32.7560265,127.241033 85.4666824,131.396425 113.67255,153.972203 L113.67255,153.972203 C133.292395,169.675077 162.819615,165.346045 164.910012,137.418551 L164.910012,137.418551 C165.701832,126.835788 161.151636,121.998494 155.847182,114.866475 L155.847182,114.866475 C150.233277,107.317035 143.772695,97.1954217 141.915112,74.9628313 L141.915112,74.9628313 C141.007114,64.0964852 148.623577,38.7101515 139.241363,28.6302748 L139.241363,28.6302748 C133.194387,22.1311156 121.069255,21.8770939 107.841277,24.7491206 L107.841277,24.7491206 L107.551832,24.8124614 C89.927041,28.6955211 70.4079252,38.0751633 60.7083961,45.6001975 L60.7083961,45.6001975 C49.4506879,54.33765 15.9324997,75.0133896 24.3372223,102.170041 L24.3372223,102.170041 C24.3564438,102.232868 24.3767086,102.298875 24.3972281,102.361418 L24.3972281,102.361418 L24.4907829,102.646572 Z" id="Fill-1-Copy-2" stroke="#EC4359" stroke-width="3" transform="translate(94.000000, 93.000000) rotate(-24.000000) translate(-94.000000, -93.000000) "></path>
                </g>
            </g>
        </g>
    </g>
</svg>