<?xml version="1.0" encoding="UTF-8"?>
<svg width="358px" height="259px" viewBox="0 0 358 259" version="1.1" xmlns="http://www.w3.org/2000/svg" xmlns:xlink="http://www.w3.org/1999/xlink">
    <title>Group 5</title>
    <g id="Page-1" stroke="none" stroke-width="1" fill="none" fill-rule="evenodd">
        <g id="12.1---Inscrição---Passo-1" transform="translate(26.000000, -716.000000)">
            <g id="Topo" transform="translate(-211.695414, 63.000000)">
                <g id="Group-13" transform="translate(187.000000, 652.485681)">
                    <g id="Group-5" transform="translate(0.060239, 0.514319)">
                        <path d="M254.20173,7.77473226 C232.667032,3.47169736 208.971535,0.830333089 183.451408,0.381926229 C94.6866714,-2.00387901 3.56423946,26.7658886 21.9041294,103.418251 C4.91876591,153 -28.8293477,156.403614 56.2364603,216 C77.5306944,230.918855 240.924343,292.44261 228.442545,202.5 C215.960747,112.55739 327.333031,219.068532 353.630187,98 C355.190993,101.838275 355.190993,100.350803 353.630187,93.5375823 C345.895438,59.755661 331.29367,23.3242197 254.821261,7.89910226 L254.20173,7.77473226 Z" id="Fill-1" fill="#FFD339"></path>
                        <path d="M254.20173,14.7747323 C232.667032,10.4716974 208.971535,7.83033309 183.451408,7.38192623 C94.6866714,4.99612099 3.56423946,33.7658886 21.9041294,110.418251 C4.91876591,160 -28.8293477,163.403614 56.2364603,223 C77.5306944,237.918855 240.924343,299.44261 228.442545,209.5 C215.960747,119.55739 327.333031,226.068532 353.630187,105 C355.190993,108.838275 355.190993,107.350803 353.630187,100.537582 C345.895438,66.755661 331.29367,30.3242197 254.821261,14.8991023 L254.20173,14.7747323 Z" id="Fill-1" stroke="#EC4359" stroke-width="3"></path>
                    </g>
                </g>
            </g>
        </g>
    </g>
</svg>