<?xml version="1.0" encoding="UTF-8"?>
<svg width="958px" height="1340px" viewBox="0 0 958 1340" version="1.1" xmlns="http://www.w3.org/2000/svg" xmlns:xlink="http://www.w3.org/1999/xlink">
    <title>Group 16</title>
    <g id="Desktop" stroke="none" stroke-width="1" fill="none" fill-rule="evenodd">
        <g id="12.01---Inscrição-passo-1" transform="translate(-1315.000000, -1079.000000)">
            <g id="Group-16" transform="translate(1317.000000, 1080.061112)">
                <path d="M870.098047,1129.1264 C734.186866,1200.80958 560.079263,1090.24281 283.659561,1146.97342 L283.659561,1146.97342 C84.5336298,1187.84097 -39.4159078,1123.19356 -98.8456499,1022.32295 L-98.8456499,1022.32295 L-101.343859,1017.99452 C-186.433634,867.450179 -131.003623,639.987223 30.5357483,559.194841 L30.5357483,559.194841 C231.743377,458.541501 509.976229,536.768994 723.592275,362.872087 L723.592275,362.872087 C984.324212,150.627362 1158.44157,273.453621 1073.1125,420.716778 L1073.1125,420.716778 C890.918339,735.140819 1138.85421,974.295641 884.082847,1121.41592 L884.082847,1121.41592 C879.585788,1124.01314 874.909575,1126.58514 870.098047,1129.1264" id="Fill-1" fill="#FFD339" transform="translate(477.000000, 704.201665) rotate(-272.000000) translate(-477.000000, -704.201665) "></path>
                <path d="M870.098047,1059.1264 C734.186866,1130.80958 560.079263,1020.24281 283.659561,1076.97342 L283.659561,1076.97342 C84.5336298,1117.84097 -39.4159078,1053.19356 -98.8456499,952.322946 L-98.8456499,952.322946 L-101.343859,947.994516 C-186.433634,797.450179 -131.003623,569.987223 30.5357483,489.194841 L30.5357483,489.194841 C231.743377,388.541501 509.976229,466.768994 723.592275,292.872087 L723.592275,292.872087 C984.324212,80.6273616 1158.44157,203.453621 1073.1125,350.716778 L1073.1125,350.716778 C890.918339,665.140819 1138.85421,904.295641 884.082847,1051.41592 L884.082847,1051.41592 C879.585788,1054.01314 874.909575,1056.58514 870.098047,1059.1264" id="Fill-1-Copy-6" stroke="#882D8E" stroke-width="3" transform="translate(477.000000, 634.201665) rotate(-272.000000) translate(-477.000000, -634.201665) "></path>
            </g>
        </g>
    </g>
</svg>