<?xml version="1.0" encoding="UTF-8"?>
<svg width="283px" height="477px" viewBox="0 0 283 477" version="1.1" xmlns="http://www.w3.org/2000/svg" xmlns:xlink="http://www.w3.org/1999/xlink">
    <title>Fill 1</title>
    <g id="Desktop" stroke="none" stroke-width="1" fill="none" fill-rule="evenodd">
        <g id="12.01---Inscrição-passo-1" transform="translate(0.000000, -3604.000000)" stroke="#FF8328" stroke-width="3">
            <path d="M-144.21927,3900.11565 C-161.561656,3939.56058 -168.785559,3972.21664 -168.835754,3998.55231 L-168.835754,3999.1421 C-168.639157,4091.11196 -80.5635909,4105.43846 -31.2134992,4061.94446 C32.3292405,4005.94771 67.3235503,3822.47647 171.474079,3821.51858 C255.408554,3820.74892 285.521396,3798.56689 285.730542,3768.60882 L285.730542,3767.99393 C285.374994,3713.90459 188.762088,3634.92269 135.174698,3610.40242 C76.0700363,3583.36402 25.2140934,3570.51827 -16.9832049,3570.51827 C-67.3581121,3570.51827 -105.380856,3588.83528 -130.315243,3623.16032 C-178.456471,3689.42196 -98.0607459,3795.12017 -144.21927,3900.11565 Z" id="Fill-1" transform="translate(58.447394, 3828.018272) scale(-1, 1) rotate(176.000000) translate(-58.447394, -3828.018272) "></path>
        </g>
    </g>
</svg>