<?xml version="1.0" encoding="UTF-8"?>
<svg width="421px" height="417px" viewBox="0 0 421 417" version="1.1" xmlns="http://www.w3.org/2000/svg" xmlns:xlink="http://www.w3.org/1999/xlink">
    <title>Group 15</title>
    <g id="Desktop" stroke="none" stroke-width="1" fill="none" fill-rule="evenodd">
        <g id="12.01---Inscrição-passo-1" transform="translate(-825.000000, -280.000000)">
            <g id="header" transform="translate(-375.825800, 20.514319)">
                <g id="Group-15" transform="translate(1202.804586, 260.485681)">
                    <path d="M263.48518,34 C240.832546,34.0196524 216.306387,36.0962529 190.34888,40.6850816 C99.9051978,55.8350929 13.0160814,102.032869 46.2347656,173.662852 C126.342093,286.820767 33.6988597,340.840946 131.308913,382.579308 C155.743361,393.027818 342.071865,382.089693 314.488131,298.794738 C250.532764,203.772247 384.392587,260.220273 387.951311,136.193993 C385.965239,117.507647 383.53103,104.974239 380.648682,98.5937693 C366.361408,66.9567269 344.606893,34.0720587 264.136983,34 L263.48518,34 Z" id="Fill-1" fill="#FFD339" transform="translate(213.475655, 209.937378) rotate(11.000000) translate(-213.475655, -209.937378) "></path>
                    <path d="M255.48518,31 C232.832546,31.0196524 208.306387,33.0962529 182.34888,37.6850816 C91.9051978,52.8350929 5.0160814,99.0328688 38.2347656,170.662852 C118.342093,283.820767 25.6988597,337.840946 123.308913,379.579308 C147.743361,390.027818 334.071865,379.089693 306.488131,295.794738 C242.532764,200.772247 376.392587,257.220273 379.951311,133.193993 C377.965239,114.507647 375.53103,101.974239 372.648682,95.5937693 C358.361408,63.9567269 336.606893,31.0720587 256.136983,31 L255.48518,31 Z" id="Fill-1-Copy-4" stroke="#EC4359" stroke-width="3" transform="translate(205.475655, 206.937378) rotate(11.000000) translate(-205.475655, -206.937378) "></path>
                </g>
            </g>
        </g>
    </g>
</svg>