<?xml version="1.0" encoding="UTF-8"?>
<svg width="453px" height="408px" viewBox="0 0 453 408" version="1.1" xmlns="http://www.w3.org/2000/svg" xmlns:xlink="http://www.w3.org/1999/xlink">
    <title>Group 4</title>
    <g id="Page-1" stroke="none" stroke-width="1" fill="none" fill-rule="evenodd">
        <g id="12.1---Inscrição---Passo-1" transform="translate(212.000000, -63.000000)">
            <g id="Topo" transform="translate(-211.695414, 63.000000)">
                <g id="Group-4" transform="translate(226.503967, 203.995813) rotate(-8.000000) translate(-226.503967, -203.995813) translate(23.003967, 26.995813)">
                    <path d="M280.71011,40.0323084 C229.408015,28.2327947 179.036875,50.3108313 119.346727,38.0560662 L119.346727,38.0560662 C13.0898283,16.2396987 -23.2086039,87.4734188 14.4460567,131.514375 L14.4460567,131.514375 C52.0993076,175.549489 165.68887,231.891054 205.069144,291.277764 L205.069144,291.277764 C228.074424,325.973247 257.700568,346.579577 282.326032,352.333592 L282.326032,352.333592 L282.682193,352.415816 C305.421104,357.607416 323.83098,350.079478 328.715955,329.231632 L328.715955,329.231632 L328.777625,328.964519 C329.578529,325.447741 329.995097,321.55261 329.988851,317.278519 L329.988851,317.278519 C329.808468,217.377143 396.488499,115.2331 331.638095,64.814411 L331.638095,64.814411 C314.385519,51.4035024 297.591294,43.9405468 280.890809,40.0740248 L280.890809,40.0740248 L280.71011,40.0323084 Z" id="Fill-1" fill="#FFD339"></path>
                    <path d="M335.255109,37.5858464 C354.356314,36.340544 369.086122,38.2850457 380.087529,42.262201 L380.333736,42.3517389 C418.696534,56.3959451 411.295015,95.3074138 385.640322,109.288503 C352.609965,127.291302 270.703204,114.034222 254.478832,157.330228 C241.404638,192.222647 227.56948,201.415267 215.031754,196.954483 L214.77507,196.861135 C192.249585,188.501379 173.957969,136.213448 171.864022,110.139531 C169.557178,81.3820651 171.921731,58.2197846 178.333137,40.6191941 C185.988785,19.608339 199.410572,6.52908631 217.528005,1.33987766 C252.503335,-8.68057317 284.41165,40.899013 335.255109,37.5858464 Z" id="Fill-1" fill="#BFD541"></path>
                </g>
            </g>
        </g>
    </g>
</svg>