<?xml version="1.0" encoding="UTF-8"?>
<svg width="775px" height="741px" viewBox="0 0 775 741" version="1.1" xmlns="http://www.w3.org/2000/svg" xmlns:xlink="http://www.w3.org/1999/xlink">
    <title>Group 14</title>
    <g id="Desktop" stroke="none" stroke-width="1" fill="none" fill-rule="evenodd">
        <g id="12.01---Inscrição-passo-1" transform="translate(376.000000, -21.000000)">
            <g id="header" transform="translate(-375.825800, 20.514319)">
                <g id="Group-14" transform="translate(0.229318, 0.890520)">
                    <path d="M491.524787,163.758391 C403.021825,163.83069 328.856649,219.04902 226.440656,221.547853 C44.1252768,225.994239 11.6043016,356.417041 89.9447417,414.323988 C168.280663,472.221897 375.665706,521.561417 462.636834,603.955118 C513.444927,652.092668 569.770335,674.645424 612.286641,674.758391 L612.901182,674.758391 C652.114329,674.663499 679.425261,655.368715 679.542747,619.368352 L679.542747,618.907446 C679.524672,612.843371 678.733902,606.304834 677.107176,599.305391 C639.028218,435.715442 709.628151,243.165241 584.325019,185.095622 C550.99068,169.650757 520.656748,163.776466 491.836576,163.758391 L491.524787,163.758391 Z" id="Fill-1" fill="#BFD541" transform="translate(364.771373, 419.258391) rotate(13.000000) translate(-364.771373, -419.258391) "></path>
                    <path d="M237.400982,378.676753 C222.750805,427.465927 216.648331,467.857983 216.605929,500.432388 L216.605929,501.161897 C216.772006,614.918798 291.174833,632.639151 332.863879,578.841713 C386.542324,509.579711 416.104162,282.645378 504.086494,281.460572 C574.991088,280.508588 600.42925,253.071792 600.605929,216.016853 L600.605929,215.256301 C600.305575,148.353564 518.690734,50.661391 473.422183,20.332426 C423.492854,-13.1111819 380.531724,-29 344.885081,-29 C302.33031,-29 270.210169,-6.34381821 249.146565,36.1125937 C208.47872,118.071163 276.393914,248.808559 237.400982,378.676753 Z" id="Fill-1" fill="#BFD541" transform="translate(408.605929, 289.500000) scale(-1, 1) rotate(70.000000) translate(-408.605929, -289.500000) "></path>
                    <path d="M140.435686,212.442565 C104.540091,261.849301 164.485641,340.661169 130.068412,418.949059 L130.068412,418.949059 C117.137389,448.36043 111.751023,472.709801 111.713596,492.346491 L111.713596,492.346491 L111.713596,492.786258 C111.860185,561.361847 177.532063,572.044131 214.329025,539.613651 L214.329025,539.613651 C261.708466,497.860733 287.80131,361.058874 365.45918,360.344643 L365.45918,360.344643 C428.043332,359.770762 450.496403,343.231155 450.652349,320.893484 L450.652349,320.893484 L450.652349,320.435004 C450.387241,280.104311 378.349656,221.212954 338.393234,202.929873 L338.393234,202.929873 C294.322962,182.769205 256.403191,173.191017 224.939574,173.191017 L224.939574,173.191017 C187.378478,173.191017 159.027539,186.848747 140.435686,212.442565" id="Fill-1-Copy" stroke="#EC4359" stroke-width="3" transform="translate(281.182972, 365.191017) scale(-1, 1) rotate(-15.000000) translate(-281.182972, -365.191017) "></path>
                    <g id="Detalhe" transform="translate(527.071076, 436.010678) rotate(-180.000000) translate(-527.071076, -436.010678) translate(494.571076, 335.510678)" fill="#882D8E">
                        <path d="M62.5,1.94972927e-11 C63.8807119,1.94972927e-11 65,1.11928813 65,2.5 C65,3.88071187 63.8807119,5 62.5,5 C61.1192881,5 60,3.88071187 60,2.5 C60,1.11928813 61.1192881,1.94972927e-11 62.5,1.94972927e-11 Z M62.5,20 C61.1192881,20 60,18.8807119 60,17.5 C60,16.1192881 61.1192881,15 62.5,15 C63.8807119,15 65,16.1192881 65,17.5 C65,18.8807119 63.8807119,20 62.5,20 Z M62.5,35 C61.1192881,35 60,33.8807119 60,32.5 C60,31.1192881 61.1192881,30 62.5,30 C63.8807119,30 65,31.1192881 65,32.5 C65,33.8807119 63.8807119,35 62.5,35 Z M62.5,50 C61.1192881,50 60,48.8807119 60,47.5 C60,46.1192881 61.1192881,45 62.5,45 C63.8807119,45 65,46.1192881 65,47.5 C65,48.8807119 63.8807119,50 62.5,50 Z M62.5,65 C61.1192881,65 60,63.8807119 60,62.5 C60,61.1192881 61.1192881,60 62.5,60 C63.8807119,60 65,61.1192881 65,62.5 C65,63.8807119 63.8807119,65 62.5,65 Z M47.5,5 C46.1192881,5 45,3.88071187 45,2.5 C45,1.11928813 46.1192881,1.75646164e-11 47.5,1.75646164e-11 C48.8807119,1.75646164e-11 50,1.11928813 50,2.5 C50,3.88071187 48.8807119,5 47.5,5 Z M47.5,20 C46.1192881,20 45,18.8807119 45,17.5 C45,16.1192881 46.1192881,15 47.5,15 C48.8807119,15 50,16.1192881 50,17.5 C50,18.8807119 48.8807119,20 47.5,20 Z M47.5,35 C46.1192881,35 45,33.8807119 45,32.5 C45,31.1192881 46.1192881,30 47.5,30 C48.8807119,30 50,31.1192881 50,32.5 C50,33.8807119 48.8807119,35 47.5,35 Z M47.5,50 C46.1192881,50 45,48.8807119 45,47.5 C45,46.1192881 46.1192881,45 47.5,45 C48.8807119,45 50,46.1192881 50,47.5 C50,48.8807119 48.8807119,50 47.5,50 Z M47.5,65 C46.1192881,65 45,63.8807119 45,62.5 C45,61.1192881 46.1192881,60 47.5,60 C48.8807119,60 50,61.1192881 50,62.5 C50,63.8807119 48.8807119,65 47.5,65 Z M32.5,5 C31.1192881,5 30,3.88071187 30,2.5 C30,1.11928813 31.1192881,1.23350219e-11 32.5,1.23350219e-11 C33.8807119,1.23350219e-11 35,1.11928813 35,2.5 C35,3.88071187 33.8807119,5 32.5,5 Z M32.5,20 C31.1192881,20 30,18.8807119 30,17.5 C30,16.1192881 31.1192881,15 32.5,15 C33.8807119,15 35,16.1192881 35,17.5 C35,18.8807119 33.8807119,20 32.5,20 Z M32.5,35 C31.1192881,35 30,33.8807119 30,32.5 C30,31.1192881 31.1192881,30 32.5,30 C33.8807119,30 35,31.1192881 35,32.5 C35,33.8807119 33.8807119,35 32.5,35 Z M32.5,50 C31.1192881,50 30,48.8807119 30,47.5 C30,46.1192881 31.1192881,45 32.5,45 C33.8807119,45 35,46.1192881 35,47.5 C35,48.8807119 33.8807119,50 32.5,50 Z M32.5,65 C31.1192881,65 30,63.8807119 30,62.5 C30,61.1192881 31.1192881,60 32.5,60 C33.8807119,60 35,61.1192881 35,62.5 C35,63.8807119 33.8807119,65 32.5,65 Z M17.5,5 C16.1192881,5 15,3.88071187 15,2.5 C15,1.11928813 16.1192881,7.73070497e-12 17.5,7.73070497e-12 C18.8807119,7.73070497e-12 20,1.11928813 20,2.5 C20,3.88071187 18.8807119,5 17.5,5 Z M17.5,20 C16.1192881,20 15,18.8807119 15,17.5 C15,16.1192881 16.1192881,15 17.5,15 C18.8807119,15 20,16.1192881 20,17.5 C20,18.8807119 18.8807119,20 17.5,20 Z M17.5,35 C16.1192881,35 15,33.8807119 15,32.5 C15,31.1192881 16.1192881,30 17.5,30 C18.8807119,30 20,31.1192881 20,32.5 C20,33.8807119 18.8807119,35 17.5,35 Z M17.5,50 C16.1192881,50 15,48.8807119 15,47.5 C15,46.1192881 16.1192881,45 17.5,45 C18.8807119,45 20,46.1192881 20,47.5 C20,48.8807119 18.8807119,50 17.5,50 Z M17.5,65 C16.1192881,65 15,63.8807119 15,62.5 C15,61.1192881 16.1192881,60 17.5,60 C18.8807119,60 20,61.1192881 20,62.5 C20,63.8807119 18.8807119,65 17.5,65 Z M62.5,80 C61.1192881,80 60,78.8807119 60,77.5 C60,76.1192881 61.1192881,75 62.5,75 C63.8807119,75 65,76.1192881 65,77.5 C65,78.8807119 63.8807119,80 62.5,80 Z M47.5,80 C46.1192881,80 45,78.8807119 45,77.5 C45,76.1192881 46.1192881,75 47.5,75 C48.8807119,75 50,76.1192881 50,77.5 C50,78.8807119 48.8807119,80 47.5,80 Z M32.5,80 C31.1192881,80 30,78.8807119 30,77.5 C30,76.1192881 31.1192881,75 32.5,75 C33.8807119,75 35,76.1192881 35,77.5 C35,78.8807119 33.8807119,80 32.5,80 Z M17.5,80 C16.1192881,80 15,78.8807119 15,77.5 C15,76.1192881 16.1192881,75 17.5,75 C18.8807119,75 20,76.1192881 20,77.5 C20,78.8807119 18.8807119,80 17.5,80 Z M62.5,95 C61.1192881,95 60,93.8807119 60,92.5 C60,91.1192881 61.1192881,90 62.5,90 C63.8807119,90 65,91.1192881 65,92.5 C65,93.8807119 63.8807119,95 62.5,95 Z M47.5,95 C46.1192881,95 45,93.8807119 45,92.5 C45,91.1192881 46.1192881,90 47.5,90 C48.8807119,90 50,91.1192881 50,92.5 C50,93.8807119 48.8807119,95 47.5,95 Z M32.5,95 C31.1192881,95 30,93.8807119 30,92.5 C30,91.1192881 31.1192881,90 32.5,90 C33.8807119,90 35,91.1192881 35,92.5 C35,93.8807119 33.8807119,95 32.5,95 Z M17.5,95 C16.1192881,95 15,93.8807119 15,92.5 C15,91.1192881 16.1192881,90 17.5,90 C18.8807119,90 20,91.1192881 20,92.5 C20,93.8807119 18.8807119,95 17.5,95 Z M2.5,5 C1.11928813,5 6.8536631e-17,3.88071187 1.5308085e-16,2.5 C2.37625069e-16,1.11928813 1.11928813,0 2.5,0 C3.88071187,0 5,1.11928813 5,2.5 C5,3.88071187 3.88071187,5 2.5,5 Z M2.5,20 C1.11928813,20 -3.63791027e-12,18.8807119 -3.63782573e-12,17.5 C-3.63774118e-12,16.1192881 1.11928813,15 2.5,15 C3.88071187,15 5,16.1192881 5,17.5 C5,18.8807119 3.88071187,20 2.5,20 Z M2.5,35 C1.11928813,35 7.27602615e-12,33.8807119 7.2761107e-12,32.5 C7.27619524e-12,31.1192881 1.11928813,30 2.5,30 C3.88071187,30 5,31.1192881 5,32.5 C5,33.8807119 3.88071187,35 2.5,35 Z M2.5,50 C1.11928813,50 1.0914005e-11,48.8807119 1.09140895e-11,47.5 C1.0914174e-11,46.1192881 1.11928813,45 2.5,45 C3.88071187,45 5,46.1192881 5,47.5 C5,48.8807119 3.88071187,50 2.5,50 Z M2.5,65 C1.11928813,65 1.81899626e-11,63.8807119 1.81900471e-11,62.5 C1.81901317e-11,61.1192881 1.11928813,60 2.5,60 C3.88071187,60 5,61.1192881 5,62.5 C5,63.8807119 3.88071187,65 2.5,65 Z M2.5,80 C1.11928813,80 1.45519838e-11,78.8807119 1.45520683e-11,77.5 C1.45521529e-11,76.1192881 1.11928813,75 2.5,75 C3.88071187,75 5,76.1192881 5,77.5 C5,78.8807119 3.88071187,80 2.5,80 Z M2.5,95 C1.11928813,95 2.54659202e-11,93.8807119 2.54660047e-11,92.5 C2.54660893e-11,91.1192881 1.11928813,90 2.5,90 C3.88071187,90 5,91.1192881 5,92.5 C5,93.8807119 3.88071187,95 2.5,95 Z" id="Shape"></path>
                        <path d="M62.5,106 C63.8807119,106 65,107.119288 65,108.5 C65,109.880712 63.8807119,111 62.5,111 C61.1192881,111 60,109.880712 60,108.5 C60,107.119288 61.1192881,106 62.5,106 Z M62.5,126 C61.1192881,126 60,124.880712 60,123.5 C60,122.119288 61.1192881,121 62.5,121 C63.8807119,121 65,122.119288 65,123.5 C65,124.880712 63.8807119,126 62.5,126 Z M62.5,141 C61.1192881,141 60,139.880712 60,138.5 C60,137.119288 61.1192881,136 62.5,136 C63.8807119,136 65,137.119288 65,138.5 C65,139.880712 63.8807119,141 62.5,141 Z M62.5,156 C61.1192881,156 60,154.880712 60,153.5 C60,152.119288 61.1192881,151 62.5,151 C63.8807119,151 65,152.119288 65,153.5 C65,154.880712 63.8807119,156 62.5,156 Z M62.5,171 C61.1192881,171 60,169.880712 60,168.5 C60,167.119288 61.1192881,166 62.5,166 C63.8807119,166 65,167.119288 65,168.5 C65,169.880712 63.8807119,171 62.5,171 Z M47.5,111 C46.1192881,111 45,109.880712 45,108.5 C45,107.119288 46.1192881,106 47.5,106 C48.8807119,106 50,107.119288 50,108.5 C50,109.880712 48.8807119,111 47.5,111 Z M47.5,126 C46.1192881,126 45,124.880712 45,123.5 C45,122.119288 46.1192881,121 47.5,121 C48.8807119,121 50,122.119288 50,123.5 C50,124.880712 48.8807119,126 47.5,126 Z M47.5,141 C46.1192881,141 45,139.880712 45,138.5 C45,137.119288 46.1192881,136 47.5,136 C48.8807119,136 50,137.119288 50,138.5 C50,139.880712 48.8807119,141 47.5,141 Z M47.5,156 C46.1192881,156 45,154.880712 45,153.5 C45,152.119288 46.1192881,151 47.5,151 C48.8807119,151 50,152.119288 50,153.5 C50,154.880712 48.8807119,156 47.5,156 Z M47.5,171 C46.1192881,171 45,169.880712 45,168.5 C45,167.119288 46.1192881,166 47.5,166 C48.8807119,166 50,167.119288 50,168.5 C50,169.880712 48.8807119,171 47.5,171 Z M32.5,111 C31.1192881,111 30,109.880712 30,108.5 C30,107.119288 31.1192881,106 32.5,106 C33.8807119,106 35,107.119288 35,108.5 C35,109.880712 33.8807119,111 32.5,111 Z M32.5,126 C31.1192881,126 30,124.880712 30,123.5 C30,122.119288 31.1192881,121 32.5,121 C33.8807119,121 35,122.119288 35,123.5 C35,124.880712 33.8807119,126 32.5,126 Z M32.5,141 C31.1192881,141 30,139.880712 30,138.5 C30,137.119288 31.1192881,136 32.5,136 C33.8807119,136 35,137.119288 35,138.5 C35,139.880712 33.8807119,141 32.5,141 Z M32.5,156 C31.1192881,156 30,154.880712 30,153.5 C30,152.119288 31.1192881,151 32.5,151 C33.8807119,151 35,152.119288 35,153.5 C35,154.880712 33.8807119,156 32.5,156 Z M32.5,171 C31.1192881,171 30,169.880712 30,168.5 C30,167.119288 31.1192881,166 32.5,166 C33.8807119,166 35,167.119288 35,168.5 C35,169.880712 33.8807119,171 32.5,171 Z M17.5,111 C16.1192881,111 15,109.880712 15,108.5 C15,107.119288 16.1192881,106 17.5,106 C18.8807119,106 20,107.119288 20,108.5 C20,109.880712 18.8807119,111 17.5,111 Z M17.5,126 C16.1192881,126 15,124.880712 15,123.5 C15,122.119288 16.1192881,121 17.5,121 C18.8807119,121 20,122.119288 20,123.5 C20,124.880712 18.8807119,126 17.5,126 Z M17.5,141 C16.1192881,141 15,139.880712 15,138.5 C15,137.119288 16.1192881,136 17.5,136 C18.8807119,136 20,137.119288 20,138.5 C20,139.880712 18.8807119,141 17.5,141 Z M17.5,156 C16.1192881,156 15,154.880712 15,153.5 C15,152.119288 16.1192881,151 17.5,151 C18.8807119,151 20,152.119288 20,153.5 C20,154.880712 18.8807119,156 17.5,156 Z M17.5,171 C16.1192881,171 15,169.880712 15,168.5 C15,167.119288 16.1192881,166 17.5,166 C18.8807119,166 20,167.119288 20,168.5 C20,169.880712 18.8807119,171 17.5,171 Z M62.5,186 C61.1192881,186 60,184.880712 60,183.5 C60,182.119288 61.1192881,181 62.5,181 C63.8807119,181 65,182.119288 65,183.5 C65,184.880712 63.8807119,186 62.5,186 Z M47.5,186 C46.1192881,186 45,184.880712 45,183.5 C45,182.119288 46.1192881,181 47.5,181 C48.8807119,181 50,182.119288 50,183.5 C50,184.880712 48.8807119,186 47.5,186 Z M32.5,186 C31.1192881,186 30,184.880712 30,183.5 C30,182.119288 31.1192881,181 32.5,181 C33.8807119,181 35,182.119288 35,183.5 C35,184.880712 33.8807119,186 32.5,186 Z M17.5,186 C16.1192881,186 15,184.880712 15,183.5 C15,182.119288 16.1192881,181 17.5,181 C18.8807119,181 20,182.119288 20,183.5 C20,184.880712 18.8807119,186 17.5,186 Z M62.5,201 C61.1192881,201 60,199.880712 60,198.5 C60,197.119288 61.1192881,196 62.5,196 C63.8807119,196 65,197.119288 65,198.5 C65,199.880712 63.8807119,201 62.5,201 Z M47.5,201 C46.1192881,201 45,199.880712 45,198.5 C45,197.119288 46.1192881,196 47.5,196 C48.8807119,196 50,197.119288 50,198.5 C50,199.880712 48.8807119,201 47.5,201 Z M32.5,201 C31.1192881,201 30,199.880712 30,198.5 C30,197.119288 31.1192881,196 32.5,196 C33.8807119,196 35,197.119288 35,198.5 C35,199.880712 33.8807119,201 32.5,201 Z M17.5,201 C16.1192881,201 15,199.880712 15,198.5 C15,197.119288 16.1192881,196 17.5,196 C18.8807119,196 20,197.119288 20,198.5 C20,199.880712 18.8807119,201 17.5,201 Z M2.5,111 C1.11928813,111 6.8536631e-17,109.880712 1.5308085e-16,108.5 C2.37625069e-16,107.119288 1.11928813,106 2.5,106 C3.88071187,106 5,107.119288 5,108.5 C5,109.880712 3.88071187,111 2.5,111 Z M2.5,126 C1.11928813,126 -3.63791027e-12,124.880712 -3.63782573e-12,123.5 C-3.63774118e-12,122.119288 1.11928813,121 2.5,121 C3.88071187,121 5,122.119288 5,123.5 C5,124.880712 3.88071187,126 2.5,126 Z M2.5,141 C1.11928813,141 7.27602615e-12,139.880712 7.2761107e-12,138.5 C7.27619524e-12,137.119288 1.11928813,136 2.5,136 C3.88071187,136 5,137.119288 5,138.5 C5,139.880712 3.88071187,141 2.5,141 Z M2.5,156 C1.11928813,156 1.0914005e-11,154.880712 1.09140895e-11,153.5 C1.0914174e-11,152.119288 1.11928813,151 2.5,151 C3.88071187,151 5,152.119288 5,153.5 C5,154.880712 3.88071187,156 2.5,156 Z M2.5,171 C1.11928813,171 1.81899626e-11,169.880712 1.81900471e-11,168.5 C1.81901317e-11,167.119288 1.11928813,166 2.5,166 C3.88071187,166 5,167.119288 5,168.5 C5,169.880712 3.88071187,171 2.5,171 Z M2.5,186 C1.11928813,186 1.45519838e-11,184.880712 1.45520683e-11,183.5 C1.45521529e-11,182.119288 1.11928813,181 2.5,181 C3.88071187,181 5,182.119288 5,183.5 C5,184.880712 3.88071187,186 2.5,186 Z M2.5,201 C1.11928813,201 2.54659202e-11,199.880712 2.54660047e-11,198.5 C2.54660893e-11,197.119288 1.11928813,196 2.5,196 C3.88071187,196 5,197.119288 5,198.5 C5,199.880712 3.88071187,201 2.5,201 Z" id="Shape-Copy"></path>
                    </g>
                </g>
            </g>
        </g>
    </g>
</svg>