<?xml version="1.0" encoding="UTF-8"?>
<svg width="768px" height="856px" viewBox="0 0 768 856" version="1.1" xmlns="http://www.w3.org/2000/svg" xmlns:xlink="http://www.w3.org/1999/xlink">
    <title>Group 17</title>
    <g id="Desktop" stroke="none" stroke-width="1" fill="none" fill-rule="evenodd">
        <g id="12.01---Inscrição-passo-1" transform="translate(-1056.000000, -5129.000000)">
            <g id="Group-17" transform="translate(1058.228627, 5129.096043)">
                <path d="M508.524787,146 C420.021825,146.072299 345.856649,201.290628 243.440656,203.789461 L243.440656,203.789461 C61.1252768,208.235847 28.6043016,338.658649 106.944742,396.565596 L106.944742,396.565596 C185.280663,454.463506 392.665706,503.803026 479.636834,586.196726 L479.636834,586.196726 C530.444927,634.334277 586.770335,656.887033 629.286641,657 L629.286641,657 L629.901182,657 C669.114329,656.905108 696.425261,637.610323 696.542747,601.609961 L696.542747,601.609961 L696.542747,601.149055 C696.524672,595.08498 695.733902,588.546443 694.107176,581.547 L694.107176,581.547 C656.028218,417.95705 726.628151,225.40685 601.325019,167.33723 L601.325019,167.33723 C567.99068,151.892365 537.656748,146.018075 508.836576,146 L508.836576,146 L508.524787,146 Z" id="Fill-1" fill="#BFD541" transform="translate(381.771373, 401.500000) rotate(59.000000) translate(-381.771373, -401.500000) "></path>
                <path d="M508.524787,196 C420.021825,196.072299 345.856649,251.290628 243.440656,253.789461 L243.440656,253.789461 C61.1252768,258.235847 28.6043016,388.658649 106.944742,446.565596 L106.944742,446.565596 C185.280663,504.463506 392.665706,553.803026 479.636834,636.196726 L479.636834,636.196726 C530.444927,684.334277 586.770335,706.887033 629.286641,707 L629.286641,707 L629.901182,707 C669.114329,706.905108 696.425261,687.610323 696.542747,651.609961 L696.542747,651.609961 L696.542747,651.149055 C696.524672,645.08498 695.733902,638.546443 694.107176,631.547 L694.107176,631.547 C656.028218,467.95705 726.628151,275.40685 601.325019,217.33723 L601.325019,217.33723 C567.99068,201.892365 537.656748,196.018075 508.836576,196 L508.836576,196 L508.524787,196 Z" id="Fill-1-Copy-5" stroke="#EC4359" stroke-width="3" transform="translate(381.771373, 451.500000) rotate(59.000000) translate(-381.771373, -451.500000) "></path>
            </g>
        </g>
    </g>
</svg>