<?xml version="1.0" encoding="UTF-8"?>
<svg width="397px" height="381px" viewBox="0 0 397 381" version="1.1" xmlns="http://www.w3.org/2000/svg" xmlns:xlink="http://www.w3.org/1999/xlink">
    <title>Shape 4 Copy</title>
    <g id="Page-1" stroke="none" stroke-width="1" fill="none" fill-rule="evenodd">
        <g id="11---Meus-Projetos" transform="translate(203.000000, 22.000000)">
            <g id="Group-4" transform="translate(-202.000000, -21.000000)">
                <g id="Shape-4-Copy" transform="translate(197.667584, 190.174190) scale(-1, 1) rotate(26.000000) translate(-197.667584, -190.174190) translate(44.167584, 54.174190)">
                    <path d="M160.406174,71.4992131 C98.3801807,109.781989 39.9973544,83.2497615 24.1529574,119.082429 C9.31981405,152.630518 69.8280779,165.057177 108.854358,210.208003 C147.880637,255.35883 211.610706,247.329237 253.506151,203.282168 C295.401596,159.235098 298.518491,57.2675724 246.544279,44.2961423 C214.73589,36.356812 185.864259,55.787841 160.406174,71.4992131 Z" id="Path" fill="#BFD541" transform="translate(153.550698, 141.444036) scale(-1, 1) rotate(-165.000000) translate(-153.550698, -141.444036) "></path>
                    <path d="M273.318865,151.09988 C257.948506,173.206067 217.42885,210.156391 174.950704,192.594958 C132.472558,175.033524 141.118116,145.014638 136.772511,122.008578 C132.426906,99.0025176 100.696343,102.440904 103.033824,66.1449164 C105.480662,28.1828069 196.949552,-4.30138863 249.595162,29.6518855 C302.240772,63.6051597 290.200656,126.8199 273.318865,151.09988 Z" id="Path-Copy" stroke="#FF8328" stroke-width="3" transform="translate(195.314742, 106.284024) scale(-1, 1) rotate(261.000000) translate(-195.314742, -106.284024) "></path>
                </g>
            </g>
        </g>
    </g>
</svg>