<?xml version="1.0" encoding="UTF-8"?>
<svg width="1090px" height="1033px" viewBox="0 0 1090 1033" version="1.1" xmlns="http://www.w3.org/2000/svg" xmlns:xlink="http://www.w3.org/1999/xlink">
    <title>Group 5</title>
    <g id="Desktop" stroke="none" stroke-width="1" fill="none" fill-rule="evenodd">
        <g id="11---Meus-Projetps" transform="translate(508.000000, 66.000000)">
            <g id="Shape-4-Copy" transform="translate(38.153154, 447.949397) scale(-1, 1) rotate(26.000000) translate(-38.153154, -447.949397) translate(-387.846846, 83.449397)">
                <g id="Group-5" transform="translate(0.572712, 0.263258)">
                    <g id="Group-7" transform="translate(-0.000000, 0.000000)">
                        <path d="M348.978697,96.1153818 C201.692125,187.217727 63.0825804,124.120514 25.447745,209.374752 C-9.78508377,289.193448 133.876826,318.731946 226.519654,426.13175 C319.162482,533.531553 470.48254,514.402295 569.974781,409.594774 C669.467022,304.787254 676.909931,62.2002576 553.510973,31.3621797 C477.990403,12.487337 409.431323,58.7266906 348.978697,96.1153818 Z" id="Path" fill="#BFD541" transform="translate(332.680672, 262.500000) scale(-1, 1) rotate(-185.000000) translate(-332.680672, -262.500000) "></path>
                        <path d="M729.690202,527.113048 C693.203643,579.605725 596.967139,667.312151 495.947409,625.483369 C394.927679,583.654587 415.409591,512.344052 405.02544,457.666976 C394.641289,402.989901 319.219738,411.085952 324.691464,324.845036 C330.419257,234.645345 547.782247,157.670508 673.010325,238.473303 C798.238402,319.276098 769.764635,469.458548 729.690202,527.113048 Z" id="Path-Copy" stroke="#FF8328" stroke-width="6" transform="translate(544.104779, 420.443049) scale(-1, 1) rotate(231.000000) translate(-544.104779, -420.443049) "></path>
                    </g>
                </g>
            </g>
        </g>
    </g>
</svg>