<?xml version="1.0" encoding="UTF-8"?>
<svg width="411px" height="411px" viewBox="0 0 411 411" version="1.1" xmlns="http://www.w3.org/2000/svg" xmlns:xlink="http://www.w3.org/1999/xlink">
    <title>Shape 4 Copy</title>
    <g id="Page-1" stroke="none" stroke-width="1" fill="none" fill-rule="evenodd">
        <g id="05---Criar-Grupo" transform="translate(217.000000, 18.000000)">
            <g id="Group-4" transform="translate(-217.000000, -17.000000)">
                <g id="Shape-4-Copy" transform="translate(205.520003, 205.018230) scale(-1, 1) rotate(26.000000) translate(-205.520003, -205.018230) translate(52.020003, 52.518230)">
                    <path d="M160.625906,104.754593 C98.5999132,143.037369 40.2170868,116.505141 24.3726898,152.337808 C9.53954648,185.885897 70.0478104,198.312557 109.07409,243.463383 C148.10037,288.614209 211.830438,280.584617 253.725883,236.537547 C295.621328,192.490477 298.738223,90.5229521 246.764012,77.551522 C214.955623,69.6121917 186.083992,89.0432208 160.625906,104.754593 Z" id="Path" fill="#55C7DF" transform="translate(153.770430, 174.699415) scale(-1, 1) rotate(-165.000000) translate(-153.770430, -174.699415) "></path>
                    <path d="M257.318865,151.09988 C241.948506,173.206067 201.42885,210.156391 158.950704,192.594958 C116.472558,175.033524 125.118116,145.014638 120.772511,122.008578 C116.426906,99.0025176 84.6963432,102.440904 87.0338238,66.1449164 C89.4806619,28.1828069 180.949552,-4.30138863 233.595162,29.6518855 C286.240772,63.6051597 274.200656,126.8199 257.318865,151.09988 Z" id="Path-Copy" stroke="#FF8328" stroke-width="3" transform="translate(179.314742, 106.284024) scale(-1, 1) rotate(261.000000) translate(-179.314742, -106.284024) "></path>
                </g>
            </g>
        </g>
    </g>
</svg>