<?xml version="1.0" encoding="UTF-8"?>
<svg width="408px" height="378px" viewBox="0 0 408 378" version="1.1" xmlns="http://www.w3.org/2000/svg" xmlns:xlink="http://www.w3.org/1999/xlink">
    <title>Group 8</title>
    <g id="Page-1" stroke="none" stroke-width="1" fill="none" fill-rule="evenodd">
        <g id="06---Meus-Grupos" transform="translate(214.000000, 17.000000)">
            <g id="Group-4" transform="translate(-214.000000, -18.000000)">
                <g id="Shape-4-Copy" transform="translate(204.022557, 189.708958) scale(-1, 1) rotate(26.000000) translate(-204.022557, -189.708958) translate(41.022557, 59.208958)">
                    <g id="Group-8" transform="translate(0.545164, 0.763562)">
                        <path d="M160.545896,60.0392686 C98.5199033,98.3220443 40.137077,71.789817 24.29268,107.622484 C9.45953665,141.170573 69.9678006,153.597233 108.99408,198.748059 C148.02036,243.898885 211.750428,235.869293 253.645873,191.822223 C295.541318,147.775153 298.658213,45.8076279 246.684002,32.8361978 C214.875613,24.8968675 186.003982,44.3278965 160.545896,60.0392686 Z" id="Path" fill="#55C7DF" transform="translate(153.690421, 129.984091) scale(-1, 1) rotate(-165.000000) translate(-153.690421, -129.984091) "></path>
                        <path d="M298.007372,189.972402 C282.637013,212.078589 242.117357,249.028913 199.639211,231.46748 C157.161065,213.906047 165.806623,183.88716 161.461018,160.8811 C157.115413,137.87504 125.38485,141.313426 127.722331,105.017439 C130.169169,67.055329 221.638059,34.5711335 274.283669,68.5244076 C326.929279,102.477682 314.889163,165.692422 298.007372,189.972402 Z" id="Path-Copy" stroke="#FF8328" stroke-width="3" transform="translate(220.003249, 145.156546) scale(-1, 1) rotate(261.000000) translate(-220.003249, -145.156546) "></path>
                    </g>
                </g>
            </g>
        </g>
    </g>
</svg>