<?xml version="1.0" encoding="UTF-8"?>
<svg width="165px" height="745px" viewBox="0 0 165 745" version="1.1" xmlns="http://www.w3.org/2000/svg" xmlns:xlink="http://www.w3.org/1999/xlink">
    <title>Fill 1</title>
    <g id="Desktop" stroke="none" stroke-width="1" fill="none" fill-rule="evenodd">
        <g id="05---Meus-Grupos-&gt;-Criar-Grupo" transform="translate(-1275.000000, -1796.000000)" fill="#FFD339">
            <path d="M1772.94636,2404.14438 C1750.49579,2388.16187 1720.96966,2376.1435 1690.93619,2379.24168 C1659.48386,2382.46935 1636.08351,2401.99208 1614.8259,2420.12816 C1595.65867,2436.53143 1576.05829,2454.17195 1550.12986,2462.70475 C1529.86439,2469.36336 1507.92152,2469.33062 1487.06432,2464.62407 C1435.31348,2452.90864 1387.6401,2420.96399 1357.29701,2385.28335 C1277.45436,2291.39583 1255.25228,2069.35125 1293.0174,1923.74356 C1314.88508,1839.43024 1421.80386,1756.39291 1536.49323,1794.27156 C1583.25248,1809.72367 1621.84952,1838.26788 1667.84608,1854.94335 C1693.01471,1864.07309 1719.79887,1868.74203 1747.19366,1865.48248 C1775.84107,1862.09106 1802.49958,1851.77666 1828.17197,1840.80878 C1876.26827,1820.15175 1922.49915,1798.51116 1977.74671,1796.51041 C2028.29935,1794.69048 2079.7954,1808.9536 2112.84259,1842.50145 C2143.97419,1874.1115 2155.20204,1917.55851 2134.52419,1955.71896 C2122.34788,1978.25017 2102.54519,1996.82633 2085.88822,2016.95119 C2067.9771,2038.65425 2055.9395,2062.52509 2050.54353,2088.64985 C2029.67567,2189.60669 2093.44791,2284.68871 2095.07013,2384.62393 C2095.78606,2431.48356 2081.75941,2482.83559 2039.14044,2515.38916 C2001.34572,2544.1906 1947.78229,2551.37363 1903.58943,2528.91702 C1845.28569,2499.27975 1823.66695,2440.27855 1772.94636,2404.14438 Z" id="Fill-1" transform="translate(1710.066443, 2163.500000) scale(-1, 1) translate(-1710.066443, -2163.500000) "></path>
        </g>
    </g>
</svg>