<?xml version="1.0" encoding="UTF-8"?>
<svg width="142px" height="135px" viewBox="0 0 142 135" version="1.1" xmlns="http://www.w3.org/2000/svg" xmlns:xlink="http://www.w3.org/1999/xlink">
    <title>Group 8</title>
    <g id="Page-1" stroke="none" stroke-width="1" fill="none" fill-rule="evenodd">
        <g id="09---Missão" transform="translate(20.000000, -528.000000)">
            <g id="Group-5" transform="translate(-20.000000, 528.000000)">
                <g id="Group-8" transform="translate(0.000000, 0.515160)">
                    <path d="M54.3996166,36.4737942 C44.6357908,35.5462319 36.3341665,34.6196429 29.0657666,43.6305262 C26.1762242,47.2122987 24.8757364,51.567851 24.8583062,56.3380323 L24.8583062,56.5346405 C24.9348055,77.7722158 50.2318584,107.099925 73.7994465,113.151953 C102.744256,120.588024 146.983112,104.937235 134.777119,77.8150413 C123.737014,53.2876858 136.611165,26.3455537 127.224026,20.8765374 C124.963908,19.559652 122.751239,19 120.498868,19 C107.855183,19.0019466 94.0388319,36.6528828 64.4742812,37.0334462 C60.9495043,37.0791916 57.5970928,36.7764929 54.3996166,36.4737942 Z" id="Fill-1" fill="#55C7DF" transform="translate(80.858306, 67.000000) rotate(-255.000000) translate(-80.858306, -67.000000) "></path>
                    <g id="Detalhe-Copy" transform="translate(32.500000, 85.984840) rotate(-180.000000) translate(-32.500000, -85.984840) translate(0.000000, 38.484840)" fill="#EC4359">
                        <path d="M62.5,1.94972927e-11 C63.8807119,1.94972927e-11 65,1.11928813 65,2.5 C65,3.88071187 63.8807119,5 62.5,5 C61.1192881,5 60,3.88071187 60,2.5 C60,1.11928813 61.1192881,1.94972927e-11 62.5,1.94972927e-11 Z M62.5,20 C61.1192881,20 60,18.8807119 60,17.5 C60,16.1192881 61.1192881,15 62.5,15 C63.8807119,15 65,16.1192881 65,17.5 C65,18.8807119 63.8807119,20 62.5,20 Z M62.5,35 C61.1192881,35 60,33.8807119 60,32.5 C60,31.1192881 61.1192881,30 62.5,30 C63.8807119,30 65,31.1192881 65,32.5 C65,33.8807119 63.8807119,35 62.5,35 Z M62.5,50 C61.1192881,50 60,48.8807119 60,47.5 C60,46.1192881 61.1192881,45 62.5,45 C63.8807119,45 65,46.1192881 65,47.5 C65,48.8807119 63.8807119,50 62.5,50 Z M62.5,65 C61.1192881,65 60,63.8807119 60,62.5 C60,61.1192881 61.1192881,60 62.5,60 C63.8807119,60 65,61.1192881 65,62.5 C65,63.8807119 63.8807119,65 62.5,65 Z M47.5,5 C46.1192881,5 45,3.88071187 45,2.5 C45,1.11928813 46.1192881,1.75646164e-11 47.5,1.75646164e-11 C48.8807119,1.75646164e-11 50,1.11928813 50,2.5 C50,3.88071187 48.8807119,5 47.5,5 Z M47.5,20 C46.1192881,20 45,18.8807119 45,17.5 C45,16.1192881 46.1192881,15 47.5,15 C48.8807119,15 50,16.1192881 50,17.5 C50,18.8807119 48.8807119,20 47.5,20 Z M47.5,35 C46.1192881,35 45,33.8807119 45,32.5 C45,31.1192881 46.1192881,30 47.5,30 C48.8807119,30 50,31.1192881 50,32.5 C50,33.8807119 48.8807119,35 47.5,35 Z M47.5,50 C46.1192881,50 45,48.8807119 45,47.5 C45,46.1192881 46.1192881,45 47.5,45 C48.8807119,45 50,46.1192881 50,47.5 C50,48.8807119 48.8807119,50 47.5,50 Z M47.5,65 C46.1192881,65 45,63.8807119 45,62.5 C45,61.1192881 46.1192881,60 47.5,60 C48.8807119,60 50,61.1192881 50,62.5 C50,63.8807119 48.8807119,65 47.5,65 Z M32.5,5 C31.1192881,5 30,3.88071187 30,2.5 C30,1.11928813 31.1192881,1.23350219e-11 32.5,1.23350219e-11 C33.8807119,1.23350219e-11 35,1.11928813 35,2.5 C35,3.88071187 33.8807119,5 32.5,5 Z M32.5,20 C31.1192881,20 30,18.8807119 30,17.5 C30,16.1192881 31.1192881,15 32.5,15 C33.8807119,15 35,16.1192881 35,17.5 C35,18.8807119 33.8807119,20 32.5,20 Z M32.5,35 C31.1192881,35 30,33.8807119 30,32.5 C30,31.1192881 31.1192881,30 32.5,30 C33.8807119,30 35,31.1192881 35,32.5 C35,33.8807119 33.8807119,35 32.5,35 Z M32.5,50 C31.1192881,50 30,48.8807119 30,47.5 C30,46.1192881 31.1192881,45 32.5,45 C33.8807119,45 35,46.1192881 35,47.5 C35,48.8807119 33.8807119,50 32.5,50 Z M32.5,65 C31.1192881,65 30,63.8807119 30,62.5 C30,61.1192881 31.1192881,60 32.5,60 C33.8807119,60 35,61.1192881 35,62.5 C35,63.8807119 33.8807119,65 32.5,65 Z M17.5,5 C16.1192881,5 15,3.88071187 15,2.5 C15,1.11928813 16.1192881,7.73070497e-12 17.5,7.73070497e-12 C18.8807119,7.73070497e-12 20,1.11928813 20,2.5 C20,3.88071187 18.8807119,5 17.5,5 Z M17.5,20 C16.1192881,20 15,18.8807119 15,17.5 C15,16.1192881 16.1192881,15 17.5,15 C18.8807119,15 20,16.1192881 20,17.5 C20,18.8807119 18.8807119,20 17.5,20 Z M17.5,35 C16.1192881,35 15,33.8807119 15,32.5 C15,31.1192881 16.1192881,30 17.5,30 C18.8807119,30 20,31.1192881 20,32.5 C20,33.8807119 18.8807119,35 17.5,35 Z M17.5,50 C16.1192881,50 15,48.8807119 15,47.5 C15,46.1192881 16.1192881,45 17.5,45 C18.8807119,45 20,46.1192881 20,47.5 C20,48.8807119 18.8807119,50 17.5,50 Z M17.5,65 C16.1192881,65 15,63.8807119 15,62.5 C15,61.1192881 16.1192881,60 17.5,60 C18.8807119,60 20,61.1192881 20,62.5 C20,63.8807119 18.8807119,65 17.5,65 Z M62.5,80 C61.1192881,80 60,78.8807119 60,77.5 C60,76.1192881 61.1192881,75 62.5,75 C63.8807119,75 65,76.1192881 65,77.5 C65,78.8807119 63.8807119,80 62.5,80 Z M47.5,80 C46.1192881,80 45,78.8807119 45,77.5 C45,76.1192881 46.1192881,75 47.5,75 C48.8807119,75 50,76.1192881 50,77.5 C50,78.8807119 48.8807119,80 47.5,80 Z M32.5,80 C31.1192881,80 30,78.8807119 30,77.5 C30,76.1192881 31.1192881,75 32.5,75 C33.8807119,75 35,76.1192881 35,77.5 C35,78.8807119 33.8807119,80 32.5,80 Z M17.5,80 C16.1192881,80 15,78.8807119 15,77.5 C15,76.1192881 16.1192881,75 17.5,75 C18.8807119,75 20,76.1192881 20,77.5 C20,78.8807119 18.8807119,80 17.5,80 Z M62.5,95 C61.1192881,95 60,93.8807119 60,92.5 C60,91.1192881 61.1192881,90 62.5,90 C63.8807119,90 65,91.1192881 65,92.5 C65,93.8807119 63.8807119,95 62.5,95 Z M47.5,95 C46.1192881,95 45,93.8807119 45,92.5 C45,91.1192881 46.1192881,90 47.5,90 C48.8807119,90 50,91.1192881 50,92.5 C50,93.8807119 48.8807119,95 47.5,95 Z M32.5,95 C31.1192881,95 30,93.8807119 30,92.5 C30,91.1192881 31.1192881,90 32.5,90 C33.8807119,90 35,91.1192881 35,92.5 C35,93.8807119 33.8807119,95 32.5,95 Z M17.5,95 C16.1192881,95 15,93.8807119 15,92.5 C15,91.1192881 16.1192881,90 17.5,90 C18.8807119,90 20,91.1192881 20,92.5 C20,93.8807119 18.8807119,95 17.5,95 Z M2.5,5 C1.11928813,5 6.8536631e-17,3.88071187 1.5308085e-16,2.5 C2.37625069e-16,1.11928813 1.11928813,0 2.5,0 C3.88071187,0 5,1.11928813 5,2.5 C5,3.88071187 3.88071187,5 2.5,5 Z M2.5,20 C1.11928813,20 -3.63791027e-12,18.8807119 -3.63782573e-12,17.5 C-3.63774118e-12,16.1192881 1.11928813,15 2.5,15 C3.88071187,15 5,16.1192881 5,17.5 C5,18.8807119 3.88071187,20 2.5,20 Z M2.5,35 C1.11928813,35 7.27602615e-12,33.8807119 7.2761107e-12,32.5 C7.27619524e-12,31.1192881 1.11928813,30 2.5,30 C3.88071187,30 5,31.1192881 5,32.5 C5,33.8807119 3.88071187,35 2.5,35 Z M2.5,50 C1.11928813,50 1.0914005e-11,48.8807119 1.09140895e-11,47.5 C1.0914174e-11,46.1192881 1.11928813,45 2.5,45 C3.88071187,45 5,46.1192881 5,47.5 C5,48.8807119 3.88071187,50 2.5,50 Z M2.5,65 C1.11928813,65 1.81899626e-11,63.8807119 1.81900471e-11,62.5 C1.81901317e-11,61.1192881 1.11928813,60 2.5,60 C3.88071187,60 5,61.1192881 5,62.5 C5,63.8807119 3.88071187,65 2.5,65 Z M2.5,80 C1.11928813,80 1.45519838e-11,78.8807119 1.45520683e-11,77.5 C1.45521529e-11,76.1192881 1.11928813,75 2.5,75 C3.88071187,75 5,76.1192881 5,77.5 C5,78.8807119 3.88071187,80 2.5,80 Z M2.5,95 C1.11928813,95 2.54659202e-11,93.8807119 2.54660047e-11,92.5 C2.54660893e-11,91.1192881 1.11928813,90 2.5,90 C3.88071187,90 5,91.1192881 5,92.5 C5,93.8807119 3.88071187,95 2.5,95 Z" id="Shape-Copy-3"></path>
                    </g>
                </g>
            </g>
        </g>
    </g>
</svg>