<?xml version="1.0" encoding="UTF-8"?>
<svg width="564px" height="601px" viewBox="0 0 564 601" version="1.1" xmlns="http://www.w3.org/2000/svg" xmlns:xlink="http://www.w3.org/1999/xlink">
    <title>Group 10</title>
    <g id="Page-1" stroke="none" stroke-width="1" fill="none" fill-rule="evenodd">
        <g id="09---Missão" transform="translate(-159.000000, -2352.000000)">
            <g id="Group-7" transform="translate(0.000000, 2352.000000)">
                <g id="Group-10" transform="translate(159.185622, 0.500000)">
                    <path d="M324.467552,113 C238.351645,113.522499 187.176436,250.298527 93.4120397,305.701898 L93.4120397,305.701898 C28.1923673,344.240795 21.2368374,426.676979 110.832362,456.652089 L110.832362,456.652089 C144.783649,468.009946 163.808524,460.116884 190.856159,452.220115 L190.856159,452.220115 C219.486113,443.863845 257.109712,435.500163 330.948757,449.981895 L330.948757,449.981895 C367.038211,457.059712 444.401341,499.534023 483.974119,483.351392 L483.974119,483.351392 C509.48761,472.923656 518.970402,440.847435 519.044515,403.10155 L519.044515,403.10155 L519.044515,402.275187 C518.959285,351.933752 502.298623,291.742665 484.678195,259.329229 L484.678195,259.329229 C464.215523,221.70563 420.703625,114.352567 326.131395,113.007411 L326.131395,113.007411 C325.91276,113 325.683009,113 325.464375,113 L325.464375,113 L324.467552,113 Z" id="Fill-1-Copy-2" fill="#EC4359" transform="translate(281.522258, 300.000000) rotate(-300.000000) translate(-281.522258, -300.000000) "></path>
                    <path d="M286.53356,265.901535 C224.594579,266.277343 187.786741,364.653684 120.346574,404.502633 L120.346574,404.502633 C73.4372375,432.221786 68.4344634,491.514121 132.876164,513.073759 L132.876164,513.073759 C157.295673,521.242913 170.979339,515.565818 190.433387,509.886056 L190.433387,509.886056 C211.02552,503.875798 238.086344,497.860208 291.195175,508.276213 L291.195175,508.276213 C317.152563,513.366942 372.796099,543.916648 401.258872,532.277269 L401.258872,532.277269 C419.609484,524.777105 426.429995,501.706241 426.483301,474.557462 L426.483301,474.557462 L426.483301,473.9631 C426.421999,437.754956 414.438796,394.462435 401.765279,371.149028 L401.765279,371.149028 C387.047475,344.088205 355.751485,266.874371 287.730281,265.906865 L287.730281,265.906865 C287.573028,265.901535 287.40778,265.901535 287.250527,265.901535 L287.250527,265.901535 L286.53356,265.901535 Z" id="Fill-1-Copy-3" stroke="#882D8E" stroke-width="4" transform="translate(255.645100, 400.401535) rotate(80.000000) translate(-255.645100, -400.401535) "></path>
                </g>
            </g>
        </g>
    </g>
</svg>